<?xml version="1.0" encoding="UTF-8" standalone="no"?>
<!DOCTYPE svg PUBLIC "-//W3C//DTD SVG 1.1//EN"
 "http://www.w3.org/Graphics/SVG/1.1/DTD/svg11.dtd">
<!-- Generated by graphviz version 2.40.1 (20161225.0304)
 -->
<!-- Title: task3_3_dka Pages: 1 -->
<svg width="537pt" height="338pt"
 viewBox="0.00 0.00 537.19 337.61" xmlns="http://www.w3.org/2000/svg" xmlns:xlink="http://www.w3.org/1999/xlink">
<g id="graph0" class="graph" transform="scale(1 1) rotate(0) translate(4 333.6097)">
<title>task3_3_dka</title>
<polygon fill="#ffffff" stroke="transparent" points="-4,4 -4,-333.6097 533.1901,-333.6097 533.1901,4 -4,4"/>
<!-- q1 -->
<g id="node1" class="node">
<title>q1</title>
<ellipse fill="none" stroke="#000000" cx="115.6935" cy="-49.2593" rx="20.8568" ry="20.8568"/>
<ellipse fill="none" stroke="#000000" cx="115.6935" cy="-49.2593" rx="24.8884" ry="24.8884"/>
<text text-anchor="middle" x="115.6935" y="-45.0593" font-family="Times,serif" font-size="14.00" fill="#000000">q1</text>
</g>
<!-- q1q2 -->
<g id="node2" class="node">
<title>q1q2</title>
<ellipse fill="none" stroke="#000000" cx="217.7373" cy="-207.2593" rx="30.2188" ry="30.2188"/>
<ellipse fill="none" stroke="#000000" cx="217.7373" cy="-207.2593" rx="34.2014" ry="34.2014"/>
<text text-anchor="middle" x="217.7373" y="-203.0593" font-family="Times,serif" font-size="14.00" fill="#000000">q1q2</text>
</g>
<!-- q1&#45;&gt;q1q2 -->
<g id="edge2" class="edge">
<title>q1&#45;&gt;q1q2</title>
<path fill="none" stroke="#000000" d="M129.2441,-70.2405C145.5974,-95.5613 173.3968,-138.6046 193.4796,-169.6997"/>
<polygon fill="#000000" stroke="#000000" points="190.5578,-171.6272 198.9234,-178.1286 196.4381,-167.8294 190.5578,-171.6272"/>
<text text-anchor="middle" x="161.8869" y="-127.4593" font-family="Times,serif" font-size="14.00" fill="#000000">a</text>
</g>
<!-- q2 -->
<g id="node6" class="node">
<title>q2</title>
<ellipse fill="none" stroke="#000000" cx="290.7812" cy="-49.2593" rx="20.8887" ry="20.8887"/>
<text text-anchor="middle" x="290.7812" y="-45.0593" font-family="Times,serif" font-size="14.00" fill="#000000">q2</text>
</g>
<!-- q1&#45;&gt;q2 -->
<g id="edge3" class="edge">
<title>q1&#45;&gt;q2</title>
<path fill="none" stroke="#000000" d="M140.4079,-49.2593C171.7093,-49.2593 225.6605,-49.2593 259.7157,-49.2593"/>
<polygon fill="#000000" stroke="#000000" points="260.0196,-52.7594 270.0196,-49.2593 260.0195,-45.7594 260.0196,-52.7594"/>
<text text-anchor="middle" x="161.8869" y="-53.4593" font-family="Times,serif" font-size="14.00" fill="#000000">b</text>
</g>
<!-- q1q2q3 -->
<g id="node4" class="node">
<title>q1q2q3</title>
<ellipse fill="none" stroke="#000000" cx="373.4819" cy="-128.2593" rx="40.014" ry="40.014"/>
<ellipse fill="none" stroke="#000000" cx="373.4819" cy="-128.2593" rx="44.0147" ry="44.0147"/>
<text text-anchor="middle" x="373.4819" y="-124.0593" font-family="Times,serif" font-size="14.00" fill="#000000">q1q2q3</text>
</g>
<!-- q1q2&#45;&gt;q1q2q3 -->
<g id="edge4" class="edge">
<title>q1q2&#45;&gt;q1q2q3</title>
<path fill="none" stroke="#000000" d="M248.5074,-191.6514C270.3776,-180.558 300.1874,-165.4372 325.2079,-152.7458"/>
<polygon fill="#000000" stroke="#000000" points="326.8507,-155.8371 334.1857,-148.1919 323.6841,-149.5943 326.8507,-155.8371"/>
<text text-anchor="middle" x="290.7812" y="-183.4593" font-family="Times,serif" font-size="14.00" fill="#000000">a</text>
</g>
<!-- q2q3 -->
<g id="node7" class="node">
<title>q2q3</title>
<ellipse fill="none" stroke="#000000" cx="373.4819" cy="-254.2593" rx="30.2015" ry="30.2015"/>
<text text-anchor="middle" x="373.4819" y="-250.0593" font-family="Times,serif" font-size="14.00" fill="#000000">q2q3</text>
</g>
<!-- q1q2&#45;&gt;q2q3 -->
<g id="edge5" class="edge">
<title>q1q2&#45;&gt;q2q3</title>
<path fill="none" stroke="#000000" d="M250.7667,-217.2268C275.2034,-224.6012 308.5771,-234.6726 334.3521,-242.4508"/>
<polygon fill="#000000" stroke="#000000" points="333.5914,-245.8771 344.1761,-245.4155 335.6138,-239.1756 333.5914,-245.8771"/>
<text text-anchor="middle" x="290.7812" y="-238.4593" font-family="Times,serif" font-size="14.00" fill="#000000">b</text>
</g>
<!-- q1q3 -->
<g id="node3" class="node">
<title>q1q3</title>
<ellipse fill="none" stroke="#000000" cx="494.8397" cy="-295.2593" rx="30.2188" ry="30.2188"/>
<ellipse fill="none" stroke="#000000" cx="494.8397" cy="-295.2593" rx="34.2014" ry="34.2014"/>
<text text-anchor="middle" x="494.8397" y="-291.0593" font-family="Times,serif" font-size="14.00" fill="#000000">q1q3</text>
</g>
<!-- q1q3&#45;&gt;q1q2 -->
<g id="edge11" class="edge">
<title>q1q3&#45;&gt;q1q2</title>
<path fill="none" stroke="#000000" d="M460.6918,-300.4546C426.6145,-304.3528 373.1766,-306.9441 329.4746,-293.2593 298.058,-283.4215 268.8133,-260.1864 248.1286,-240.3449"/>
<polygon fill="#000000" stroke="#000000" points="250.4836,-237.7516 240.9071,-233.2195 245.5672,-242.7344 250.4836,-237.7516"/>
<text text-anchor="middle" x="373.4819" y="-307.4593" font-family="Times,serif" font-size="14.00" fill="#000000">a, b</text>
</g>
<!-- q1q2q3&#45;&gt;q1q2q3 -->
<g id="edge7" class="edge">
<title>q1q2q3&#45;&gt;q1q2q3</title>
<path fill="none" stroke="#000000" d="M361.6057,-170.8618C362.3357,-181.9247 366.2944,-190.2666 373.4819,-190.2666 378.1987,-190.2666 381.525,-186.6741 383.4608,-181.0775"/>
<polygon fill="#000000" stroke="#000000" points="386.9732,-181.3328 385.3582,-170.8618 380.0909,-180.0545 386.9732,-181.3328"/>
<text text-anchor="middle" x="373.4819" y="-194.4666" font-family="Times,serif" font-size="14.00" fill="#000000">a, b</text>
</g>
<g id="node5" class="node">
<title></title>
</g>
<!-- &#45;&gt;q1 -->
<g id="edge1" class="edge">
<title>&#45;&gt;q1</title>
<path fill="none" stroke="#000000" d="M54.0929,-49.2593C62.5145,-49.2593 71.9196,-49.2593 80.7952,-49.2593"/>
<polygon fill="#000000" stroke="#000000" points="80.8805,-52.7594 90.8805,-49.2593 80.8805,-45.7594 80.8805,-52.7594"/>
</g>
<!-- q3 -->
<g id="node8" class="node">
<title>q3</title>
<ellipse fill="none" stroke="#000000" cx="494.8397" cy="-49.2593" rx="20.8887" ry="20.8887"/>
<text text-anchor="middle" x="494.8397" y="-45.0593" font-family="Times,serif" font-size="14.00" fill="#000000">q3</text>
</g>
<!-- q2&#45;&gt;q3 -->
<g id="edge6" class="edge">
<title>q2&#45;&gt;q3</title>
<path fill="none" stroke="#000000" d="M311.8504,-49.2593C347.9153,-49.2593 421.6459,-49.2593 463.6755,-49.2593"/>
<polygon fill="#000000" stroke="#000000" points="463.8851,-52.7594 473.885,-49.2593 463.885,-45.7594 463.8851,-52.7594"/>
<text text-anchor="middle" x="373.4819" y="-53.4593" font-family="Times,serif" font-size="14.00" fill="#000000">a, b</text>
</g>
<!-- q2q3&#45;&gt;q1q3 -->
<g id="edge9" class="edge">
<title>q2q3&#45;&gt;q1q3</title>
<path fill="none" stroke="#000000" d="M402.242,-263.9757C417.2417,-269.0433 435.8792,-275.3399 452.4931,-280.9528"/>
<polygon fill="#000000" stroke="#000000" points="451.4043,-284.2792 461.9985,-284.1641 453.6449,-277.6474 451.4043,-284.2792"/>
<text text-anchor="middle" x="438.9893" y="-280.4593" font-family="Times,serif" font-size="14.00" fill="#000000">b</text>
</g>
<!-- q2q3&#45;&gt;q3 -->
<g id="edge8" class="edge">
<title>q2q3&#45;&gt;q3</title>
<path fill="none" stroke="#000000" d="M398.0671,-235.6209C404.9262,-229.6308 411.9961,-222.6241 417.4893,-215.2593 449.6699,-172.114 473.1146,-113.4399 485.3047,-78.6423"/>
<polygon fill="#000000" stroke="#000000" points="488.653,-79.6679 488.5832,-69.0733 482.0309,-77.399 488.653,-79.6679"/>
<text text-anchor="middle" x="438.9893" y="-189.4593" font-family="Times,serif" font-size="14.00" fill="#000000">a</text>
</g>
<!-- q3&#45;&gt;q1 -->
<g id="edge10" class="edge">
<title>q3&#45;&gt;q1</title>
<path fill="none" stroke="#000000" d="M475.7335,-40.6129C437.1304,-24.1825 346.9677,8.9366 270.0877,-2.4593 226.8368,-8.8704 178.9236,-24.8648 148.1165,-36.3711"/>
<polygon fill="#000000" stroke="#000000" points="146.8486,-33.1086 138.7429,-39.9313 149.3341,-39.6525 146.8486,-33.1086"/>
<text text-anchor="middle" x="290.7812" y="-7.4593" font-family="Times,serif" font-size="14.00" fill="#000000">b</text>
</g>
</g>
</svg>
