<?xml version="1.0" encoding="UTF-8" standalone="no"?>
<!DOCTYPE svg PUBLIC "-//W3C//DTD SVG 1.1//EN"
 "http://www.w3.org/Graphics/SVG/1.1/DTD/svg11.dtd">
<!-- Generated by graphviz version 2.40.1 (20161225.0304)
 -->
<!-- Title: task2_5_simple Pages: 1 -->
<svg width="988pt" height="288pt"
 viewBox="0.00 0.00 988.15 287.52" xmlns="http://www.w3.org/2000/svg" xmlns:xlink="http://www.w3.org/1999/xlink">
<g id="graph0" class="graph" transform="scale(1 1) rotate(0) translate(4 283.5219)">
<title>task2_5_simple</title>
<polygon fill="#ffffff" stroke="transparent" points="-4,4 -4,-283.5219 984.1538,-283.5219 984.1538,4 -4,4"/>
<!-- 210 -->
<g id="node1" class="node">
<title>210</title>
<ellipse fill="none" stroke="#000000" cx="204.9088" cy="-138" rx="25.5409" ry="25.5409"/>
<ellipse fill="none" stroke="#000000" cx="204.9088" cy="-138" rx="29.5439" ry="29.5439"/>
<text text-anchor="middle" x="204.9088" y="-133.8" font-family="Times,serif" font-size="14.00" fill="#000000">210</text>
</g>
<!-- 59 -->
<g id="node14" class="node">
<title>59</title>
<ellipse fill="none" stroke="#000000" cx="298.1242" cy="-139" rx="20.8887" ry="20.8887"/>
<text text-anchor="middle" x="298.1242" y="-134.8" font-family="Times,serif" font-size="14.00" fill="#000000">59</text>
</g>
<!-- 210&#45;&gt;59 -->
<g id="edge12" class="edge">
<title>210&#45;&gt;59</title>
<path fill="none" stroke="#000000" d="M230.4025,-122.8397C239.4571,-119.163 249.7942,-116.8776 259.4308,-119.2 263.3624,-120.1475 267.3437,-121.5661 271.1816,-123.217"/>
<polygon fill="#000000" stroke="#000000" points="269.7928,-126.4336 280.3161,-127.6632 272.8565,-120.1396 269.7928,-126.4336"/>
<text text-anchor="middle" x="255.9308" y="-123.2" font-family="Times,serif" font-size="14.00" fill="#000000">a</text>
</g>
<!-- 39 -->
<g id="node15" class="node">
<title>39</title>
<ellipse fill="none" stroke="#000000" cx="484.555" cy="-229" rx="20.8887" ry="20.8887"/>
<text text-anchor="middle" x="484.555" y="-224.8" font-family="Times,serif" font-size="14.00" fill="#000000">39</text>
</g>
<!-- 210&#45;&gt;39 -->
<g id="edge13" class="edge">
<title>210&#45;&gt;39</title>
<path fill="none" stroke="#000000" d="M231.9777,-150.1609C238.6446,-153.1009 245.7796,-156.2012 252.4308,-159 322.4699,-188.472 409.16,-211.1876 454.1876,-222.0198"/>
<polygon fill="#000000" stroke="#000000" points="453.6456,-225.4883 464.1837,-224.3932 455.2628,-218.6777 453.6456,-225.4883"/>
<text text-anchor="middle" x="340.3177" y="-195.2" font-family="Times,serif" font-size="14.00" fill="#000000">b</text>
</g>
<!-- 310 -->
<g id="node2" class="node">
<title>310</title>
<ellipse fill="none" stroke="#000000" cx="764.2011" cy="-157" rx="25.5409" ry="25.5409"/>
<ellipse fill="none" stroke="#000000" cx="764.2011" cy="-157" rx="29.5439" ry="29.5439"/>
<text text-anchor="middle" x="764.2011" y="-152.8" font-family="Times,serif" font-size="14.00" fill="#000000">310</text>
</g>
<!-- 19 -->
<g id="node10" class="node">
<title>19</title>
<ellipse fill="none" stroke="#000000" cx="857.4165" cy="-35" rx="20.8887" ry="20.8887"/>
<text text-anchor="middle" x="857.4165" y="-30.8" font-family="Times,serif" font-size="14.00" fill="#000000">19</text>
</g>
<!-- 310&#45;&gt;19 -->
<g id="edge17" class="edge">
<title>310&#45;&gt;19</title>
<path fill="none" stroke="#000000" d="M782.174,-133.4772C798.3339,-112.3271 821.9923,-81.363 838.4506,-59.8225"/>
<polygon fill="#000000" stroke="#000000" points="841.2996,-61.8586 844.5898,-51.7876 835.7373,-57.6087 841.2996,-61.8586"/>
<text text-anchor="middle" x="815.223" y="-96.2" font-family="Times,serif" font-size="14.00" fill="#000000">b</text>
</g>
<!-- 69 -->
<g id="node16" class="node">
<title>69</title>
<ellipse fill="none" stroke="#000000" cx="857.4165" cy="-177" rx="20.8887" ry="20.8887"/>
<text text-anchor="middle" x="857.4165" y="-172.8" font-family="Times,serif" font-size="14.00" fill="#000000">69</text>
</g>
<!-- 310&#45;&gt;69 -->
<g id="edge16" class="edge">
<title>310&#45;&gt;69</title>
<path fill="none" stroke="#000000" d="M793.9276,-155.3541C802.0585,-155.5241 810.8085,-156.2871 818.723,-158.2 822.6137,-159.1403 826.5712,-160.5109 830.397,-162.0904"/>
<polygon fill="#000000" stroke="#000000" points="828.9781,-165.2904 839.5227,-166.3208 831.9221,-158.9396 828.9781,-165.2904"/>
<text text-anchor="middle" x="815.223" y="-162.2" font-family="Times,serif" font-size="14.00" fill="#000000">a</text>
</g>
<!-- 410 -->
<g id="node3" class="node">
<title>410</title>
<ellipse fill="none" stroke="#000000" cx="950.6319" cy="-68" rx="25.5409" ry="25.5409"/>
<ellipse fill="none" stroke="#000000" cx="950.6319" cy="-68" rx="29.5439" ry="29.5439"/>
<text text-anchor="middle" x="950.6319" y="-63.8" font-family="Times,serif" font-size="14.00" fill="#000000">410</text>
</g>
<!-- 410&#45;&gt;19 -->
<g id="edge22" class="edge">
<title>410&#45;&gt;19</title>
<path fill="none" stroke="#000000" d="M930.3754,-46.3191C922.5888,-39.4781 913.1428,-32.7756 903.1099,-29.2 898.1526,-27.4333 892.7243,-26.9583 887.3947,-27.2276"/>
<polygon fill="#000000" stroke="#000000" points="886.8854,-23.7642 877.4174,-28.5188 887.7839,-30.7063 886.8854,-23.7642"/>
<text text-anchor="middle" x="899.6099" y="-34.2" font-family="Times,serif" font-size="14.00" fill="#000000">a</text>
</g>
<!-- 410&#45;&gt;59 -->
<g id="edge23" class="edge">
<title>410&#45;&gt;59</title>
<path fill="none" stroke="#000000" d="M921.8779,-75.5315C903.5619,-79.6814 879.2549,-84 857.4165,-84 391.3396,-84 391.3396,-84 391.3396,-84 363.9646,-84 337.5581,-101.8126 319.8836,-117.1638"/>
<polygon fill="#000000" stroke="#000000" points="317.4444,-114.6512 312.4053,-123.971 322.1564,-119.8278 317.4444,-114.6512"/>
<text text-anchor="middle" x="628.7923" y="-88.2" font-family="Times,serif" font-size="14.00" fill="#000000">b</text>
</g>
<!-- 510 -->
<g id="node4" class="node">
<title>510</title>
<ellipse fill="none" stroke="#000000" cx="577.7703" cy="-165" rx="25.5409" ry="25.5409"/>
<ellipse fill="none" stroke="#000000" cx="577.7703" cy="-165" rx="29.5439" ry="29.5439"/>
<text text-anchor="middle" x="577.7703" y="-160.8" font-family="Times,serif" font-size="14.00" fill="#000000">510</text>
</g>
<!-- 29 -->
<g id="node13" class="node">
<title>29</title>
<ellipse fill="none" stroke="#000000" cx="670.9857" cy="-160" rx="20.8887" ry="20.8887"/>
<text text-anchor="middle" x="670.9857" y="-155.8" font-family="Times,serif" font-size="14.00" fill="#000000">29</text>
</g>
<!-- 510&#45;&gt;29 -->
<g id="edge26" class="edge">
<title>510&#45;&gt;29</title>
<path fill="none" stroke="#000000" d="M605.861,-155.5947C614.2924,-153.6764 623.6089,-152.4428 632.2923,-153.2 635.0017,-153.4363 637.8058,-153.7639 640.6094,-154.1487"/>
<polygon fill="#000000" stroke="#000000" points="640.1659,-157.6221 650.5908,-155.7318 641.2625,-150.7085 640.1659,-157.6221"/>
<text text-anchor="middle" x="628.7923" y="-157.2" font-family="Times,serif" font-size="14.00" fill="#000000">a</text>
</g>
<!-- 510&#45;&gt;69 -->
<g id="edge27" class="edge">
<title>510&#45;&gt;69</title>
<path fill="none" stroke="#000000" d="M601.1777,-183.3488C608.4963,-188.0693 616.8701,-192.515 625.2923,-195 704.7678,-218.45 728.8613,-196.5555 811.723,-197 814.8341,-197.0167 815.7,-197.7351 818.723,-197 822.7414,-196.0229 826.8086,-194.5506 830.7206,-192.8392"/>
<polygon fill="#000000" stroke="#000000" points="832.6011,-195.8136 840.0084,-188.2385 829.4939,-189.541 832.6011,-195.8136"/>
<text text-anchor="middle" x="713.1792" y="-209.2" font-family="Times,serif" font-size="14.00" fill="#000000">b</text>
</g>
<!-- 610 -->
<g id="node5" class="node">
<title>610</title>
<ellipse fill="none" stroke="#000000" cx="391.3396" cy="-151" rx="25.5409" ry="25.5409"/>
<ellipse fill="none" stroke="#000000" cx="391.3396" cy="-151" rx="29.5439" ry="29.5439"/>
<text text-anchor="middle" x="391.3396" y="-146.8" font-family="Times,serif" font-size="14.00" fill="#000000">610</text>
</g>
<!-- 49 -->
<g id="node12" class="node">
<title>49</title>
<ellipse fill="none" stroke="#000000" cx="484.555" cy="-163" rx="20.8887" ry="20.8887"/>
<text text-anchor="middle" x="484.555" y="-158.8" font-family="Times,serif" font-size="14.00" fill="#000000">49</text>
</g>
<!-- 610&#45;&gt;49 -->
<g id="edge31" class="edge">
<title>610&#45;&gt;49</title>
<path fill="none" stroke="#000000" d="M410.9475,-128.3939C421.0748,-119.5459 433.8081,-112.6837 445.8615,-118.2 454.4589,-122.1347 461.8742,-129.0272 467.8467,-136.2435"/>
<polygon fill="#000000" stroke="#000000" points="465.3856,-138.7965 474.1794,-144.7057 470.99,-134.6023 465.3856,-138.7965"/>
<text text-anchor="middle" x="442.3615" y="-122.2" font-family="Times,serif" font-size="14.00" fill="#000000">b</text>
</g>
<!-- 610&#45;&gt;39 -->
<g id="edge30" class="edge">
<title>610&#45;&gt;39</title>
<path fill="none" stroke="#000000" d="M420.2566,-157.97C429.0814,-161.0393 438.4114,-165.3237 445.8615,-171.2 451.7162,-175.8179 460.9272,-189.4321 468.8936,-202.2879"/>
<polygon fill="#000000" stroke="#000000" points="465.9704,-204.2172 474.1535,-210.9469 471.9532,-200.5831 465.9704,-204.2172"/>
<text text-anchor="middle" x="442.3615" y="-175.2" font-family="Times,serif" font-size="14.00" fill="#000000">a</text>
</g>
<g id="node6" class="node">
<title></title>
</g>
<!-- 17 -->
<g id="node7" class="node">
<title>17</title>
<ellipse fill="none" stroke="#000000" cx="111.6935" cy="-124" rx="20.8887" ry="20.8887"/>
<text text-anchor="middle" x="111.6935" y="-119.8" font-family="Times,serif" font-size="14.00" fill="#000000">17</text>
</g>
<!-- &#45;&gt;17 -->
<g id="edge1" class="edge">
<title>&#45;&gt;17</title>
<path fill="none" stroke="#000000" d="M54.2637,-124C62.7209,-124 72.1012,-124 80.7873,-124"/>
<polygon fill="#000000" stroke="#000000" points="80.9294,-127.5001 90.9294,-124 80.9293,-120.5001 80.9294,-127.5001"/>
</g>
<!-- 48 -->
<g id="node8" class="node">
<title>48</title>
<ellipse fill="none" stroke="#000000" cx="204.9088" cy="-33" rx="20.8887" ry="20.8887"/>
<text text-anchor="middle" x="204.9088" y="-28.8" font-family="Times,serif" font-size="14.00" fill="#000000">48</text>
</g>
<!-- 17&#45;&gt;48 -->
<g id="edge2" class="edge">
<title>17&#45;&gt;48</title>
<path fill="none" stroke="#000000" d="M126.6701,-109.3793C141.7548,-94.6531 165.2096,-71.7558 182.5072,-54.8692"/>
<polygon fill="#000000" stroke="#000000" points="185.2587,-57.0745 189.9693,-47.5844 180.3688,-52.0655 185.2587,-57.0745"/>
<text text-anchor="middle" x="153.8869" y="-88.2" font-family="Times,serif" font-size="14.00" fill="#000000">a</text>
</g>
<!-- 28 -->
<g id="node9" class="node">
<title>28</title>
<ellipse fill="none" stroke="#000000" cx="204.9088" cy="-228" rx="20.8887" ry="20.8887"/>
<text text-anchor="middle" x="204.9088" y="-223.8" font-family="Times,serif" font-size="14.00" fill="#000000">28</text>
</g>
<!-- 17&#45;&gt;28 -->
<g id="edge3" class="edge">
<title>17&#45;&gt;28</title>
<path fill="none" stroke="#000000" d="M125.8509,-139.7954C141.3391,-157.0755 166.3185,-184.945 184.0508,-204.7288"/>
<polygon fill="#000000" stroke="#000000" points="181.6428,-207.2862 190.9236,-212.3968 186.8555,-202.614 181.6428,-207.2862"/>
<text text-anchor="middle" x="153.8869" y="-176.2" font-family="Times,serif" font-size="14.00" fill="#000000">b</text>
</g>
<!-- 48&#45;&gt;19 -->
<g id="edge18" class="edge">
<title>48&#45;&gt;19</title>
<path fill="none" stroke="#000000" d="M222.8148,-22.5586C241.1111,-12.8906 270.6563,0 298.1242,0 298.1242,0 298.1242,0 764.2011,0 787.7538,0 812.6404,-9.9143 830.7694,-19.1896"/>
<polygon fill="#000000" stroke="#000000" points="829.1248,-22.2791 839.5909,-23.9258 832.436,-16.1117 829.1248,-22.2791"/>
<text text-anchor="middle" x="526.7484" y="-4.2" font-family="Times,serif" font-size="14.00" fill="#000000">a</text>
</g>
<!-- 48&#45;&gt;59 -->
<g id="edge19" class="edge">
<title>48&#45;&gt;59</title>
<path fill="none" stroke="#000000" d="M218.6631,-48.6407C234.2217,-66.3332 259.7183,-95.3267 277.6248,-115.6891"/>
<polygon fill="#000000" stroke="#000000" points="275.0815,-118.097 284.3135,-123.2952 280.3381,-113.4744 275.0815,-118.097"/>
<text text-anchor="middle" x="255.9308" y="-96.2" font-family="Times,serif" font-size="14.00" fill="#000000">b</text>
</g>
<!-- 28&#45;&gt;59 -->
<g id="edge8" class="edge">
<title>28&#45;&gt;59</title>
<path fill="none" stroke="#000000" d="M219.8855,-213.7006C234.881,-199.3833 258.1477,-177.1687 275.4149,-160.6824"/>
<polygon fill="#000000" stroke="#000000" points="278.0593,-162.9967 282.875,-153.5596 273.2253,-157.9338 278.0593,-162.9967"/>
<text text-anchor="middle" x="255.9308" y="-184.2" font-family="Times,serif" font-size="14.00" fill="#000000">a</text>
</g>
<!-- 28&#45;&gt;39 -->
<g id="edge9" class="edge">
<title>28&#45;&gt;39</title>
<path fill="none" stroke="#000000" d="M225.5426,-229.7686C266.2814,-233.1616 359.9436,-240.4727 438.8615,-243 441.971,-243.0996 442.7972,-243.5373 445.8615,-243 449.0983,-242.4324 452.4211,-241.6168 455.6947,-240.6606"/>
<polygon fill="#000000" stroke="#000000" points="456.8541,-243.9635 465.2318,-237.4777 454.638,-237.3235 456.8541,-243.9635"/>
<text text-anchor="middle" x="340.3177" y="-242.2" font-family="Times,serif" font-size="14.00" fill="#000000">b</text>
</g>
<!-- 19&#45;&gt;210 -->
<g id="edge5" class="edge">
<title>19&#45;&gt;210</title>
<path fill="none" stroke="#000000" d="M836.766,-38.8473C817.9313,-42.0193 789.2962,-46 764.2011,-46 442.3615,-46 442.3615,-46 442.3615,-46 365.2233,-46 282.9312,-88.7363 238.3431,-115.9541"/>
<polygon fill="#000000" stroke="#000000" points="236.3241,-113.088 229.6785,-121.3395 240.0193,-119.0332 236.3241,-113.088"/>
<text text-anchor="middle" x="526.7484" y="-50.2" font-family="Times,serif" font-size="14.00" fill="#000000">b</text>
</g>
<!-- 19&#45;&gt;410 -->
<g id="edge4" class="edge">
<title>19&#45;&gt;410</title>
<path fill="none" stroke="#000000" d="M877.1851,-41.9985C887.6431,-45.7008 900.8359,-50.3713 913.1454,-54.7291"/>
<polygon fill="#000000" stroke="#000000" points="912.1641,-58.0945 922.7589,-58.1324 914.5002,-51.4958 912.1641,-58.0945"/>
<text text-anchor="middle" x="899.6099" y="-55.2" font-family="Times,serif" font-size="14.00" fill="#000000">a</text>
</g>
<!-- 110 -->
<g id="node11" class="node">
<title>110</title>
<ellipse fill="none" stroke="#000000" cx="577.7703" cy="-254" rx="25.5439" ry="25.5439"/>
<text text-anchor="middle" x="577.7703" y="-249.8" font-family="Times,serif" font-size="14.00" fill="#000000">110</text>
</g>
<!-- 110&#45;&gt;49 -->
<g id="edge6" class="edge">
<title>110&#45;&gt;49</title>
<path fill="none" stroke="#000000" d="M558.0994,-237.647C547.5053,-228.6028 534.366,-216.9974 523.2484,-206 517.1238,-199.9416 510.7592,-193.1153 505.0031,-186.7159"/>
<polygon fill="#000000" stroke="#000000" points="507.3533,-184.0908 498.1013,-178.9283 502.1146,-188.7336 507.3533,-184.0908"/>
<text text-anchor="middle" x="526.7484" y="-215.2" font-family="Times,serif" font-size="14.00" fill="#000000">a</text>
</g>
<!-- 110&#45;&gt;29 -->
<g id="edge7" class="edge">
<title>110&#45;&gt;29</title>
<path fill="none" stroke="#000000" d="M595.7432,-235.8759C610.8376,-220.6544 632.4742,-198.8356 648.6745,-182.499"/>
<polygon fill="#000000" stroke="#000000" points="651.582,-184.5377 656.1382,-174.9725 646.6116,-179.6087 651.582,-184.5377"/>
<text text-anchor="middle" x="628.7923" y="-208.2" font-family="Times,serif" font-size="14.00" fill="#000000">b</text>
</g>
<!-- 49&#45;&gt;510 -->
<g id="edge21" class="edge">
<title>49&#45;&gt;510</title>
<path fill="none" stroke="#000000" d="M503.8881,-154.6429C509.9673,-152.4153 516.7829,-150.3185 523.2484,-149.2 529.1584,-148.1776 535.3397,-148.5343 541.3295,-149.6722"/>
<polygon fill="#000000" stroke="#000000" points="540.5886,-153.0958 551.1471,-152.219 542.3463,-146.32 540.5886,-153.0958"/>
<text text-anchor="middle" x="526.7484" y="-153.2" font-family="Times,serif" font-size="14.00" fill="#000000">b</text>
</g>
<!-- 49&#45;&gt;110 -->
<g id="edge20" class="edge">
<title>49&#45;&gt;110</title>
<path fill="none" stroke="#000000" d="M504.0928,-169.8695C512.7233,-173.5331 522.6189,-178.6516 530.2484,-185.2 542.4208,-195.6475 552.9389,-209.8942 560.9631,-222.7139"/>
<polygon fill="#000000" stroke="#000000" points="557.9652,-224.5203 566.1095,-231.2968 563.9687,-220.9205 557.9652,-224.5203"/>
<text text-anchor="middle" x="526.7484" y="-189.2" font-family="Times,serif" font-size="14.00" fill="#000000">a</text>
</g>
<!-- 29&#45;&gt;310 -->
<g id="edge11" class="edge">
<title>29&#45;&gt;310</title>
<path fill="none" stroke="#000000" d="M691.6732,-159.3342C701.2826,-159.0249 713.0474,-158.6463 724.2826,-158.2847"/>
<polygon fill="#000000" stroke="#000000" points="724.4925,-161.7799 734.3747,-157.9599 724.2672,-154.7835 724.4925,-161.7799"/>
<text text-anchor="middle" x="713.1792" y="-162.2" font-family="Times,serif" font-size="14.00" fill="#000000">b</text>
</g>
<!-- 29&#45;&gt;510 -->
<g id="edge10" class="edge">
<title>29&#45;&gt;510</title>
<path fill="none" stroke="#000000" d="M651.6625,-168.4777C645.5838,-170.7375 638.7658,-172.8649 632.2923,-174 627.1674,-174.8986 621.7669,-175.0126 616.4376,-174.634"/>
<polygon fill="#000000" stroke="#000000" points="616.7249,-171.1427 606.3681,-173.3757 615.8569,-178.0887 616.7249,-171.1427"/>
<text text-anchor="middle" x="628.7923" y="-178.2" font-family="Times,serif" font-size="14.00" fill="#000000">a</text>
</g>
<!-- 59&#45;&gt;210 -->
<g id="edge24" class="edge">
<title>59&#45;&gt;210</title>
<path fill="none" stroke="#000000" d="M277.203,-138.7756C267.6011,-138.6726 255.8841,-138.5469 244.702,-138.4269"/>
<polygon fill="#000000" stroke="#000000" points="244.6961,-134.9267 234.659,-138.3192 244.6209,-141.9263 244.6961,-134.9267"/>
<text text-anchor="middle" x="255.9308" y="-142.2" font-family="Times,serif" font-size="14.00" fill="#000000">a</text>
</g>
<!-- 59&#45;&gt;610 -->
<g id="edge25" class="edge">
<title>59&#45;&gt;610</title>
<path fill="none" stroke="#000000" d="M318.8117,-141.6632C328.5032,-142.9108 340.3871,-144.4407 351.709,-145.8982"/>
<polygon fill="#000000" stroke="#000000" points="351.5046,-149.4007 361.8697,-147.2062 352.3984,-142.458 351.5046,-149.4007"/>
<text text-anchor="middle" x="340.3177" y="-148.2" font-family="Times,serif" font-size="14.00" fill="#000000">b</text>
</g>
<!-- 39&#45;&gt;610 -->
<g id="edge14" class="edge">
<title>39&#45;&gt;610</title>
<path fill="none" stroke="#000000" d="M468.4975,-215.5636C455.7952,-204.9347 437.6818,-189.7779 422.197,-176.8206"/>
<polygon fill="#000000" stroke="#000000" points="424.2969,-174.0141 414.3816,-170.2809 419.8047,-179.3826 424.2969,-174.0141"/>
<text text-anchor="middle" x="442.3615" y="-198.2" font-family="Times,serif" font-size="14.00" fill="#000000">a</text>
</g>
<!-- 39&#45;&gt;110 -->
<g id="edge15" class="edge">
<title>39&#45;&gt;110</title>
<path fill="none" stroke="#000000" d="M503.0721,-238.3413C509.3448,-241.1776 516.4785,-244.0546 523.2484,-246 529.1978,-247.7096 535.6227,-249.0661 541.9027,-250.1387"/>
<polygon fill="#000000" stroke="#000000" points="541.8164,-253.6649 552.2252,-251.6881 542.8555,-246.7425 541.8164,-253.6649"/>
<text text-anchor="middle" x="526.7484" y="-251.2" font-family="Times,serif" font-size="14.00" fill="#000000">b</text>
</g>
<!-- 69&#45;&gt;310 -->
<g id="edge28" class="edge">
<title>69&#45;&gt;310</title>
<path fill="none" stroke="#000000" d="M836.3168,-177.4714C828.5215,-177.2812 819.6562,-176.6322 811.723,-175 808.2476,-174.285 804.6912,-173.3503 801.1652,-172.2827"/>
<polygon fill="#000000" stroke="#000000" points="801.9946,-168.869 791.4005,-168.9939 799.7602,-175.5028 801.9946,-168.869"/>
<text text-anchor="middle" x="815.223" y="-180.2" font-family="Times,serif" font-size="14.00" fill="#000000">a</text>
</g>
<!-- 69&#45;&gt;410 -->
<g id="edge29" class="edge">
<title>69&#45;&gt;410</title>
<path fill="none" stroke="#000000" d="M871.1707,-160.9167C885.2092,-144.501 907.3387,-118.6242 924.683,-98.3429"/>
<polygon fill="#000000" stroke="#000000" points="927.4676,-100.472 931.307,-90.5973 922.1476,-95.9224 927.4676,-100.472"/>
<text text-anchor="middle" x="899.6099" y="-133.2" font-family="Times,serif" font-size="14.00" fill="#000000">b</text>
</g>
</g>
</svg>
