<?xml version="1.0" encoding="UTF-8" standalone="no"?>
<!DOCTYPE svg PUBLIC "-//W3C//DTD SVG 1.1//EN"
 "http://www.w3.org/Graphics/SVG/1.1/DTD/svg11.dtd">
<!-- Generated by graphviz version 2.40.1 (20161225.0304)
 -->
<!-- Title: task2_2 Pages: 1 -->
<svg width="635pt" height="156pt"
 viewBox="0.00 0.00 635.36 155.70" xmlns="http://www.w3.org/2000/svg" xmlns:xlink="http://www.w3.org/1999/xlink">
<g id="graph0" class="graph" transform="scale(1 1) rotate(0) translate(4 151.7008)">
<title>task2_2</title>
<polygon fill="#ffffff" stroke="transparent" points="-4,4 -4,-151.7008 631.3624,-151.7008 631.3624,4 -4,4"/>
<!-- q4q6 -->
<g id="node1" class="node">
<title>q4q6</title>
<ellipse fill="none" stroke="#000000" cx="476.0966" cy="-34.3504" rx="30.2188" ry="30.2188"/>
<ellipse fill="none" stroke="#000000" cx="476.0966" cy="-34.3504" rx="34.2014" ry="34.2014"/>
<text text-anchor="middle" x="476.0966" y="-30.1504" font-family="Times,serif" font-size="14.00" fill="#000000">q4q6</text>
</g>
<!-- q4q5 -->
<g id="node9" class="node">
<title>q4q5</title>
<ellipse fill="none" stroke="#000000" cx="597.012" cy="-74.3504" rx="30.2015" ry="30.2015"/>
<text text-anchor="middle" x="597.012" y="-70.1504" font-family="Times,serif" font-size="14.00" fill="#000000">q4q5</text>
</g>
<!-- q4q6&#45;&gt;q4q5 -->
<g id="edge9" class="edge">
<title>q4q6&#45;&gt;q4q5</title>
<path fill="none" stroke="#000000" d="M508.7344,-45.689C515.2556,-47.9217 522.0627,-50.2288 528.447,-52.3504 538.0444,-55.5397 548.4231,-58.9103 558.1308,-62.0291"/>
<polygon fill="#000000" stroke="#000000" points="557.3526,-65.4548 567.9436,-65.1699 559.4866,-58.788 557.3526,-65.4548"/>
<text text-anchor="middle" x="538.5543" y="-63.5504" font-family="Times,serif" font-size="14.00" fill="#000000">a, b</text>
</g>
<g id="node2" class="node">
<title></title>
</g>
<!-- q1q5 -->
<g id="node3" class="node">
<title>q1q5</title>
<ellipse fill="none" stroke="#000000" cx="121.3504" cy="-34.3504" rx="30.2015" ry="30.2015"/>
<text text-anchor="middle" x="121.3504" y="-30.1504" font-family="Times,serif" font-size="14.00" fill="#000000">q1q5</text>
</g>
<!-- &#45;&gt;q1q5 -->
<g id="edge1" class="edge">
<title>&#45;&gt;q1q5</title>
<path fill="none" stroke="#000000" d="M54.037,-34.3504C62.4246,-34.3504 71.8578,-34.3504 80.9483,-34.3504"/>
<polygon fill="#000000" stroke="#000000" points="80.9923,-37.8505 90.9922,-34.3504 80.9922,-30.8505 80.9923,-37.8505"/>
</g>
<!-- q2q6 -->
<g id="node4" class="node">
<title>q2q6</title>
<ellipse fill="none" stroke="#000000" cx="238.2658" cy="-34.3504" rx="30.2015" ry="30.2015"/>
<text text-anchor="middle" x="238.2658" y="-30.1504" font-family="Times,serif" font-size="14.00" fill="#000000">q2q6</text>
</g>
<!-- q1q5&#45;&gt;q2q6 -->
<g id="edge2" class="edge">
<title>q1q5&#45;&gt;q2q6</title>
<path fill="none" stroke="#000000" d="M151.7633,-34.3504C165.7265,-34.3504 182.4873,-34.3504 197.5218,-34.3504"/>
<polygon fill="#000000" stroke="#000000" points="197.599,-37.8505 207.599,-34.3504 197.5989,-30.8505 197.599,-37.8505"/>
<text text-anchor="middle" x="179.8081" y="-38.5504" font-family="Times,serif" font-size="14.00" fill="#000000">a, b</text>
</g>
<!-- q3q5 -->
<g id="node8" class="node">
<title>q3q5</title>
<ellipse fill="none" stroke="#000000" cx="355.1812" cy="-34.3504" rx="30.2015" ry="30.2015"/>
<text text-anchor="middle" x="355.1812" y="-30.1504" font-family="Times,serif" font-size="14.00" fill="#000000">q3q5</text>
</g>
<!-- q2q6&#45;&gt;q3q5 -->
<g id="edge5" class="edge">
<title>q2q6&#45;&gt;q3q5</title>
<path fill="none" stroke="#000000" d="M268.6787,-34.3504C282.6419,-34.3504 299.4027,-34.3504 314.4372,-34.3504"/>
<polygon fill="#000000" stroke="#000000" points="314.5144,-37.8505 324.5144,-34.3504 314.5143,-30.8505 314.5144,-37.8505"/>
<text text-anchor="middle" x="296.7235" y="-38.5504" font-family="Times,serif" font-size="14.00" fill="#000000">a, b</text>
</g>
<!-- q1q6 -->
<g id="node5" class="node">
<title>q1q6</title>
<ellipse fill="none" stroke="#000000" cx="238.2658" cy="-117.3504" rx="30.2015" ry="30.2015"/>
<text text-anchor="middle" x="238.2658" y="-113.1504" font-family="Times,serif" font-size="14.00" fill="#000000">q1q6</text>
</g>
<!-- q2q5 -->
<g id="node6" class="node">
<title>q2q5</title>
<ellipse fill="none" stroke="#000000" cx="355.1812" cy="-117.3504" rx="30.2015" ry="30.2015"/>
<text text-anchor="middle" x="355.1812" y="-113.1504" font-family="Times,serif" font-size="14.00" fill="#000000">q2q5</text>
</g>
<!-- q1q6&#45;&gt;q2q5 -->
<g id="edge3" class="edge">
<title>q1q6&#45;&gt;q2q5</title>
<path fill="none" stroke="#000000" d="M268.6787,-117.3504C282.6419,-117.3504 299.4027,-117.3504 314.4372,-117.3504"/>
<polygon fill="#000000" stroke="#000000" points="314.5144,-120.8505 324.5144,-117.3504 314.5143,-113.8505 314.5144,-120.8505"/>
<text text-anchor="middle" x="296.7235" y="-121.5504" font-family="Times,serif" font-size="14.00" fill="#000000">a, b</text>
</g>
<!-- q3q6 -->
<g id="node7" class="node">
<title>q3q6</title>
<ellipse fill="none" stroke="#000000" cx="476.0966" cy="-117.3504" rx="30.2015" ry="30.2015"/>
<text text-anchor="middle" x="476.0966" y="-113.1504" font-family="Times,serif" font-size="14.00" fill="#000000">q3q6</text>
</g>
<!-- q2q5&#45;&gt;q3q6 -->
<g id="edge4" class="edge">
<title>q2q5&#45;&gt;q3q6</title>
<path fill="none" stroke="#000000" d="M385.6932,-117.3504C400.7295,-117.3504 419.0718,-117.3504 435.2952,-117.3504"/>
<polygon fill="#000000" stroke="#000000" points="435.5943,-120.8505 445.5943,-117.3504 435.5942,-113.8505 435.5943,-120.8505"/>
<text text-anchor="middle" x="413.6389" y="-121.5504" font-family="Times,serif" font-size="14.00" fill="#000000">a, b</text>
</g>
<!-- q3q6&#45;&gt;q4q5 -->
<g id="edge7" class="edge">
<title>q3q6&#45;&gt;q4q5</title>
<path fill="none" stroke="#000000" d="M504.7518,-107.16C520.7477,-101.4715 540.8957,-94.3065 558.2796,-88.1244"/>
<polygon fill="#000000" stroke="#000000" points="559.8942,-91.2651 568.1434,-84.6167 557.5487,-84.6697 559.8942,-91.2651"/>
<text text-anchor="middle" x="538.5543" y="-102.5504" font-family="Times,serif" font-size="14.00" fill="#000000">a, b</text>
</g>
<!-- q3q5&#45;&gt;q4q6 -->
<g id="edge6" class="edge">
<title>q3q5&#45;&gt;q4q6</title>
<path fill="none" stroke="#000000" d="M385.6932,-34.3504C399.4494,-34.3504 415.9727,-34.3504 431.1091,-34.3504"/>
<polygon fill="#000000" stroke="#000000" points="431.3155,-37.8505 441.3155,-34.3504 431.3154,-30.8505 431.3155,-37.8505"/>
<text text-anchor="middle" x="413.6389" y="-38.5504" font-family="Times,serif" font-size="14.00" fill="#000000">a, b</text>
</g>
<!-- q4q5&#45;&gt;q4q6 -->
<g id="edge8" class="edge">
<title>q4q5&#45;&gt;q4q6</title>
<path fill="none" stroke="#000000" d="M575.8307,-52.3471C567.9934,-45.6566 558.5826,-39.1313 548.6616,-35.5504 539.8711,-32.3775 530.083,-30.9425 520.6131,-30.5046"/>
<polygon fill="#000000" stroke="#000000" points="520.5651,-27.0039 510.5245,-30.3858 520.4826,-34.0035 520.5651,-27.0039"/>
<text text-anchor="middle" x="538.5543" y="-40.5504" font-family="Times,serif" font-size="14.00" fill="#000000">a, b</text>
</g>
</g>
</svg>
