<?xml version="1.0" encoding="UTF-8" standalone="no"?>
<!DOCTYPE svg PUBLIC "-//W3C//DTD SVG 1.1//EN"
 "http://www.w3.org/Graphics/SVG/1.1/DTD/svg11.dtd">
<!-- Generated by graphviz version 2.40.1 (20161225.0304)
 -->
<!-- Title: task3_1_nka Pages: 1 -->
<svg width="317pt" height="214pt"
 viewBox="0.00 0.00 317.16 214.39" xmlns="http://www.w3.org/2000/svg" xmlns:xlink="http://www.w3.org/1999/xlink">
<g id="graph0" class="graph" transform="scale(1 1) rotate(0) translate(4 210.3869)">
<title>task3_1_nka</title>
<polygon fill="#ffffff" stroke="transparent" points="-4,4 -4,-210.3869 313.1607,-210.3869 313.1607,4 -4,4"/>
<!-- q2 -->
<g id="node1" class="node">
<title>q2</title>
<ellipse fill="none" stroke="#000000" cx="200.0804" cy="-181.6935" rx="20.8568" ry="20.8568"/>
<ellipse fill="none" stroke="#000000" cx="200.0804" cy="-181.6935" rx="24.8884" ry="24.8884"/>
<text text-anchor="middle" x="200.0804" y="-177.4935" font-family="Times,serif" font-size="14.00" fill="#000000">q2</text>
</g>
<g id="node2" class="node">
<title></title>
</g>
<!-- q1 -->
<g id="node3" class="node">
<title>q1</title>
<ellipse fill="none" stroke="#000000" cx="111.6935" cy="-99.6935" rx="20.8887" ry="20.8887"/>
<text text-anchor="middle" x="111.6935" y="-95.4935" font-family="Times,serif" font-size="14.00" fill="#000000">q1</text>
</g>
<!-- &#45;&gt;q1 -->
<g id="edge1" class="edge">
<title>&#45;&gt;q1</title>
<path fill="none" stroke="#000000" d="M54.2637,-99.6935C62.7209,-99.6935 72.1012,-99.6935 80.7873,-99.6935"/>
<polygon fill="#000000" stroke="#000000" points="80.9294,-103.1936 90.9294,-99.6935 80.9293,-96.1936 80.9294,-103.1936"/>
</g>
<!-- q1&#45;&gt;q2 -->
<g id="edge2" class="edge">
<title>q1&#45;&gt;q2</title>
<path fill="none" stroke="#000000" d="M125.5897,-115.3194C132.772,-123.1595 141.81,-132.6698 150.3869,-140.6935 157.1968,-147.0641 164.842,-153.634 172.056,-159.5976"/>
<polygon fill="#000000" stroke="#000000" points="170.2866,-162.6705 180.2506,-166.2716 174.707,-157.2428 170.2866,-162.6705"/>
<text text-anchor="middle" x="153.8869" y="-149.8935" font-family="Times,serif" font-size="14.00" fill="#000000">a</text>
</g>
<!-- q3 -->
<g id="node4" class="node">
<title>q3</title>
<ellipse fill="none" stroke="#000000" cx="200.0804" cy="-118.6935" rx="20.8887" ry="20.8887"/>
<text text-anchor="middle" x="200.0804" y="-114.4935" font-family="Times,serif" font-size="14.00" fill="#000000">q3</text>
</g>
<!-- q1&#45;&gt;q3 -->
<g id="edge3" class="edge">
<title>q1&#45;&gt;q3</title>
<path fill="none" stroke="#000000" d="M130.0243,-110.116C136.2846,-113.1546 143.4581,-116.0874 150.3869,-117.6935 156.3107,-119.0665 162.7386,-119.7594 168.9442,-120.0426"/>
<polygon fill="#000000" stroke="#000000" points="169.0031,-123.5436 179.0499,-120.1801 169.0984,-116.5443 169.0031,-123.5436"/>
<text text-anchor="middle" x="153.8869" y="-123.8935" font-family="Times,serif" font-size="14.00" fill="#000000">a</text>
</g>
<!-- q4 -->
<g id="node5" class="node">
<title>q4</title>
<ellipse fill="none" stroke="#000000" cx="200.0804" cy="-59.6935" rx="20.8887" ry="20.8887"/>
<text text-anchor="middle" x="200.0804" y="-55.4935" font-family="Times,serif" font-size="14.00" fill="#000000">q4</text>
</g>
<!-- q1&#45;&gt;q4 -->
<g id="edge5" class="edge">
<title>q1&#45;&gt;q4</title>
<path fill="none" stroke="#000000" d="M128.9276,-87.8843C135.4602,-83.7353 143.0859,-79.2709 150.3869,-75.8935 156.5482,-73.0432 163.3523,-70.4753 169.8973,-68.2682"/>
<polygon fill="#000000" stroke="#000000" points="171.3696,-71.4729 179.8395,-65.1081 169.2491,-64.8018 171.3696,-71.4729"/>
<text text-anchor="middle" x="153.8869" y="-80.8935" font-family="Times,serif" font-size="14.00" fill="#000000">a</text>
</g>
<!-- q3&#45;&gt;q1 -->
<g id="edge4" class="edge">
<title>q3&#45;&gt;q1</title>
<path fill="none" stroke="#000000" d="M182.5336,-107.3672C175.0898,-103.2039 166.1259,-98.9955 157.3869,-96.8935 152.6153,-95.7457 147.487,-95.3146 142.4518,-95.3211"/>
<polygon fill="#000000" stroke="#000000" points="142.1895,-91.83 132.391,-95.8599 142.5639,-98.82 142.1895,-91.83"/>
<text text-anchor="middle" x="153.8869" y="-101.8935" font-family="Times,serif" font-size="14.00" fill="#000000">b</text>
</g>
<!-- q5 -->
<g id="node6" class="node">
<title>q5</title>
<ellipse fill="none" stroke="#000000" cx="288.4673" cy="-20.6935" rx="20.8887" ry="20.8887"/>
<text text-anchor="middle" x="288.4673" y="-16.4935" font-family="Times,serif" font-size="14.00" fill="#000000">q5</text>
</g>
<!-- q4&#45;&gt;q5 -->
<g id="edge6" class="edge">
<title>q4&#45;&gt;q5</title>
<path fill="none" stroke="#000000" d="M219.259,-51.231C231.1888,-45.9671 246.7449,-39.1031 260.0863,-33.2163"/>
<polygon fill="#000000" stroke="#000000" points="261.59,-36.3785 269.3261,-29.1394 258.7641,-29.9742 261.59,-36.3785"/>
<text text-anchor="middle" x="246.2738" y="-44.8935" font-family="Times,serif" font-size="14.00" fill="#000000">b</text>
</g>
<!-- q5&#45;&gt;q1 -->
<g id="edge7" class="edge">
<title>q5&#45;&gt;q1</title>
<path fill="none" stroke="#000000" d="M268.8605,-13.526C245.3039,-6.1763 205.2302,2.2237 175.3869,-12.8935 151.4921,-24.9973 134.3903,-50.7496 123.9639,-71.0771"/>
<polygon fill="#000000" stroke="#000000" points="120.7291,-69.7263 119.512,-80.251 127.0268,-72.7824 120.7291,-69.7263"/>
<text text-anchor="middle" x="200.0804" y="-17.8935" font-family="Times,serif" font-size="14.00" fill="#000000">a</text>
</g>
</g>
</svg>
