<?xml version="1.0" encoding="UTF-8" standalone="no"?>
<!DOCTYPE svg PUBLIC "-//W3C//DTD SVG 1.1//EN"
 "http://www.w3.org/Graphics/SVG/1.1/DTD/svg11.dtd">
<!-- Generated by graphviz version 2.40.1 (20161225.0304)
 -->
<!-- Title: task1_2_tmp_1 Pages: 1 -->
<svg width="317pt" height="92pt"
 viewBox="0.00 0.00 317.16 92.19" xmlns="http://www.w3.org/2000/svg" xmlns:xlink="http://www.w3.org/1999/xlink">
<g id="graph0" class="graph" transform="scale(1 1) rotate(0) translate(4 88.1869)">
<title>task1_2_tmp_1</title>
<polygon fill="#ffffff" stroke="transparent" points="-4,4 -4,-88.1869 313.1607,-88.1869 313.1607,4 -4,4"/>
<!-- q6 -->
<g id="node1" class="node">
<title>q6</title>
<ellipse fill="none" stroke="#000000" cx="284.4673" cy="-24.6935" rx="20.8568" ry="20.8568"/>
<ellipse fill="none" stroke="#000000" cx="284.4673" cy="-24.6935" rx="24.8884" ry="24.8884"/>
<text text-anchor="middle" x="284.4673" y="-20.4935" font-family="Times,serif" font-size="14.00" fill="#000000">q6</text>
</g>
<!-- q6&#45;&gt;q6 -->
<g id="edge6" class="edge">
<title>q6&#45;&gt;q6</title>
<path fill="none" stroke="#000000" d="M275.977,-47.9685C275.1684,-58.3813 277.9985,-67.3869 284.4673,-67.3869 288.6113,-67.3869 291.262,-63.691 292.4195,-58.2969"/>
<polygon fill="#000000" stroke="#000000" points="295.9324,-58.137 292.9575,-47.9685 288.9419,-57.7728 295.9324,-58.137"/>
<text text-anchor="middle" x="284.4673" y="-71.5869" font-family="Times,serif" font-size="14.00" fill="#000000">a, b</text>
</g>
<g id="node2" class="node">
<title></title>
</g>
<!-- q4 -->
<g id="node3" class="node">
<title>q4</title>
<ellipse fill="none" stroke="#000000" cx="111.6935" cy="-24.6935" rx="20.8887" ry="20.8887"/>
<text text-anchor="middle" x="111.6935" y="-20.4935" font-family="Times,serif" font-size="14.00" fill="#000000">q4</text>
</g>
<!-- &#45;&gt;q4 -->
<g id="edge1" class="edge">
<title>&#45;&gt;q4</title>
<path fill="none" stroke="#000000" d="M54.2637,-24.6935C62.7209,-24.6935 72.1012,-24.6935 80.7873,-24.6935"/>
<polygon fill="#000000" stroke="#000000" points="80.9294,-28.1936 90.9294,-24.6935 80.9293,-21.1936 80.9294,-28.1936"/>
</g>
<!-- q4&#45;&gt;q4 -->
<g id="edge3" class="edge">
<title>q4&#45;&gt;q4</title>
<path fill="none" stroke="#000000" d="M104.7789,-44.602C103.8222,-54.5307 106.127,-63.3869 111.6935,-63.3869 115.1725,-63.3869 117.3774,-59.9274 118.3083,-54.9089"/>
<polygon fill="#000000" stroke="#000000" points="121.8158,-54.6995 118.608,-44.602 114.8187,-54.496 121.8158,-54.6995"/>
<text text-anchor="middle" x="111.6935" y="-67.5869" font-family="Times,serif" font-size="14.00" fill="#000000">a</text>
</g>
<!-- q5 -->
<g id="node4" class="node">
<title>q5</title>
<ellipse fill="none" stroke="#000000" cx="196.0804" cy="-24.6935" rx="20.8887" ry="20.8887"/>
<text text-anchor="middle" x="196.0804" y="-20.4935" font-family="Times,serif" font-size="14.00" fill="#000000">q5</text>
</g>
<!-- q4&#45;&gt;q5 -->
<g id="edge2" class="edge">
<title>q4&#45;&gt;q5</title>
<path fill="none" stroke="#000000" d="M132.5531,-24.6935C142.2902,-24.6935 154.0843,-24.6935 164.854,-24.6935"/>
<polygon fill="#000000" stroke="#000000" points="165.1682,-28.1935 175.1682,-24.6935 165.1681,-21.1935 165.1682,-28.1935"/>
<text text-anchor="middle" x="153.8869" y="-28.8935" font-family="Times,serif" font-size="14.00" fill="#000000">b</text>
</g>
<!-- q5&#45;&gt;q6 -->
<g id="edge4" class="edge">
<title>q5&#45;&gt;q6</title>
<path fill="none" stroke="#000000" d="M217.0268,-24.6935C226.6983,-24.6935 238.4462,-24.6935 249.4097,-24.6935"/>
<polygon fill="#000000" stroke="#000000" points="249.5875,-28.1936 259.5874,-24.6935 249.5874,-21.1936 249.5875,-28.1936"/>
<text text-anchor="middle" x="238.2738" y="-28.8935" font-family="Times,serif" font-size="14.00" fill="#000000">b</text>
</g>
<!-- q5&#45;&gt;q5 -->
<g id="edge5" class="edge">
<title>q5&#45;&gt;q5</title>
<path fill="none" stroke="#000000" d="M188.4822,-44.2043C187.3133,-54.2929 189.846,-63.3869 196.0804,-63.3869 200.0743,-63.3869 202.549,-59.6547 203.5046,-54.3198"/>
<polygon fill="#000000" stroke="#000000" points="207.006,-54.263 203.6785,-44.2043 200.007,-54.1426 207.006,-54.263"/>
<text text-anchor="middle" x="196.0804" y="-67.5869" font-family="Times,serif" font-size="14.00" fill="#000000">a</text>
</g>
</g>
</svg>
