<?xml version="1.0" encoding="UTF-8" standalone="no"?>
<!DOCTYPE svg PUBLIC "-//W3C//DTD SVG 1.1//EN"
 "http://www.w3.org/Graphics/SVG/1.1/DTD/svg11.dtd">
<!-- Generated by graphviz version 2.40.1 (20161225.0304)
 -->
<!-- Title: task2_1 Pages: 1 -->
<svg width="583pt" height="296pt"
 viewBox="0.00 0.00 582.50 295.50" xmlns="http://www.w3.org/2000/svg" xmlns:xlink="http://www.w3.org/1999/xlink">
<g id="graph0" class="graph" transform="scale(1 1) rotate(0) translate(4 291.5008)">
<title>task2_1</title>
<polygon fill="#ffffff" stroke="transparent" points="-4,4 -4,-291.5008 578.504,-291.5008 578.504,4 -4,4"/>
<!-- q3q6 -->
<g id="node1" class="node">
<title>q3q6</title>
<ellipse fill="none" stroke="#000000" cx="540.1536" cy="-108.3504" rx="30.2188" ry="30.2188"/>
<ellipse fill="none" stroke="#000000" cx="540.1536" cy="-108.3504" rx="34.2014" ry="34.2014"/>
<text text-anchor="middle" x="540.1536" y="-104.1504" font-family="Times,serif" font-size="14.00" fill="#000000">q3q6</text>
</g>
<!-- q3q6&#45;&gt;q3q6 -->
<g id="edge18" class="edge">
<title>q3q6&#45;&gt;q3q6</title>
<path fill="none" stroke="#000000" d="M530.0292,-141.3246C530.0815,-152.1115 533.4563,-160.7008 540.1536,-160.7008 544.5487,-160.7008 547.5129,-157.0017 549.0462,-151.4099"/>
<polygon fill="#000000" stroke="#000000" points="552.5397,-151.6752 550.278,-141.3246 545.5914,-150.8265 552.5397,-151.6752"/>
<text text-anchor="middle" x="540.1536" y="-164.9008" font-family="Times,serif" font-size="14.00" fill="#000000">a, b</text>
</g>
<g id="node2" class="node">
<title></title>
</g>
<!-- q1q4 -->
<g id="node3" class="node">
<title>q1q4</title>
<ellipse fill="none" stroke="#000000" cx="121.3504" cy="-128.3504" rx="30.2015" ry="30.2015"/>
<text text-anchor="middle" x="121.3504" y="-124.1504" font-family="Times,serif" font-size="14.00" fill="#000000">q1q4</text>
</g>
<!-- &#45;&gt;q1q4 -->
<g id="edge1" class="edge">
<title>&#45;&gt;q1q4</title>
<path fill="none" stroke="#000000" d="M54.037,-128.3504C62.4246,-128.3504 71.8578,-128.3504 80.9483,-128.3504"/>
<polygon fill="#000000" stroke="#000000" points="80.9923,-131.8505 90.9922,-128.3504 80.9922,-124.8505 80.9923,-131.8505"/>
</g>
<!-- q2q4 -->
<g id="node4" class="node">
<title>q2q4</title>
<ellipse fill="none" stroke="#000000" cx="225.0512" cy="-168.3504" rx="30.2015" ry="30.2015"/>
<text text-anchor="middle" x="225.0512" y="-164.1504" font-family="Times,serif" font-size="14.00" fill="#000000">q2q4</text>
</g>
<!-- q1q4&#45;&gt;q2q4 -->
<g id="edge2" class="edge">
<title>q1q4&#45;&gt;q2q4</title>
<path fill="none" stroke="#000000" d="M149.6871,-139.2806C161.1383,-143.6976 174.5307,-148.8634 186.8236,-153.6051"/>
<polygon fill="#000000" stroke="#000000" points="185.7988,-156.9611 196.3884,-157.2945 188.318,-150.4301 185.7988,-156.9611"/>
<text text-anchor="middle" x="173.2008" y="-154.5504" font-family="Times,serif" font-size="14.00" fill="#000000">a</text>
</g>
<!-- q1q5 -->
<g id="node5" class="node">
<title>q1q5</title>
<ellipse fill="none" stroke="#000000" cx="225.0512" cy="-89.3504" rx="30.2015" ry="30.2015"/>
<text text-anchor="middle" x="225.0512" y="-85.1504" font-family="Times,serif" font-size="14.00" fill="#000000">q1q5</text>
</g>
<!-- q1q4&#45;&gt;q1q5 -->
<g id="edge3" class="edge">
<title>q1q4&#45;&gt;q1q5</title>
<path fill="none" stroke="#000000" d="M149.9616,-117.5902C161.4094,-113.2849 174.7628,-108.263 187.0081,-103.6577"/>
<polygon fill="#000000" stroke="#000000" points="188.4055,-106.8716 196.5334,-100.0754 185.9413,-100.3196 188.4055,-106.8716"/>
<text text-anchor="middle" x="173.2008" y="-114.5504" font-family="Times,serif" font-size="14.00" fill="#000000">b</text>
</g>
<!-- q2q5 -->
<g id="node6" class="node">
<title>q2q5</title>
<ellipse fill="none" stroke="#000000" cx="328.752" cy="-143.3504" rx="30.2015" ry="30.2015"/>
<text text-anchor="middle" x="328.752" y="-139.1504" font-family="Times,serif" font-size="14.00" fill="#000000">q2q5</text>
</g>
<!-- q2q4&#45;&gt;q2q5 -->
<g id="edge9" class="edge">
<title>q2q4&#45;&gt;q2q5</title>
<path fill="none" stroke="#000000" d="M254.7677,-161.1864C265.5071,-158.5974 277.8061,-155.6324 289.2524,-152.8729"/>
<polygon fill="#000000" stroke="#000000" points="290.13,-156.2617 299.0312,-150.5154 288.4894,-149.4566 290.13,-156.2617"/>
<text text-anchor="middle" x="276.9016" y="-161.5504" font-family="Times,serif" font-size="14.00" fill="#000000">b</text>
</g>
<!-- q3q4 -->
<g id="node9" class="node">
<title>q3q4</title>
<ellipse fill="none" stroke="#000000" cx="328.752" cy="-222.3504" rx="30.2015" ry="30.2015"/>
<text text-anchor="middle" x="328.752" y="-218.1504" font-family="Times,serif" font-size="14.00" fill="#000000">q3q4</text>
</g>
<!-- q2q4&#45;&gt;q3q4 -->
<g id="edge8" class="edge">
<title>q2q4&#45;&gt;q3q4</title>
<path fill="none" stroke="#000000" d="M252.0266,-182.3973C264.4116,-188.8465 279.278,-196.5879 292.6132,-203.5319"/>
<polygon fill="#000000" stroke="#000000" points="291.0653,-206.6719 301.5513,-208.1862 294.2984,-200.4632 291.0653,-206.6719"/>
<text text-anchor="middle" x="276.9016" y="-200.5504" font-family="Times,serif" font-size="14.00" fill="#000000">a</text>
</g>
<!-- q1q5&#45;&gt;q2q5 -->
<g id="edge4" class="edge">
<title>q1q5&#45;&gt;q2q5</title>
<path fill="none" stroke="#000000" d="M252.0266,-103.3973C264.4116,-109.8465 279.278,-117.5879 292.6132,-124.5319"/>
<polygon fill="#000000" stroke="#000000" points="291.0653,-127.6719 301.5513,-129.1862 294.2984,-121.4632 291.0653,-127.6719"/>
<text text-anchor="middle" x="276.9016" y="-122.5504" font-family="Times,serif" font-size="14.00" fill="#000000">a</text>
</g>
<!-- q1q6 -->
<g id="node7" class="node">
<title>q1q6</title>
<ellipse fill="none" stroke="#000000" cx="328.752" cy="-30.3504" rx="30.2015" ry="30.2015"/>
<text text-anchor="middle" x="328.752" y="-26.1504" font-family="Times,serif" font-size="14.00" fill="#000000">q1q6</text>
</g>
<!-- q1q5&#45;&gt;q1q6 -->
<g id="edge5" class="edge">
<title>q1q5&#45;&gt;q1q6</title>
<path fill="none" stroke="#000000" d="M251.4876,-74.3095C264.2861,-67.0279 279.8292,-58.1847 293.6094,-50.3446"/>
<polygon fill="#000000" stroke="#000000" points="295.4029,-53.351 302.3639,-45.3638 291.9413,-47.2668 295.4029,-53.351"/>
<text text-anchor="middle" x="276.9016" y="-66.5504" font-family="Times,serif" font-size="14.00" fill="#000000">b</text>
</g>
<!-- q2q6 -->
<g id="node8" class="node">
<title>q2q6</title>
<ellipse fill="none" stroke="#000000" cx="432.4528" cy="-52.3504" rx="30.2015" ry="30.2015"/>
<text text-anchor="middle" x="432.4528" y="-48.1504" font-family="Times,serif" font-size="14.00" fill="#000000">q2q6</text>
</g>
<!-- q2q5&#45;&gt;q2q6 -->
<g id="edge11" class="edge">
<title>q2q5&#45;&gt;q2q6</title>
<path fill="none" stroke="#000000" d="M351.7666,-123.1545C366.5349,-110.195 385.8795,-93.2196 401.9251,-79.1392"/>
<polygon fill="#000000" stroke="#000000" points="404.2947,-81.7163 409.5025,-72.4898 399.6776,-76.4549 404.2947,-81.7163"/>
<text text-anchor="middle" x="380.6024" y="-105.5504" font-family="Times,serif" font-size="14.00" fill="#000000">b</text>
</g>
<!-- q3q5 -->
<g id="node10" class="node">
<title>q3q5</title>
<ellipse fill="none" stroke="#000000" cx="432.4528" cy="-165.3504" rx="30.2015" ry="30.2015"/>
<text text-anchor="middle" x="432.4528" y="-161.1504" font-family="Times,serif" font-size="14.00" fill="#000000">q3q5</text>
</g>
<!-- q2q5&#45;&gt;q3q5 -->
<g id="edge10" class="edge">
<title>q2q5&#45;&gt;q3q5</title>
<path fill="none" stroke="#000000" d="M358.4685,-149.6547C369.0994,-151.9101 381.2585,-154.4896 392.6061,-156.897"/>
<polygon fill="#000000" stroke="#000000" points="392.2233,-160.3936 402.732,-159.0452 393.676,-153.546 392.2233,-160.3936"/>
<text text-anchor="middle" x="380.6024" y="-159.5504" font-family="Times,serif" font-size="14.00" fill="#000000">a</text>
</g>
<!-- q1q6&#45;&gt;q1q6 -->
<g id="edge7" class="edge">
<title>q1q6&#45;&gt;q1q6</title>
<path fill="none" stroke="#000000" d="M319.3861,-59.6193C319.1847,-70.1309 322.3067,-78.7008 328.752,-78.7008 332.881,-78.7008 335.6461,-75.1837 337.0473,-69.8922"/>
<polygon fill="#000000" stroke="#000000" points="340.5624,-69.9283 338.1178,-59.6193 333.6001,-69.2027 340.5624,-69.9283"/>
<text text-anchor="middle" x="328.752" y="-82.9008" font-family="Times,serif" font-size="14.00" fill="#000000">b</text>
</g>
<!-- q1q6&#45;&gt;q2q6 -->
<g id="edge6" class="edge">
<title>q1q6&#45;&gt;q2q6</title>
<path fill="none" stroke="#000000" d="M358.4685,-36.6547C369.0994,-38.9101 381.2585,-41.4896 392.6061,-43.897"/>
<polygon fill="#000000" stroke="#000000" points="392.2233,-47.3936 402.732,-46.0452 393.676,-40.546 392.2233,-47.3936"/>
<text text-anchor="middle" x="380.6024" y="-46.5504" font-family="Times,serif" font-size="14.00" fill="#000000">a</text>
</g>
<!-- q2q6&#45;&gt;q3q6 -->
<g id="edge12" class="edge">
<title>q2q6&#45;&gt;q3q6</title>
<path fill="none" stroke="#000000" d="M459.6302,-66.4816C471.9843,-72.9051 486.844,-80.6316 500.4167,-87.6888"/>
<polygon fill="#000000" stroke="#000000" points="499.074,-90.9355 509.561,-92.4435 502.3033,-84.7249 499.074,-90.9355"/>
<text text-anchor="middle" x="484.3032" y="-84.5504" font-family="Times,serif" font-size="14.00" fill="#000000">a</text>
</g>
<!-- q2q6&#45;&gt;q2q6 -->
<g id="edge13" class="edge">
<title>q2q6&#45;&gt;q2q6</title>
<path fill="none" stroke="#000000" d="M423.0869,-81.6193C422.8855,-92.1309 426.0075,-100.7008 432.4528,-100.7008 436.5818,-100.7008 439.3469,-97.1837 440.7481,-91.8922"/>
<polygon fill="#000000" stroke="#000000" points="444.2632,-91.9283 441.8186,-81.6193 437.3009,-91.2027 444.2632,-91.9283"/>
<text text-anchor="middle" x="432.4528" y="-104.9008" font-family="Times,serif" font-size="14.00" fill="#000000">b</text>
</g>
<!-- q3q4&#45;&gt;q3q4 -->
<g id="edge14" class="edge">
<title>q3q4&#45;&gt;q3q4</title>
<path fill="none" stroke="#000000" d="M319.3861,-251.6193C319.1847,-262.1309 322.3067,-270.7008 328.752,-270.7008 332.881,-270.7008 335.6461,-267.1837 337.0473,-261.8922"/>
<polygon fill="#000000" stroke="#000000" points="340.5624,-261.9283 338.1178,-251.6193 333.6001,-261.2027 340.5624,-261.9283"/>
<text text-anchor="middle" x="328.752" y="-274.9008" font-family="Times,serif" font-size="14.00" fill="#000000">a</text>
</g>
<!-- q3q4&#45;&gt;q3q5 -->
<g id="edge15" class="edge">
<title>q3q4&#45;&gt;q3q5</title>
<path fill="none" stroke="#000000" d="M355.4575,-207.6715C368.0374,-200.7568 383.2228,-192.4101 396.7715,-184.9629"/>
<polygon fill="#000000" stroke="#000000" points="398.7602,-187.8637 405.8377,-179.9796 395.3884,-181.7293 398.7602,-187.8637"/>
<text text-anchor="middle" x="380.6024" y="-199.5504" font-family="Times,serif" font-size="14.00" fill="#000000">b</text>
</g>
<!-- q3q5&#45;&gt;q3q6 -->
<g id="edge17" class="edge">
<title>q3q5&#45;&gt;q3q6</title>
<path fill="none" stroke="#000000" d="M459.3524,-151.1139C471.7044,-144.5767 486.6053,-136.6905 500.2293,-129.4801"/>
<polygon fill="#000000" stroke="#000000" points="502.2089,-132.3924 509.4102,-124.6211 498.9345,-126.2054 502.2089,-132.3924"/>
<text text-anchor="middle" x="484.3032" y="-143.5504" font-family="Times,serif" font-size="14.00" fill="#000000">b</text>
</g>
<!-- q3q5&#45;&gt;q3q5 -->
<g id="edge16" class="edge">
<title>q3q5&#45;&gt;q3q5</title>
<path fill="none" stroke="#000000" d="M423.0869,-194.6193C422.8855,-205.1309 426.0075,-213.7008 432.4528,-213.7008 436.5818,-213.7008 439.3469,-210.1837 440.7481,-204.8922"/>
<polygon fill="#000000" stroke="#000000" points="444.2632,-204.9283 441.8186,-194.6193 437.3009,-204.2027 444.2632,-204.9283"/>
<text text-anchor="middle" x="432.4528" y="-217.9008" font-family="Times,serif" font-size="14.00" fill="#000000">a</text>
</g>
</g>
</svg>
