<?xml version="1.0" encoding="UTF-8" standalone="no"?>
<!DOCTYPE svg PUBLIC "-//W3C//DTD SVG 1.1//EN"
 "http://www.w3.org/Graphics/SVG/1.1/DTD/svg11.dtd">
<!-- Generated by graphviz version 2.40.1 (20161225.0304)
 -->
<!-- Title: task2_3 Pages: 1 -->
<svg width="684pt" height="221pt"
 viewBox="0.00 0.00 683.85 220.80" xmlns="http://www.w3.org/2000/svg" xmlns:xlink="http://www.w3.org/1999/xlink">
<g id="graph0" class="graph" transform="scale(1 1) rotate(0) translate(4 216.8)">
<title>task2_3</title>
<polygon fill="#ffffff" stroke="transparent" points="-4,4 -4,-216.8 679.8486,-216.8 679.8486,4 -4,4"/>
<!-- q1q3 -->
<g id="node1" class="node">
<title>q1q3</title>
<ellipse fill="none" stroke="#000000" cx="125.3504" cy="-134" rx="30.2188" ry="30.2188"/>
<ellipse fill="none" stroke="#000000" cx="125.3504" cy="-134" rx="34.2014" ry="34.2014"/>
<text text-anchor="middle" x="125.3504" y="-129.8" font-family="Times,serif" font-size="14.00" fill="#000000">q1q3</text>
</g>
<!-- q2q3 -->
<g id="node3" class="node">
<title>q2q3</title>
<ellipse fill="none" stroke="#000000" cx="232.2658" cy="-78" rx="30.2015" ry="30.2015"/>
<text text-anchor="middle" x="232.2658" y="-73.8" font-family="Times,serif" font-size="14.00" fill="#000000">q2q3</text>
</g>
<!-- q1q3&#45;&gt;q2q3 -->
<g id="edge2" class="edge">
<title>q1q3&#45;&gt;q2q3</title>
<path fill="none" stroke="#000000" d="M155.9881,-117.9526C168.5008,-111.3987 183.0671,-103.7692 196.0974,-96.9442"/>
<polygon fill="#000000" stroke="#000000" points="198.0283,-99.884 205.2628,-92.1436 194.7804,-93.6831 198.0283,-99.884"/>
<text text-anchor="middle" x="180.8081" y="-110.2" font-family="Times,serif" font-size="14.00" fill="#000000">a</text>
</g>
<!-- q1q4 -->
<g id="node4" class="node">
<title>q1q4</title>
<ellipse fill="none" stroke="#000000" cx="438.882" cy="-118" rx="30.2015" ry="30.2015"/>
<text text-anchor="middle" x="438.882" y="-113.8" font-family="Times,serif" font-size="14.00" fill="#000000">q1q4</text>
</g>
<!-- q1q3&#45;&gt;q1q4 -->
<g id="edge3" class="edge">
<title>q1q3&#45;&gt;q1q4</title>
<path fill="none" stroke="#000000" d="M159.685,-132.4594C210.2432,-130.1585 307.6906,-125.6004 390.5316,-121 393.0665,-120.8592 395.676,-120.7099 398.3071,-120.5561"/>
<polygon fill="#000000" stroke="#000000" points="398.6779,-124.0403 408.4507,-119.9486 398.2593,-117.0528 398.6779,-124.0403"/>
<text text-anchor="middle" x="284.1162" y="-131.2" font-family="Times,serif" font-size="14.00" fill="#000000">b</text>
</g>
<g id="node2" class="node">
<title></title>
</g>
<!-- &#45;&gt;q1q3 -->
<g id="edge1" class="edge">
<title>&#45;&gt;q1q3</title>
<path fill="none" stroke="#000000" d="M54.135,-134C62.3972,-134 71.7059,-134 80.8016,-134"/>
<polygon fill="#000000" stroke="#000000" points="80.9134,-137.5001 90.9133,-134 80.9133,-130.5001 80.9134,-137.5001"/>
</g>
<!-- q2q3&#45;&gt;q1q3 -->
<g id="edge8" class="edge">
<title>q2q3&#45;&gt;q1q3</title>
<path fill="none" stroke="#000000" d="M201.8659,-77.9823C193.726,-78.8936 185.1303,-80.7314 177.7008,-84.2 169.2702,-88.136 161.3302,-93.9716 154.3043,-100.2758"/>
<polygon fill="#000000" stroke="#000000" points="151.8482,-97.7819 147.0593,-107.2327 156.6966,-102.8311 151.8482,-97.7819"/>
<text text-anchor="middle" x="180.8081" y="-89.2" font-family="Times,serif" font-size="14.00" fill="#000000">a</text>
</g>
<!-- q2q4 -->
<g id="node5" class="node">
<title>q2q4</title>
<ellipse fill="none" stroke="#000000" cx="335.9666" cy="-78" rx="30.2015" ry="30.2015"/>
<text text-anchor="middle" x="335.9666" y="-73.8" font-family="Times,serif" font-size="14.00" fill="#000000">q2q4</text>
</g>
<!-- q2q3&#45;&gt;q2q4 -->
<g id="edge9" class="edge">
<title>q2q3&#45;&gt;q2q4</title>
<path fill="none" stroke="#000000" d="M262.8186,-78C272.9602,-78 284.4175,-78 295.2034,-78"/>
<polygon fill="#000000" stroke="#000000" points="295.2739,-81.5001 305.2738,-78 295.2738,-74.5001 295.2739,-81.5001"/>
<text text-anchor="middle" x="284.1162" y="-82.2" font-family="Times,serif" font-size="14.00" fill="#000000">b</text>
</g>
<!-- q1q4&#45;&gt;q2q4 -->
<g id="edge4" class="edge">
<title>q1q4&#45;&gt;q2q4</title>
<path fill="none" stroke="#000000" d="M417.6895,-96.0276C409.8513,-89.3396 400.4428,-82.808 390.5316,-79.2 386.1562,-77.6072 381.45,-76.5817 376.7013,-75.9644"/>
<polygon fill="#000000" stroke="#000000" points="376.5791,-72.4461 366.3493,-75.2032 376.0657,-79.4272 376.5791,-72.4461"/>
<text text-anchor="middle" x="387.4243" y="-84.2" font-family="Times,serif" font-size="14.00" fill="#000000">a</text>
</g>
<!-- q1q5 -->
<g id="node6" class="node">
<title>q1q5</title>
<ellipse fill="none" stroke="#000000" cx="542.5828" cy="-118" rx="30.2015" ry="30.2015"/>
<text text-anchor="middle" x="542.5828" y="-113.8" font-family="Times,serif" font-size="14.00" fill="#000000">q1q5</text>
</g>
<!-- q1q4&#45;&gt;q1q5 -->
<g id="edge5" class="edge">
<title>q1q4&#45;&gt;q1q5</title>
<path fill="none" stroke="#000000" d="M469.4348,-118C479.5764,-118 491.0337,-118 501.8196,-118"/>
<polygon fill="#000000" stroke="#000000" points="501.8901,-121.5001 511.89,-118 501.89,-114.5001 501.8901,-121.5001"/>
<text text-anchor="middle" x="490.7324" y="-122.2" font-family="Times,serif" font-size="14.00" fill="#000000">b</text>
</g>
<!-- q2q4&#45;&gt;q1q4 -->
<g id="edge10" class="edge">
<title>q2q4&#45;&gt;q1q4</title>
<path fill="none" stroke="#000000" d="M364.3611,-89.0361C375.7222,-93.4518 388.9745,-98.6025 401.127,-103.3258"/>
<polygon fill="#000000" stroke="#000000" points="399.9914,-106.6395 410.5801,-107 402.5273,-100.115 399.9914,-106.6395"/>
<text text-anchor="middle" x="387.4243" y="-104.2" font-family="Times,serif" font-size="14.00" fill="#000000">a</text>
</g>
<!-- q2q5 -->
<g id="node7" class="node">
<title>q2q5</title>
<ellipse fill="none" stroke="#000000" cx="645.4982" cy="-61" rx="30.2015" ry="30.2015"/>
<text text-anchor="middle" x="645.4982" y="-56.8" font-family="Times,serif" font-size="14.00" fill="#000000">q2q5</text>
</g>
<!-- q2q4&#45;&gt;q2q5 -->
<g id="edge11" class="edge">
<title>q2q4&#45;&gt;q2q5</title>
<path fill="none" stroke="#000000" d="M366.39,-75.33C372.3324,-74.8517 378.5179,-74.3841 384.317,-74 462.2981,-68.835 553.5007,-64.7381 604.8843,-62.6083"/>
<polygon fill="#000000" stroke="#000000" points="605.072,-66.1037 614.92,-62.1964 604.7848,-59.1095 605.072,-66.1037"/>
<text text-anchor="middle" x="490.7324" y="-72.2" font-family="Times,serif" font-size="14.00" fill="#000000">b</text>
</g>
<!-- q1q5&#45;&gt;q1q3 -->
<g id="edge7" class="edge">
<title>q1q5&#45;&gt;q1q3</title>
<path fill="none" stroke="#000000" d="M524.6281,-143.109C506.0297,-165.9109 474.7014,-196 438.882,-196 232.2658,-196 232.2658,-196 232.2658,-196 204.5437,-196 177.5714,-180.2082 157.653,-164.5644"/>
<polygon fill="#000000" stroke="#000000" points="159.7881,-161.7888 149.8383,-158.1484 155.3462,-167.199 159.7881,-161.7888"/>
<text text-anchor="middle" x="335.9666" y="-200.2" font-family="Times,serif" font-size="14.00" fill="#000000">b</text>
</g>
<!-- q1q5&#45;&gt;q2q5 -->
<g id="edge6" class="edge">
<title>q1q5&#45;&gt;q2q5</title>
<path fill="none" stroke="#000000" d="M565.0037,-97.2719C572.794,-90.8379 581.8613,-84.1453 590.9332,-79.2 595.8104,-76.5413 601.1443,-74.1787 606.5061,-72.1091"/>
<polygon fill="#000000" stroke="#000000" points="607.8455,-75.3476 616.095,-68.6995 605.5003,-68.7521 607.8455,-75.3476"/>
<text text-anchor="middle" x="594.0405" y="-84.2" font-family="Times,serif" font-size="14.00" fill="#000000">a</text>
</g>
<!-- q2q5&#45;&gt;q2q3 -->
<g id="edge13" class="edge">
<title>q2q5&#45;&gt;q2q3</title>
<path fill="none" stroke="#000000" d="M623.9744,-38.9776C604.5154,-21.5049 574.1532,0 542.5828,0 335.9666,0 335.9666,0 335.9666,0 304.065,0 275.7257,-23.867 256.7691,-45.1965"/>
<polygon fill="#000000" stroke="#000000" points="254.0364,-43.0072 250.2204,-52.891 259.3671,-47.5441 254.0364,-43.0072"/>
<text text-anchor="middle" x="438.882" y="-4.2" font-family="Times,serif" font-size="14.00" fill="#000000">b</text>
</g>
<!-- q2q5&#45;&gt;q1q5 -->
<g id="edge12" class="edge">
<title>q2q5&#45;&gt;q1q5</title>
<path fill="none" stroke="#000000" d="M621.6661,-80.0102C614.083,-85.571 605.4918,-91.3883 597.1478,-96 591.9363,-98.8804 586.2688,-101.5898 580.6231,-104.0567"/>
<polygon fill="#000000" stroke="#000000" points="579.1148,-100.8933 571.227,-107.9668 581.8042,-107.3561 579.1148,-100.8933"/>
<text text-anchor="middle" x="594.0405" y="-103.2" font-family="Times,serif" font-size="14.00" fill="#000000">a</text>
</g>
</g>
</svg>
