<?xml version="1.0" encoding="UTF-8" standalone="no"?>
<!DOCTYPE svg PUBLIC "-//W3C//DTD SVG 1.1//EN"
 "http://www.w3.org/Graphics/SVG/1.1/DTD/svg11.dtd">
<!-- Generated by graphviz version 2.40.1 (20161225.0304)
 -->
<!-- Title: task3_2_dka Pages: 1 -->
<svg width="582pt" height="129pt"
 viewBox="0.00 0.00 581.72 129.01" xmlns="http://www.w3.org/2000/svg" xmlns:xlink="http://www.w3.org/1999/xlink">
<g id="graph0" class="graph" transform="scale(1 1) rotate(0) translate(4 125.0147)">
<title>task3_2_dka</title>
<polygon fill="#ffffff" stroke="transparent" points="-4,4 -4,-125.0147 577.7186,-125.0147 577.7186,4 -4,4"/>
<!-- q2q6q8 -->
<g id="node1" class="node">
<title>q2q6q8</title>
<ellipse fill="none" stroke="#000000" cx="218.6088" cy="-44.0073" rx="40.014" ry="40.014"/>
<ellipse fill="none" stroke="#000000" cx="218.6088" cy="-44.0073" rx="44.0147" ry="44.0147"/>
<text text-anchor="middle" x="218.6088" y="-39.8073" font-family="Times,serif" font-size="14.00" fill="#000000">q2q6q8</text>
</g>
<!-- q3q5q7 -->
<g id="node4" class="node">
<title>q3q5q7</title>
<ellipse fill="none" stroke="#000000" cx="345.6235" cy="-81.0073" rx="40.0147" ry="40.0147"/>
<text text-anchor="middle" x="345.6235" y="-76.8073" font-family="Times,serif" font-size="14.00" fill="#000000">q3q5q7</text>
</g>
<!-- q2q6q8&#45;&gt;q3q5q7 -->
<g id="edge3" class="edge">
<title>q2q6q8&#45;&gt;q3q5q7</title>
<path fill="none" stroke="#000000" d="M260.9029,-56.3278C272.517,-59.7111 285.2005,-63.4058 297.1336,-66.882"/>
<polygon fill="#000000" stroke="#000000" points="296.3611,-70.3024 306.9409,-69.7389 298.3189,-63.5817 296.3611,-70.3024"/>
<text text-anchor="middle" x="284.1162" y="-68.2073" font-family="Times,serif" font-size="14.00" fill="#000000">a</text>
</g>
<g id="node2" class="node">
<title></title>
</g>
<!-- q1 -->
<g id="node3" class="node">
<title>q1</title>
<ellipse fill="none" stroke="#000000" cx="111.6935" cy="-44.0073" rx="20.8887" ry="20.8887"/>
<text text-anchor="middle" x="111.6935" y="-39.8073" font-family="Times,serif" font-size="14.00" fill="#000000">q1</text>
</g>
<!-- &#45;&gt;q1 -->
<g id="edge1" class="edge">
<title>&#45;&gt;q1</title>
<path fill="none" stroke="#000000" d="M54.2637,-44.0073C62.7209,-44.0073 72.1012,-44.0073 80.7873,-44.0073"/>
<polygon fill="#000000" stroke="#000000" points="80.9294,-47.5074 90.9294,-44.0073 80.9293,-40.5074 80.9294,-47.5074"/>
</g>
<!-- q1&#45;&gt;q2q6q8 -->
<g id="edge2" class="edge">
<title>q1&#45;&gt;q2q6q8</title>
<path fill="none" stroke="#000000" d="M132.5616,-44.0073C141.6809,-44.0073 152.8463,-44.0073 164.0751,-44.0073"/>
<polygon fill="#000000" stroke="#000000" points="164.3481,-47.5074 174.3481,-44.0073 164.348,-40.5074 164.3481,-47.5074"/>
<text text-anchor="middle" x="153.4942" y="-48.2073" font-family="Times,serif" font-size="14.00" fill="#000000">a</text>
</g>
<!-- q3q5q7&#45;&gt;q2q6q8 -->
<g id="edge4" class="edge">
<title>q3q5q7&#45;&gt;q2q6q8</title>
<path fill="none" stroke="#000000" d="M314.5278,-55.3994C306.2622,-49.9897 297.0068,-45.0584 287.6162,-42.2073 282.918,-40.7809 277.9563,-39.8572 272.9356,-39.3117"/>
<polygon fill="#000000" stroke="#000000" points="272.807,-35.7975 262.6128,-38.6835 272.3818,-42.7846 272.807,-35.7975"/>
<text text-anchor="middle" x="284.1162" y="-47.2073" font-family="Times,serif" font-size="14.00" fill="#000000">b</text>
</g>
<!-- q4 -->
<g id="node5" class="node">
<title>q4</title>
<ellipse fill="none" stroke="#000000" cx="449.3243" cy="-81.0073" rx="20.8887" ry="20.8887"/>
<text text-anchor="middle" x="449.3243" y="-76.8073" font-family="Times,serif" font-size="14.00" fill="#000000">q4</text>
</g>
<!-- q3q5q7&#45;&gt;q4 -->
<g id="edge5" class="edge">
<title>q3q5q7&#45;&gt;q4</title>
<path fill="none" stroke="#000000" d="M385.717,-81.0073C396.546,-81.0073 408.0973,-81.0073 418.3435,-81.0073"/>
<polygon fill="#000000" stroke="#000000" points="418.4637,-84.5074 428.4637,-81.0073 418.4636,-77.5074 418.4637,-84.5074"/>
<text text-anchor="middle" x="407.1309" y="-85.2073" font-family="Times,serif" font-size="14.00" fill="#000000">a</text>
</g>
<!-- q3q5 -->
<g id="node6" class="node">
<title>q3q5</title>
<ellipse fill="none" stroke="#000000" cx="543.3682" cy="-44.0073" rx="30.2015" ry="30.2015"/>
<text text-anchor="middle" x="543.3682" y="-39.8073" font-family="Times,serif" font-size="14.00" fill="#000000">q3q5</text>
</g>
<!-- q4&#45;&gt;q3q5 -->
<g id="edge6" class="edge">
<title>q4&#45;&gt;q3q5</title>
<path fill="none" stroke="#000000" d="M468.8103,-73.3409C479.4427,-69.1578 492.9752,-63.8336 505.5849,-58.8725"/>
<polygon fill="#000000" stroke="#000000" points="506.9602,-62.0927 514.9845,-55.1744 504.3974,-55.5787 506.9602,-62.0927"/>
<text text-anchor="middle" x="491.5178" y="-69.2073" font-family="Times,serif" font-size="14.00" fill="#000000">b</text>
</g>
<!-- q3q5&#45;&gt;q2q6q8 -->
<g id="edge8" class="edge">
<title>q3q5&#45;&gt;q2q6q8</title>
<path fill="none" stroke="#000000" d="M513.2257,-39.9425C507.2026,-39.2218 500.9153,-38.5344 495.0178,-38.0073 411.1314,-30.5107 389.6392,-26.2404 305.6162,-32.0073 294.7843,-32.7508 283.247,-34.009 272.2347,-35.4381"/>
<polygon fill="#000000" stroke="#000000" points="271.7412,-31.9729 262.3042,-36.7887 272.6846,-38.909 271.7412,-31.9729"/>
<text text-anchor="middle" x="407.1309" y="-35.2073" font-family="Times,serif" font-size="14.00" fill="#000000">b</text>
</g>
<!-- q3q5&#45;&gt;q4 -->
<g id="edge7" class="edge">
<title>q3q5&#45;&gt;q4</title>
<path fill="none" stroke="#000000" d="M513.2617,-39.3035C504.838,-39.114 495.85,-40.0166 488.0178,-43.2073 480.8427,-46.1304 474.2736,-51.0952 468.6652,-56.4821"/>
<polygon fill="#000000" stroke="#000000" points="465.9526,-54.2575 461.6461,-63.9376 471.0492,-59.0559 465.9526,-54.2575"/>
<text text-anchor="middle" x="491.5178" y="-48.2073" font-family="Times,serif" font-size="14.00" fill="#000000">a</text>
</g>
</g>
</svg>
