<?xml version="1.0" encoding="UTF-8" standalone="no"?>
<!DOCTYPE svg PUBLIC "-//W3C//DTD SVG 1.1//EN"
 "http://www.w3.org/Graphics/SVG/1.1/DTD/svg11.dtd">
<!-- Generated by graphviz version 2.40.1 (20161225.0304)
 -->
<!-- Title: task3_2_nka Pages: 1 -->
<svg width="512pt" height="237pt"
 viewBox="0.00 0.00 511.93 237.49" xmlns="http://www.w3.org/2000/svg" xmlns:xlink="http://www.w3.org/1999/xlink">
<g id="graph0" class="graph" transform="scale(1 1) rotate(0) translate(4 233.4935)">
<title>task3_2_nka</title>
<polygon fill="#ffffff" stroke="transparent" points="-4,4 -4,-233.4935 507.9261,-233.4935 507.9261,4 -4,4"/>
<!-- q8 -->
<g id="node1" class="node">
<title>q8</title>
<ellipse fill="none" stroke="#000000" cx="27" cy="-45.6935" rx="20.8568" ry="20.8568"/>
<ellipse fill="none" stroke="#000000" cx="27" cy="-45.6935" rx="24.8884" ry="24.8884"/>
<text text-anchor="middle" x="27" y="-41.4935" font-family="Times,serif" font-size="14.00" fill="#000000">q8</text>
</g>
<!-- q6 -->
<g id="node8" class="node">
<title>q6</title>
<ellipse fill="none" stroke="#000000" cx="132.4747" cy="-81.6935" rx="20.8887" ry="20.8887"/>
<text text-anchor="middle" x="132.4747" y="-77.4935" font-family="Times,serif" font-size="14.00" fill="#000000">q6</text>
</g>
<!-- q8&#45;&gt;q6 -->
<g id="edge13" class="edge">
<title>q8&#45;&gt;q6</title>
<path fill="none" stroke="#000000" d="M50.2033,-55.4438C57.1627,-58.2408 64.8478,-61.2044 72,-63.6935 81.9052,-67.1406 92.8601,-70.5269 102.694,-73.4159"/>
<polygon fill="#000000" stroke="#000000" points="101.867,-76.82 112.4453,-76.2281 103.8068,-70.0941 101.867,-76.82"/>
<text text-anchor="middle" x="82.8906" y="-73.8935" font-family="Times,serif" font-size="14.00" fill="#000000">lmb</text>
</g>
<g id="node2" class="node">
<title></title>
</g>
<!-- q1 -->
<g id="node3" class="node">
<title>q1</title>
<ellipse fill="none" stroke="#000000" cx="132.4747" cy="-190.6935" rx="20.8887" ry="20.8887"/>
<text text-anchor="middle" x="132.4747" y="-186.4935" font-family="Times,serif" font-size="14.00" fill="#000000">q1</text>
</g>
<!-- &#45;&gt;q1 -->
<g id="edge1" class="edge">
<title>&#45;&gt;q1</title>
<path fill="none" stroke="#000000" d="M54.1623,-190.6935C68.6026,-190.6935 86.4182,-190.6935 101.4069,-190.6935"/>
<polygon fill="#000000" stroke="#000000" points="101.7327,-194.1935 111.7326,-190.6935 101.7326,-187.1935 101.7327,-194.1935"/>
</g>
<!-- q2 -->
<g id="node4" class="node">
<title>q2</title>
<ellipse fill="none" stroke="#000000" cx="231.6428" cy="-153.6935" rx="20.8887" ry="20.8887"/>
<text text-anchor="middle" x="231.6428" y="-149.4935" font-family="Times,serif" font-size="14.00" fill="#000000">q2</text>
</g>
<!-- q1&#45;&gt;q2 -->
<g id="edge2" class="edge">
<title>q1&#45;&gt;q2</title>
<path fill="none" stroke="#000000" d="M152.1224,-183.6633C163.9708,-179.3946 179.3532,-173.8012 192.9493,-168.6935 196.0518,-167.5279 199.2886,-166.2969 202.5113,-165.0617"/>
<polygon fill="#000000" stroke="#000000" points="203.9196,-168.2698 211.9889,-161.4041 201.3993,-161.7393 203.9196,-168.2698"/>
<text text-anchor="middle" x="182.0587" y="-179.8935" font-family="Times,serif" font-size="14.00" fill="#000000">a</text>
</g>
<!-- q3 -->
<g id="node5" class="node">
<title>q3</title>
<ellipse fill="none" stroke="#000000" cx="315.2443" cy="-169.6935" rx="20.8887" ry="20.8887"/>
<text text-anchor="middle" x="315.2443" y="-165.4935" font-family="Times,serif" font-size="14.00" fill="#000000">q3</text>
</g>
<!-- q2&#45;&gt;q3 -->
<g id="edge3" class="edge">
<title>q2&#45;&gt;q3</title>
<path fill="none" stroke="#000000" d="M252.3083,-157.6485C262.1285,-159.5279 274.0607,-161.8116 284.8841,-163.883"/>
<polygon fill="#000000" stroke="#000000" points="284.3368,-167.3417 294.8164,-165.7839 285.6526,-160.4665 284.3368,-167.3417"/>
<text text-anchor="middle" x="273.4435" y="-165.8935" font-family="Times,serif" font-size="14.00" fill="#000000">a</text>
</g>
<!-- q2&#45;&gt;q6 -->
<g id="edge8" class="edge">
<title>q2&#45;&gt;q6</title>
<path fill="none" stroke="#000000" d="M218.8695,-137.2754C211.8405,-128.9653 202.6004,-119.1327 192.9493,-111.8935 183.3179,-104.669 171.6936,-98.3847 161.2206,-93.4474"/>
<polygon fill="#000000" stroke="#000000" points="162.5718,-90.2174 152.0164,-89.3034 159.698,-96.6003 162.5718,-90.2174"/>
<text text-anchor="middle" x="182.0587" y="-115.8935" font-family="Times,serif" font-size="14.00" fill="#000000">lmb</text>
</g>
<!-- q4 -->
<g id="node6" class="node">
<title>q4</title>
<ellipse fill="none" stroke="#000000" cx="398.8458" cy="-178.6935" rx="20.8887" ry="20.8887"/>
<text text-anchor="middle" x="398.8458" y="-174.4935" font-family="Times,serif" font-size="14.00" fill="#000000">q4</text>
</g>
<!-- q3&#45;&gt;q4 -->
<g id="edge4" class="edge">
<title>q3&#45;&gt;q4</title>
<path fill="none" stroke="#000000" d="M335.9098,-171.9182C345.5563,-172.9566 357.2406,-174.2145 367.9101,-175.3631"/>
<polygon fill="#000000" stroke="#000000" points="367.811,-178.8726 378.1282,-176.4631 368.5603,-171.9128 367.811,-178.8726"/>
<text text-anchor="middle" x="357.045" y="-177.8935" font-family="Times,serif" font-size="14.00" fill="#000000">a</text>
</g>
<!-- q5 -->
<g id="node7" class="node">
<title>q5</title>
<ellipse fill="none" stroke="#000000" cx="483.2327" cy="-150.6935" rx="20.8887" ry="20.8887"/>
<text text-anchor="middle" x="483.2327" y="-146.4935" font-family="Times,serif" font-size="14.00" fill="#000000">q5</text>
</g>
<!-- q3&#45;&gt;q5 -->
<g id="edge14" class="edge">
<title>q3&#45;&gt;q5</title>
<path fill="none" stroke="#000000" d="M332.8494,-181.3288C339.4222,-185.6036 346.9785,-190.437 353.9377,-194.6935 364.5427,-201.1797 366.1456,-205.4723 378.1523,-208.6935 395.9183,-213.4596 402.3853,-215.3335 419.5392,-208.6935 437.0952,-201.8978 452.7858,-187.7624 464.2008,-175.1482"/>
<polygon fill="#000000" stroke="#000000" points="466.8555,-177.4291 470.7342,-167.5698 461.5537,-172.8584 466.8555,-177.4291"/>
<text text-anchor="middle" x="398.8458" y="-216.8935" font-family="Times,serif" font-size="14.00" fill="#000000">lmb</text>
</g>
<!-- q4&#45;&gt;q5 -->
<g id="edge5" class="edge">
<title>q4&#45;&gt;q5</title>
<path fill="none" stroke="#000000" d="M418.8443,-172.0578C429.2485,-168.6057 442.1698,-164.3183 453.7007,-160.4923"/>
<polygon fill="#000000" stroke="#000000" points="454.9888,-163.7526 463.3777,-157.2814 452.7843,-157.1088 454.9888,-163.7526"/>
<text text-anchor="middle" x="441.0392" y="-168.8935" font-family="Times,serif" font-size="14.00" fill="#000000">b</text>
</g>
<!-- q5&#45;&gt;q3 -->
<g id="edge6" class="edge">
<title>q5&#45;&gt;q3</title>
<path fill="none" stroke="#000000" d="M464.0092,-142.1579C442.754,-133.8935 407.6192,-123.7214 378.1523,-131.8935 364.492,-135.6819 350.8233,-143.317 339.7336,-150.7397"/>
<polygon fill="#000000" stroke="#000000" points="337.6095,-147.9546 331.4423,-156.5695 341.6358,-153.6808 337.6095,-147.9546"/>
<text text-anchor="middle" x="398.8458" y="-135.8935" font-family="Times,serif" font-size="14.00" fill="#000000">lmb</text>
</g>
<!-- q5&#45;&gt;q6 -->
<g id="edge7" class="edge">
<title>q5&#45;&gt;q6</title>
<path fill="none" stroke="#000000" d="M472.9414,-132.6485C459.1146,-111.0311 432.3586,-77.6935 398.8458,-77.6935 231.6428,-77.6935 231.6428,-77.6935 231.6428,-77.6935 208.8175,-77.6935 183.061,-78.7645 163.5186,-79.7981"/>
<polygon fill="#000000" stroke="#000000" points="163.15,-76.3131 153.3591,-80.3615 163.5376,-83.3024 163.15,-76.3131"/>
<text text-anchor="middle" x="315.2443" y="-81.8935" font-family="Times,serif" font-size="14.00" fill="#000000">b</text>
</g>
<!-- q6&#45;&gt;q8 -->
<g id="edge12" class="edge">
<title>q6&#45;&gt;q8</title>
<path fill="none" stroke="#000000" d="M119.1642,-65.2998C112.3913,-58.2396 103.5324,-50.7343 93.7812,-46.8935 83.8283,-42.9732 72.3767,-41.7225 61.799,-41.7264"/>
<polygon fill="#000000" stroke="#000000" points="61.467,-38.236 51.6004,-42.0961 61.7207,-45.2314 61.467,-38.236"/>
<text text-anchor="middle" x="82.8906" y="-50.8935" font-family="Times,serif" font-size="14.00" fill="#000000">lmb</text>
</g>
<!-- q6&#45;&gt;q2 -->
<g id="edge9" class="edge">
<title>q6&#45;&gt;q2</title>
<path fill="none" stroke="#000000" d="M143.6649,-99.1584C150.6195,-108.8967 160.2929,-120.6467 171.1681,-128.6935 180.3729,-135.5042 191.7035,-140.8272 202.0594,-144.7782"/>
<polygon fill="#000000" stroke="#000000" points="200.9935,-148.1136 211.5883,-148.1497 203.3284,-141.5145 200.9935,-148.1136"/>
<text text-anchor="middle" x="182.0587" y="-144.8935" font-family="Times,serif" font-size="14.00" fill="#000000">lmb</text>
</g>
<!-- q7 -->
<g id="node9" class="node">
<title>q7</title>
<ellipse fill="none" stroke="#000000" cx="231.6428" cy="-20.6935" rx="20.8887" ry="20.8887"/>
<text text-anchor="middle" x="231.6428" y="-16.4935" font-family="Times,serif" font-size="14.00" fill="#000000">q7</text>
</g>
<!-- q6&#45;&gt;q7 -->
<g id="edge10" class="edge">
<title>q6&#45;&gt;q7</title>
<path fill="none" stroke="#000000" d="M146.9822,-66.5856C153.8793,-59.9666 162.5004,-52.4571 171.1681,-46.8935 180.8002,-40.7108 192.1383,-35.3595 202.3786,-31.1339"/>
<polygon fill="#000000" stroke="#000000" points="203.7459,-34.3571 211.7686,-27.4371 201.1816,-27.8437 203.7459,-34.3571"/>
<text text-anchor="middle" x="182.0587" y="-50.8935" font-family="Times,serif" font-size="14.00" fill="#000000">a</text>
</g>
<!-- q7&#45;&gt;q8 -->
<g id="edge11" class="edge">
<title>q7&#45;&gt;q8</title>
<path fill="none" stroke="#000000" d="M210.9202,-22.4343C180.418,-25.1022 121.6724,-30.6422 72,-37.6935 68.7004,-38.1619 65.2722,-38.6919 61.8465,-39.2507"/>
<polygon fill="#000000" stroke="#000000" points="60.9763,-35.8485 51.7076,-40.9809 62.1539,-42.7488 60.9763,-35.8485"/>
<text text-anchor="middle" x="132.4747" y="-35.8935" font-family="Times,serif" font-size="14.00" fill="#000000">b</text>
</g>
</g>
</svg>
