<?xml version="1.0" encoding="UTF-8" standalone="no"?>
<!DOCTYPE svg PUBLIC "-//W3C//DTD SVG 1.1//EN"
 "http://www.w3.org/Graphics/SVG/1.1/DTD/svg11.dtd">
<!-- Generated by graphviz version 2.40.1 (20161225.0304)
 -->
<!-- Title: task3_5_dka Pages: 1 -->
<svg width="2005pt" height="602pt"
 viewBox="0.00 0.00 2005.33 601.80" xmlns="http://www.w3.org/2000/svg" xmlns:xlink="http://www.w3.org/1999/xlink">
<g id="graph0" class="graph" transform="scale(1 1) rotate(0) translate(4 597.8)">
<title>task3_5_dka</title>
<polygon fill="#ffffff" stroke="transparent" points="-4,4 -4,-597.8 2001.3284,-597.8 2001.3284,4 -4,4"/>
<!-- q2q3q6q10 -->
<g id="node1" class="node">
<title>q2q3q6q10</title>
<ellipse fill="none" stroke="#000000" cx="862.1677" cy="-165" rx="54.486" ry="54.486"/>
<ellipse fill="none" stroke="#000000" cx="862.1677" cy="-165" rx="58.4855" ry="58.4855"/>
<text text-anchor="middle" x="862.1677" y="-160.8" font-family="Times,serif" font-size="14.00" fill="#000000">q2q3q6q10</text>
</g>
<!-- q2q3q6q10&#45;&gt;q2q3q6q10 -->
<g id="edge17" class="edge">
<title>q2q3q6q10&#45;&gt;q2q3q6q10</title>
<path fill="none" stroke="#000000" d="M848.1461,-222.0443C849.7243,-233.3972 854.3982,-241.4928 862.1677,-241.4928 867.3878,-241.4928 871.2106,-237.8383 873.6358,-231.9968"/>
<polygon fill="#000000" stroke="#000000" points="877.0942,-232.6004 876.1893,-222.0443 870.3138,-230.8608 877.0942,-232.6004"/>
<text text-anchor="middle" x="862.1677" y="-245.6928" font-family="Times,serif" font-size="14.00" fill="#000000">a</text>
</g>
<!-- q2q4q7q10 -->
<g id="node6" class="node">
<title>q2q4q7q10</title>
<ellipse fill="none" stroke="#000000" cx="1022.9817" cy="-201" rx="54.486" ry="54.486"/>
<ellipse fill="none" stroke="#000000" cx="1022.9817" cy="-201" rx="58.4855" ry="58.4855"/>
<text text-anchor="middle" x="1022.9817" y="-196.8" font-family="Times,serif" font-size="14.00" fill="#000000">q2q4q7q10</text>
</g>
<!-- q2q3q6q10&#45;&gt;q2q4q7q10 -->
<g id="edge18" class="edge">
<title>q2q3q6q10&#45;&gt;q2q4q7q10</title>
<path fill="none" stroke="#000000" d="M919.3175,-177.7936C931.096,-180.4304 943.603,-183.2302 955.7024,-185.9388"/>
<polygon fill="#000000" stroke="#000000" points="955.222,-189.4178 965.7451,-188.187 956.7513,-182.5869 955.222,-189.4178"/>
<text text-anchor="middle" x="942.1604" y="-187.2" font-family="Times,serif" font-size="14.00" fill="#000000">b</text>
</g>
<!-- q2q4q6q7q9q10 -->
<g id="node2" class="node">
<title>q2q4q6q7q9q10</title>
<ellipse fill="none" stroke="#000000" cx="1919.5218" cy="-236" rx="73.6237" ry="73.6237"/>
<ellipse fill="none" stroke="#000000" cx="1919.5218" cy="-236" rx="77.6138" ry="77.6138"/>
<text text-anchor="middle" x="1919.5218" y="-231.8" font-family="Times,serif" font-size="14.00" fill="#000000">q2q4q6q7q9q10</text>
</g>
<!-- q2q3q5q6q8q10 -->
<g id="node3" class="node">
<title>q2q3q5q6q8q10</title>
<ellipse fill="none" stroke="#000000" cx="1720.9085" cy="-276" rx="73.6237" ry="73.6237"/>
<ellipse fill="none" stroke="#000000" cx="1720.9085" cy="-276" rx="77.6138" ry="77.6138"/>
<text text-anchor="middle" x="1720.9085" y="-271.8" font-family="Times,serif" font-size="14.00" fill="#000000">q2q3q5q6q8q10</text>
</g>
<!-- q2q4q6q7q9q10&#45;&gt;q2q3q5q6q8q10 -->
<g id="edge37" class="edge">
<title>q2q4q6q7q9q10&#45;&gt;q2q3q5q6q8q10</title>
<path fill="none" stroke="#000000" d="M1841.7312,-233.8334C1833.2416,-234.5083 1824.7651,-235.583 1816.7151,-237.2 1811.7297,-238.2014 1806.6742,-239.4565 1801.6251,-240.8969"/>
<polygon fill="#000000" stroke="#000000" points="1800.4712,-237.5899 1791.9434,-243.8771 1802.5306,-244.2801 1800.4712,-237.5899"/>
<text text-anchor="middle" x="1820.2151" y="-241.2" font-family="Times,serif" font-size="14.00" fill="#000000">a</text>
</g>
<!-- q2q6q7q10 -->
<g id="node4" class="node">
<title>q2q6q7q10</title>
<ellipse fill="none" stroke="#000000" cx="1193.4526" cy="-414" rx="54.486" ry="54.486"/>
<ellipse fill="none" stroke="#000000" cx="1193.4526" cy="-414" rx="58.4855" ry="58.4855"/>
<text text-anchor="middle" x="1193.4526" y="-409.8" font-family="Times,serif" font-size="14.00" fill="#000000">q2q6q7q10</text>
</g>
<!-- q2q4q6q7q9q10&#45;&gt;q2q6q7q10 -->
<g id="edge38" class="edge">
<title>q2q4q6q7q9q10&#45;&gt;q2q6q7q10</title>
<path fill="none" stroke="#000000" d="M1896.2718,-310.5855C1867.9113,-384.8942 1812.1252,-488 1720.9085,-488 1363.0951,-488 1363.0951,-488 1363.0951,-488 1323.1511,-488 1281.9981,-470.5506 1250.2292,-452.5984"/>
<polygon fill="#000000" stroke="#000000" points="1251.9302,-449.5388 1241.5264,-447.5358 1248.4103,-455.5895 1251.9302,-449.5388"/>
<text text-anchor="middle" x="1532.7375" y="-492.2" font-family="Times,serif" font-size="14.00" fill="#000000">b</text>
</g>
<!-- q2q3q5q6q8q10&#45;&gt;q2q3q6q10 -->
<g id="edge39" class="edge">
<title>q2q3q5q6q8q10&#45;&gt;q2q3q6q10</title>
<path fill="none" stroke="#000000" d="M1656.9449,-231.5403C1621.9,-211.3914 1576.7418,-192 1532.7375,-192 1283.1023,-192 1283.1023,-192 1283.1023,-192 1212.4627,-192 1193.4364,-191.6489 1125.3029,-173 1113.5945,-169.7953 1109.5326,-169.8849 1100.3029,-162 1089.0546,-152.3906 1095.2878,-141.0891 1082.3029,-134 1036.0212,-108.7324 1015.8123,-126.2129 963.6604,-134 951.7023,-135.7855 939.2056,-138.6928 927.2322,-142.0293"/>
<polygon fill="#000000" stroke="#000000" points="925.9422,-138.7595 917.3209,-144.9177 927.9008,-145.48 925.9422,-138.7595"/>
<text text-anchor="middle" x="1283.1023" y="-196.2" font-family="Times,serif" font-size="14.00" fill="#000000">a</text>
</g>
<!-- q2q3q5q6q8q10&#45;&gt;q2q4q6q7q9q10 -->
<g id="edge40" class="edge">
<title>q2q3q5q6q8q10&#45;&gt;q2q4q6q7q9q10</title>
<path fill="none" stroke="#000000" d="M1797.4135,-260.5922C1809.1096,-258.2366 1821.2518,-255.7912 1833.1425,-253.3965"/>
<polygon fill="#000000" stroke="#000000" points="1833.944,-256.8054 1843.0562,-251.3999 1832.562,-249.9432 1833.944,-256.8054"/>
<text text-anchor="middle" x="1820.2151" y="-260.2" font-family="Times,serif" font-size="14.00" fill="#000000">b</text>
</g>
<!-- q2q6q7q10&#45;&gt;q2q6q7q10 -->
<g id="edge20" class="edge">
<title>q2q6q7q10&#45;&gt;q2q6q7q10</title>
<path fill="none" stroke="#000000" d="M1177.5327,-470.3728C1179.2085,-482.0766 1184.5151,-490.4928 1193.4526,-490.4928 1199.5971,-490.4928 1204.0255,-486.5148 1206.7378,-480.2254"/>
<polygon fill="#000000" stroke="#000000" points="1210.1702,-480.9376 1209.3725,-470.3728 1203.4079,-479.1291 1210.1702,-480.9376"/>
<text text-anchor="middle" x="1193.4526" y="-494.6928" font-family="Times,serif" font-size="14.00" fill="#000000">b</text>
</g>
<!-- q2q3q8q10 -->
<g id="node5" class="node">
<title>q2q3q8q10</title>
<ellipse fill="none" stroke="#000000" cx="1363.0951" cy="-320" rx="54.486" ry="54.486"/>
<ellipse fill="none" stroke="#000000" cx="1363.0951" cy="-320" rx="58.4855" ry="58.4855"/>
<text text-anchor="middle" x="1363.0951" y="-315.8" font-family="Times,serif" font-size="14.00" fill="#000000">q2q3q8q10</text>
</g>
<!-- q2q6q7q10&#45;&gt;q2q3q8q10 -->
<g id="edge19" class="edge">
<title>q2q6q7q10&#45;&gt;q2q3q8q10</title>
<path fill="none" stroke="#000000" d="M1244.8113,-385.5418C1263.1641,-375.3724 1284.006,-363.8238 1303.0276,-353.2838"/>
<polygon fill="#000000" stroke="#000000" points="1304.8603,-356.2697 1311.9109,-348.3615 1301.4676,-350.1468 1304.8603,-356.2697"/>
<text text-anchor="middle" x="1283.1023" y="-368.2" font-family="Times,serif" font-size="14.00" fill="#000000">a</text>
</g>
<!-- q2q3q8q10&#45;&gt;q2q3q6q10 -->
<g id="edge25" class="edge">
<title>q2q3q8q10&#45;&gt;q2q3q6q10</title>
<path fill="none" stroke="#000000" d="M1304.7027,-314.5189C1201.1941,-304.491 993.5652,-282.8577 963.6604,-268 940.939,-256.7112 920.3399,-238.2832 903.7285,-220.112"/>
<polygon fill="#000000" stroke="#000000" points="906.1112,-217.5236 896.8589,-212.3617 900.8728,-222.1668 906.1112,-217.5236"/>
<text text-anchor="middle" x="1103.8029" y="-296.2" font-family="Times,serif" font-size="14.00" fill="#000000">a</text>
</g>
<!-- q2q4q7q9q10 -->
<g id="node8" class="node">
<title>q2q4q7q9q10</title>
<ellipse fill="none" stroke="#000000" cx="1532.7375" cy="-320" rx="64.2909" ry="64.2909"/>
<ellipse fill="none" stroke="#000000" cx="1532.7375" cy="-320" rx="68.2997" ry="68.2997"/>
<text text-anchor="middle" x="1532.7375" y="-315.8" font-family="Times,serif" font-size="14.00" fill="#000000">q2q4q7q9q10</text>
</g>
<!-- q2q3q8q10&#45;&gt;q2q4q7q9q10 -->
<g id="edge26" class="edge">
<title>q2q3q8q10&#45;&gt;q2q4q7q9q10</title>
<path fill="none" stroke="#000000" d="M1421.9517,-320C1432.3221,-320 1443.2655,-320 1454.0749,-320"/>
<polygon fill="#000000" stroke="#000000" points="1454.3744,-323.5001 1464.3744,-320 1454.3743,-316.5001 1454.3744,-323.5001"/>
<text text-anchor="middle" x="1443.0878" y="-324.2" font-family="Times,serif" font-size="14.00" fill="#000000">b</text>
</g>
<!-- q2q4q7q10&#45;&gt;q2q6q7q10 -->
<g id="edge28" class="edge">
<title>q2q4q7q10&#45;&gt;q2q6q7q10</title>
<path fill="none" stroke="#000000" d="M1076.6978,-224.8714C1087.6817,-231.3736 1098.5452,-239.1656 1107.3029,-248.2 1134.942,-276.7125 1155.8471,-315.8687 1170.1383,-348.9695"/>
<polygon fill="#000000" stroke="#000000" points="1167.0758,-350.7162 1174.1772,-358.5788 1173.5289,-348.0038 1167.0758,-350.7162"/>
<text text-anchor="middle" x="1103.8029" y="-252.2" font-family="Times,serif" font-size="14.00" fill="#000000">b</text>
</g>
<!-- q2q3q5q8q10 -->
<g id="node7" class="node">
<title>q2q3q5q8q10</title>
<ellipse fill="none" stroke="#000000" cx="1193.4526" cy="-96" rx="64.2909" ry="64.2909"/>
<ellipse fill="none" stroke="#000000" cx="1193.4526" cy="-96" rx="68.2997" ry="68.2997"/>
<text text-anchor="middle" x="1193.4526" y="-91.8" font-family="Times,serif" font-size="14.00" fill="#000000">q2q3q5q8q10</text>
</g>
<!-- q2q4q7q10&#45;&gt;q2q3q5q8q10 -->
<g id="edge27" class="edge">
<title>q2q4q7q10&#45;&gt;q2q3q5q8q10</title>
<path fill="none" stroke="#000000" d="M1073.2066,-170.0644C1089.918,-159.7712 1108.8027,-148.1393 1126.5704,-137.1955"/>
<polygon fill="#000000" stroke="#000000" points="1128.5096,-140.1117 1135.1885,-131.8872 1124.8385,-134.1516 1128.5096,-140.1117"/>
<text text-anchor="middle" x="1103.8029" y="-155.2" font-family="Times,serif" font-size="14.00" fill="#000000">a</text>
</g>
<!-- q2q3q5q8q10&#45;&gt;q2q3q6q10 -->
<g id="edge29" class="edge">
<title>q2q3q5q8q10&#45;&gt;q2q3q6q10</title>
<path fill="none" stroke="#000000" d="M1126.8655,-80.7567C1080.1836,-72.8991 1016.8701,-67.9824 963.6604,-84.2 944.0303,-90.183 925.5165,-102.143 909.8111,-115.0674"/>
<polygon fill="#000000" stroke="#000000" points="907.173,-112.7191 901.8632,-121.8873 911.7315,-118.0315 907.173,-112.7191"/>
<text text-anchor="middle" x="1022.9817" y="-88.2" font-family="Times,serif" font-size="14.00" fill="#000000">a</text>
</g>
<!-- q2q3q5q8q10&#45;&gt;q2q4q6q7q9q10 -->
<g id="edge30" class="edge">
<title>q2q3q5q8q10&#45;&gt;q2q4q6q7q9q10</title>
<path fill="none" stroke="#000000" d="M1261.4312,-104.769C1292.3891,-108.0515 1329.5368,-111 1363.0951,-111 1363.0951,-111 1363.0951,-111 1720.9085,-111 1772.6383,-111 1821.9115,-141.7485 1858.4401,-172.7447"/>
<polygon fill="#000000" stroke="#000000" points="1856.1951,-175.4308 1866.0377,-179.3517 1860.7885,-170.1486 1856.1951,-175.4308"/>
<text text-anchor="middle" x="1532.7375" y="-115.2" font-family="Times,serif" font-size="14.00" fill="#000000">b</text>
</g>
<!-- q2q4q7q9q10&#45;&gt;q2q3q5q6q8q10 -->
<g id="edge35" class="edge">
<title>q2q4q7q9q10&#45;&gt;q2q3q5q6q8q10</title>
<path fill="none" stroke="#000000" d="M1599.3444,-304.4253C1610.908,-301.7214 1623.0787,-298.8755 1635.0693,-296.0718"/>
<polygon fill="#000000" stroke="#000000" points="1636.1414,-299.4156 1645.0818,-293.7305 1634.5475,-292.5994 1636.1414,-299.4156"/>
<text text-anchor="middle" x="1621.9945" y="-303.2" font-family="Times,serif" font-size="14.00" fill="#000000">a</text>
</g>
<!-- q2q4q7q9q10&#45;&gt;q2q6q7q10 -->
<g id="edge36" class="edge">
<title>q2q4q7q9q10&#45;&gt;q2q6q7q10</title>
<path fill="none" stroke="#000000" d="M1477.0538,-359.8627C1459.9879,-370.3074 1440.6646,-380.4628 1421.5878,-387 1370.0252,-404.6693 1308.4993,-411.168 1262.3425,-413.3873"/>
<polygon fill="#000000" stroke="#000000" points="1261.9871,-409.8991 1252.1447,-413.8204 1262.2842,-416.8928 1261.9871,-409.8991"/>
<text text-anchor="middle" x="1363.0951" y="-414.2" font-family="Times,serif" font-size="14.00" fill="#000000">b</text>
</g>
<g id="node9" class="node">
<title></title>
</g>
<!-- q1 -->
<g id="node10" class="node">
<title>q1</title>
<ellipse fill="none" stroke="#000000" cx="111.6935" cy="-322" rx="20.8887" ry="20.8887"/>
<text text-anchor="middle" x="111.6935" y="-317.8" font-family="Times,serif" font-size="14.00" fill="#000000">q1</text>
</g>
<!-- &#45;&gt;q1 -->
<g id="edge1" class="edge">
<title>&#45;&gt;q1</title>
<path fill="none" stroke="#000000" d="M54.2637,-322C62.7209,-322 72.1012,-322 80.7873,-322"/>
<polygon fill="#000000" stroke="#000000" points="80.9294,-325.5001 90.9294,-322 80.9293,-318.5001 80.9294,-325.5001"/>
</g>
<!-- q2 -->
<g id="node11" class="node">
<title>q2</title>
<ellipse fill="none" stroke="#000000" cx="209.295" cy="-322" rx="20.8887" ry="20.8887"/>
<text text-anchor="middle" x="209.295" y="-317.8" font-family="Times,serif" font-size="14.00" fill="#000000">q2</text>
</g>
<!-- q1&#45;&gt;q2 -->
<g id="edge2" class="edge">
<title>q1&#45;&gt;q2</title>
<path fill="none" stroke="#000000" d="M132.3922,-322C145.6304,-322 163.054,-322 177.9685,-322"/>
<polygon fill="#000000" stroke="#000000" points="178.2896,-325.5001 188.2895,-322 178.2895,-318.5001 178.2896,-325.5001"/>
<text text-anchor="middle" x="160.4942" y="-326.2" font-family="Times,serif" font-size="14.00" fill="#000000">a, b</text>
</g>
<!-- q2q3 -->
<g id="node12" class="node">
<title>q2q3</title>
<ellipse fill="none" stroke="#000000" cx="303.3388" cy="-373" rx="30.2015" ry="30.2015"/>
<text text-anchor="middle" x="303.3388" y="-368.8" font-family="Times,serif" font-size="14.00" fill="#000000">q2q3</text>
</g>
<!-- q2&#45;&gt;q2q3 -->
<g id="edge3" class="edge">
<title>q2&#45;&gt;q2q3</title>
<path fill="none" stroke="#000000" d="M227.875,-332.076C239.1832,-338.2084 254.0066,-346.2471 267.5195,-353.5752"/>
<polygon fill="#000000" stroke="#000000" points="266.1467,-356.8122 276.6058,-358.5027 269.4838,-350.6588 266.1467,-356.8122"/>
<text text-anchor="middle" x="251.4884" y="-349.2" font-family="Times,serif" font-size="14.00" fill="#000000">a</text>
</g>
<!-- q2q7 -->
<g id="node13" class="node">
<title>q2q7</title>
<ellipse fill="none" stroke="#000000" cx="303.3388" cy="-254" rx="30.2015" ry="30.2015"/>
<text text-anchor="middle" x="303.3388" y="-249.8" font-family="Times,serif" font-size="14.00" fill="#000000">q2q7</text>
</g>
<!-- q2&#45;&gt;q2q7 -->
<g id="edge4" class="edge">
<title>q2&#45;&gt;q2q7</title>
<path fill="none" stroke="#000000" d="M226.1081,-309.843C238.2976,-301.0291 255.1839,-288.8192 270.0588,-278.0637"/>
<polygon fill="#000000" stroke="#000000" points="272.481,-280.6314 278.5338,-271.9357 268.3794,-274.9589 272.481,-280.6314"/>
<text text-anchor="middle" x="251.4884" y="-296.2" font-family="Times,serif" font-size="14.00" fill="#000000">b</text>
</g>
<!-- q2q3q6 -->
<g id="node14" class="node">
<title>q2q3q6</title>
<ellipse fill="none" stroke="#000000" cx="701.3537" cy="-434" rx="40.0147" ry="40.0147"/>
<text text-anchor="middle" x="701.3537" y="-429.8" font-family="Times,serif" font-size="14.00" fill="#000000">q2q3q6</text>
</g>
<!-- q2q3&#45;&gt;q2q3q6 -->
<g id="edge5" class="edge">
<title>q2q3&#45;&gt;q2q3q6</title>
<path fill="none" stroke="#000000" d="M326.3268,-393.2869C360.996,-422.3373 430.0449,-474.3401 499.7039,-493 542.3465,-504.4229 556.3875,-504.4141 599.0325,-493 620.8217,-487.168 642.7776,-475.4546 660.7338,-463.991"/>
<polygon fill="#000000" stroke="#000000" points="662.782,-466.833 669.2092,-458.4103 658.9323,-460.9866 662.782,-466.833"/>
<text text-anchor="middle" x="478.2039" y="-491.2" font-family="Times,serif" font-size="14.00" fill="#000000">a</text>
</g>
<!-- q2q4q7 -->
<g id="node15" class="node">
<title>q2q4q7</title>
<ellipse fill="none" stroke="#000000" cx="416.6965" cy="-373" rx="40.0147" ry="40.0147"/>
<text text-anchor="middle" x="416.6965" y="-368.8" font-family="Times,serif" font-size="14.00" fill="#000000">q2q4q7</text>
</g>
<!-- q2q3&#45;&gt;q2q4q7 -->
<g id="edge6" class="edge">
<title>q2q3&#45;&gt;q2q4q7</title>
<path fill="none" stroke="#000000" d="M333.7166,-373C343.7588,-373 355.2164,-373 366.3446,-373"/>
<polygon fill="#000000" stroke="#000000" points="366.4217,-376.5001 376.4217,-373 366.4216,-369.5001 366.4217,-376.5001"/>
<text text-anchor="middle" x="355.1892" y="-377.2" font-family="Times,serif" font-size="14.00" fill="#000000">b</text>
</g>
<!-- q2q3q8 -->
<g id="node16" class="node">
<title>q2q3q8</title>
<ellipse fill="none" stroke="#000000" cx="416.6965" cy="-254" rx="40.0147" ry="40.0147"/>
<text text-anchor="middle" x="416.6965" y="-249.8" font-family="Times,serif" font-size="14.00" fill="#000000">q2q3q8</text>
</g>
<!-- q2q7&#45;&gt;q2q3q8 -->
<g id="edge7" class="edge">
<title>q2q7&#45;&gt;q2q3q8</title>
<path fill="none" stroke="#000000" d="M333.7166,-254C343.7588,-254 355.2164,-254 366.3446,-254"/>
<polygon fill="#000000" stroke="#000000" points="366.4217,-257.5001 376.4217,-254 366.4216,-250.5001 366.4217,-257.5001"/>
<text text-anchor="middle" x="355.1892" y="-258.2" font-family="Times,serif" font-size="14.00" fill="#000000">a</text>
</g>
<!-- q2q6q7 -->
<g id="node17" class="node">
<title>q2q6q7</title>
<ellipse fill="none" stroke="#000000" cx="701.3537" cy="-333" rx="40.0147" ry="40.0147"/>
<text text-anchor="middle" x="701.3537" y="-328.8" font-family="Times,serif" font-size="14.00" fill="#000000">q2q6q7</text>
</g>
<!-- q2q7&#45;&gt;q2q6q7 -->
<g id="edge8" class="edge">
<title>q2q7&#45;&gt;q2q6q7</title>
<path fill="none" stroke="#000000" d="M326.1298,-233.636C377.5135,-190.3113 505.2224,-97.2696 599.0325,-152 647.483,-180.2669 674.8151,-240.9093 688.8148,-284.207"/>
<polygon fill="#000000" stroke="#000000" points="685.5423,-285.4713 691.8473,-293.9858 692.2282,-283.3978 685.5423,-285.4713"/>
<text text-anchor="middle" x="478.2039" y="-148.2" font-family="Times,serif" font-size="14.00" fill="#000000">b</text>
</g>
<!-- q2q3q6&#45;&gt;q2q3q6q10 -->
<g id="edge9" class="edge">
<title>q2q3q6&#45;&gt;q2q3q6q10</title>
<path fill="none" stroke="#000000" d="M733.5724,-409.9872C743.1043,-401.8307 753.0249,-392.1835 760.6749,-382 795.5402,-335.5879 822.5566,-275.2812 839.919,-230.0266"/>
<polygon fill="#000000" stroke="#000000" points="843.2169,-231.2003 843.4767,-220.6086 836.6686,-228.7265 843.2169,-231.2003"/>
<text text-anchor="middle" x="782.1749" y="-359.2" font-family="Times,serif" font-size="14.00" fill="#000000">a</text>
</g>
<!-- q2q3q6&#45;&gt;q2q6q7q10 -->
<g id="edge10" class="edge">
<title>q2q3q6&#45;&gt;q2q6q7q10</title>
<path fill="none" stroke="#000000" d="M741.6242,-432.3633C825.5964,-428.9505 1020.2301,-421.0402 1124.5251,-416.8014"/>
<polygon fill="#000000" stroke="#000000" points="1124.7865,-420.2937 1134.6361,-416.3904 1124.5022,-413.2995 1124.7865,-420.2937"/>
<text text-anchor="middle" x="942.1604" y="-428.2" font-family="Times,serif" font-size="14.00" fill="#000000">b</text>
</g>
<!-- q2q4q7&#45;&gt;q2q6q7 -->
<g id="edge12" class="edge">
<title>q2q4q7&#45;&gt;q2q6q7</title>
<path fill="none" stroke="#000000" d="M456.3157,-365.5021C470.0317,-363.0218 485.5203,-360.3492 499.7039,-358.2 551.3168,-350.3792 610.6295,-343.1807 651.5002,-338.4977"/>
<polygon fill="#000000" stroke="#000000" points="651.9376,-341.9706 661.4778,-337.3625 651.1462,-335.0155 651.9376,-341.9706"/>
<text text-anchor="middle" x="549.3682" y="-362.2" font-family="Times,serif" font-size="14.00" fill="#000000">b</text>
</g>
<!-- q2q3q5q8 -->
<g id="node18" class="node">
<title>q2q3q5q8</title>
<ellipse fill="none" stroke="#000000" cx="549.3682" cy="-434" rx="49.8291" ry="49.8291"/>
<text text-anchor="middle" x="549.3682" y="-429.8" font-family="Times,serif" font-size="14.00" fill="#000000">q2q3q5q8</text>
</g>
<!-- q2q4q7&#45;&gt;q2q3q5q8 -->
<g id="edge11" class="edge">
<title>q2q4q7&#45;&gt;q2q3q5q8</title>
<path fill="none" stroke="#000000" d="M453.3009,-389.83C466.0138,-395.6752 480.5635,-402.3649 494.4286,-408.7398"/>
<polygon fill="#000000" stroke="#000000" points="493.3393,-412.0911 503.887,-413.0886 496.2635,-405.7311 493.3393,-412.0911"/>
<text text-anchor="middle" x="478.2039" y="-405.2" font-family="Times,serif" font-size="14.00" fill="#000000">a</text>
</g>
<!-- q2q3q8&#45;&gt;q2q3q6 -->
<g id="edge13" class="edge">
<title>q2q3q8&#45;&gt;q2q3q6</title>
<path fill="none" stroke="#000000" d="M456.2092,-262.0449C495.4882,-271.5458 555.9401,-290.3694 599.0325,-323.2 624.7856,-342.8204 620.1722,-358.1188 642.0325,-382 648.2802,-388.8253 655.362,-395.6699 662.4024,-402.0481"/>
<polygon fill="#000000" stroke="#000000" points="660.1778,-404.7532 669.9844,-408.7633 664.8189,-399.5129 660.1778,-404.7532"/>
<text text-anchor="middle" x="549.3682" y="-327.2" font-family="Times,serif" font-size="14.00" fill="#000000">a</text>
</g>
<!-- q2q4q7q9 -->
<g id="node19" class="node">
<title>q2q4q7q9</title>
<ellipse fill="none" stroke="#000000" cx="549.3682" cy="-211" rx="49.8291" ry="49.8291"/>
<text text-anchor="middle" x="549.3682" y="-206.8" font-family="Times,serif" font-size="14.00" fill="#000000">q2q4q7q9</text>
</g>
<!-- q2q3q8&#45;&gt;q2q4q7q9 -->
<g id="edge14" class="edge">
<title>q2q3q8&#45;&gt;q2q4q7q9</title>
<path fill="none" stroke="#000000" d="M455.0707,-241.5626C466.5441,-237.844 479.3835,-233.6826 491.8052,-229.6567"/>
<polygon fill="#000000" stroke="#000000" points="493.2098,-232.8807 501.6435,-226.468 491.0515,-226.2217 493.2098,-232.8807"/>
<text text-anchor="middle" x="478.2039" y="-239.2" font-family="Times,serif" font-size="14.00" fill="#000000">b</text>
</g>
<!-- q2q6q7&#45;&gt;q2q6q7q10 -->
<g id="edge16" class="edge">
<title>q2q6q7&#45;&gt;q2q6q7q10</title>
<path fill="none" stroke="#000000" d="M734.6172,-355.4922C747.7885,-363.3075 763.4114,-371.2877 778.6749,-376 841.4666,-395.3856 1024.1795,-406.3993 1124.8751,-411.157"/>
<polygon fill="#000000" stroke="#000000" points="1124.7997,-414.6572 1134.9514,-411.6252 1125.1247,-407.6648 1124.7997,-414.6572"/>
<text text-anchor="middle" x="942.1604" y="-403.2" font-family="Times,serif" font-size="14.00" fill="#000000">b</text>
</g>
<!-- q2q6q7&#45;&gt;q2q3q8q10 -->
<g id="edge15" class="edge">
<title>q2q6q7&#45;&gt;q2q3q8q10</title>
<path fill="none" stroke="#000000" d="M741.7524,-332.2064C851.5579,-330.0492 1156.4521,-324.0595 1294.0964,-321.3555"/>
<polygon fill="#000000" stroke="#000000" points="1294.5779,-324.8468 1304.5072,-321.151 1294.4404,-317.8481 1294.5779,-324.8468"/>
<text text-anchor="middle" x="1022.9817" y="-331.2" font-family="Times,serif" font-size="14.00" fill="#000000">a</text>
</g>
<!-- q2q3q5q8&#45;&gt;q2q3q6 -->
<g id="edge21" class="edge">
<title>q2q3q5q8&#45;&gt;q2q3q6</title>
<path fill="none" stroke="#000000" d="M599.1339,-434C615.7668,-434 634.3102,-434 650.9884,-434"/>
<polygon fill="#000000" stroke="#000000" points="651.0981,-437.5001 661.0981,-434 651.098,-430.5001 651.0981,-437.5001"/>
<text text-anchor="middle" x="620.5325" y="-438.2" font-family="Times,serif" font-size="14.00" fill="#000000">a</text>
</g>
<!-- q2q4q6q7q9 -->
<g id="node20" class="node">
<title>q2q4q6q7q9</title>
<ellipse fill="none" stroke="#000000" cx="1022.9817" cy="-534" rx="59.143" ry="59.143"/>
<text text-anchor="middle" x="1022.9817" y="-529.8" font-family="Times,serif" font-size="14.00" fill="#000000">q2q4q6q7q9</text>
</g>
<!-- q2q3q5q8&#45;&gt;q2q4q6q7q9 -->
<g id="edge22" class="edge">
<title>q2q3q5q8&#45;&gt;q2q4q6q7q9</title>
<path fill="none" stroke="#000000" d="M591.8155,-460.4872C607.1279,-468.936 624.8736,-477.5083 642.0325,-483 747.2524,-516.6758 875.7142,-528.1245 953.3436,-532.0108"/>
<polygon fill="#000000" stroke="#000000" points="953.3317,-535.514 963.4857,-532.4898 953.662,-528.5218 953.3317,-535.514"/>
<text text-anchor="middle" x="782.1749" y="-519.2" font-family="Times,serif" font-size="14.00" fill="#000000">b</text>
</g>
<!-- q2q4q7q9&#45;&gt;q2q6q7 -->
<g id="edge24" class="edge">
<title>q2q4q7q9&#45;&gt;q2q6q7</title>
<path fill="none" stroke="#000000" d="M588.1138,-242.1014C610.6725,-260.2095 639.0491,-282.9876 661.7526,-301.2119"/>
<polygon fill="#000000" stroke="#000000" points="659.8498,-304.1726 669.8391,-307.703 664.2317,-298.7137 659.8498,-304.1726"/>
<text text-anchor="middle" x="620.5325" y="-272.2" font-family="Times,serif" font-size="14.00" fill="#000000">b</text>
</g>
<!-- q2q3q5q6q8 -->
<g id="node21" class="node">
<title>q2q3q5q6q8</title>
<ellipse fill="none" stroke="#000000" cx="701.3537" cy="-101" rx="59.143" ry="59.143"/>
<text text-anchor="middle" x="701.3537" y="-96.8" font-family="Times,serif" font-size="14.00" fill="#000000">q2q3q5q6q8</text>
</g>
<!-- q2q4q7q9&#45;&gt;q2q3q5q6q8 -->
<g id="edge23" class="edge">
<title>q2q4q7q9&#45;&gt;q2q3q5q6q8</title>
<path fill="none" stroke="#000000" d="M589.6985,-181.8108C606.6287,-169.5575 626.6132,-155.0937 644.9614,-141.8141"/>
<polygon fill="#000000" stroke="#000000" points="647.2108,-144.5066 653.2596,-135.8082 643.1066,-138.836 647.2108,-144.5066"/>
<text text-anchor="middle" x="620.5325" y="-163.2" font-family="Times,serif" font-size="14.00" fill="#000000">a</text>
</g>
<!-- q2q4q6q7q9&#45;&gt;q2q3q5q6q8q10 -->
<g id="edge31" class="edge">
<title>q2q4q6q7q9&#45;&gt;q2q3q5q6q8q10</title>
<path fill="none" stroke="#000000" d="M1080.66,-549.0828C1191.4284,-574.5213 1437.4134,-613.5931 1600.8872,-509 1652.3957,-476.0441 1682.8999,-413.4812 1700.2579,-361.4769"/>
<polygon fill="#000000" stroke="#000000" points="1703.6084,-362.4906 1703.3481,-351.899 1696.9466,-360.3412 1703.6084,-362.4906"/>
<text text-anchor="middle" x="1363.0951" y="-581.2" font-family="Times,serif" font-size="14.00" fill="#000000">a</text>
</g>
<!-- q2q4q6q7q9&#45;&gt;q2q6q7q10 -->
<g id="edge32" class="edge">
<title>q2q4q6q7q9&#45;&gt;q2q6q7q10</title>
<path fill="none" stroke="#000000" d="M1071.8318,-499.6128C1092.2431,-485.2446 1116.0815,-468.464 1137.2185,-453.585"/>
<polygon fill="#000000" stroke="#000000" points="1139.3162,-456.3886 1145.4787,-447.7704 1135.2868,-450.6646 1139.3162,-456.3886"/>
<text text-anchor="middle" x="1103.8029" y="-481.2" font-family="Times,serif" font-size="14.00" fill="#000000">b</text>
</g>
<!-- q2q3q5q6q8&#45;&gt;q2q3q6q10 -->
<g id="edge33" class="edge">
<title>q2q3q5q6q8&#45;&gt;q2q3q6q10</title>
<path fill="none" stroke="#000000" d="M756.6967,-123.0252C770.1319,-128.372 784.6044,-134.1317 798.3943,-139.6198"/>
<polygon fill="#000000" stroke="#000000" points="797.2255,-142.9216 807.811,-143.3674 799.814,-136.4177 797.2255,-142.9216"/>
<text text-anchor="middle" x="782.1749" y="-137.2" font-family="Times,serif" font-size="14.00" fill="#000000">a</text>
</g>
<!-- q2q3q5q6q8&#45;&gt;q2q4q6q7q9q10 -->
<g id="edge34" class="edge">
<title>q2q3q5q6q8&#45;&gt;q2q4q6q7q9q10</title>
<path fill="none" stroke="#000000" d="M742.0558,-57.5808C772.2435,-30.2063 816.0114,0 862.1677,0 862.1677,0 862.1677,0 1720.9085,0 1803.2524,0 1858.3327,-85.1455 1889.1929,-153.1504"/>
<polygon fill="#000000" stroke="#000000" points="1886.1377,-154.8953 1893.3869,-162.6218 1892.5382,-152.061 1886.1377,-154.8953"/>
<text text-anchor="middle" x="1283.1023" y="-4.2" font-family="Times,serif" font-size="14.00" fill="#000000">b</text>
</g>
</g>
</svg>
