<?xml version="1.0" encoding="UTF-8" standalone="no"?>
<!DOCTYPE svg PUBLIC "-//W3C//DTD SVG 1.1//EN"
 "http://www.w3.org/Graphics/SVG/1.1/DTD/svg11.dtd">
<!-- Generated by graphviz version 2.40.1 (20161225.0304)
 -->
<!-- Title: task2_4_simple Pages: 1 -->
<svg width="488pt" height="258pt"
 viewBox="0.00 0.00 488.21 257.80" xmlns="http://www.w3.org/2000/svg" xmlns:xlink="http://www.w3.org/1999/xlink">
<g id="graph0" class="graph" transform="scale(1 1) rotate(0) translate(4 253.8)">
<title>task2_4_simple</title>
<polygon fill="#ffffff" stroke="transparent" points="-4,4 -4,-253.8 484.2146,-253.8 484.2146,4 -4,4"/>
<!-- 6 -->
<g id="node1" class="node">
<title>6</title>
<ellipse fill="none" stroke="#000000" cx="458.2146" cy="-92" rx="18" ry="18"/>
<ellipse fill="none" stroke="#000000" cx="458.2146" cy="-92" rx="22" ry="22"/>
<text text-anchor="middle" x="458.2146" y="-87.8" font-family="Times,serif" font-size="14.00" fill="#000000">6</text>
</g>
<!-- 4 -->
<g id="node3" class="node">
<title>4</title>
<ellipse fill="none" stroke="#000000" cx="371.2146" cy="-176" rx="18" ry="18"/>
<ellipse fill="none" stroke="#000000" cx="371.2146" cy="-176" rx="22" ry="22"/>
<text text-anchor="middle" x="371.2146" y="-171.8" font-family="Times,serif" font-size="14.00" fill="#000000">4</text>
</g>
<!-- 6&#45;&gt;4 -->
<g id="edge13" class="edge">
<title>6&#45;&gt;4</title>
<path fill="none" stroke="#000000" d="M442.2575,-107.4069C428.89,-120.3134 409.6276,-138.9116 394.5317,-153.487"/>
<polygon fill="#000000" stroke="#000000" points="391.8335,-151.2269 387.0706,-160.6908 396.6957,-156.2627 391.8335,-151.2269"/>
<text text-anchor="middle" x="414.7146" y="-140.2" font-family="Times,serif" font-size="14.00" fill="#000000">b</text>
</g>
<!-- 3 -->
<g id="node4" class="node">
<title>3</title>
<ellipse fill="none" stroke="#000000" cx="106" cy="-76" rx="18" ry="18"/>
<ellipse fill="none" stroke="#000000" cx="106" cy="-76" rx="22" ry="22"/>
<text text-anchor="middle" x="106" y="-71.8" font-family="Times,serif" font-size="14.00" fill="#000000">3</text>
</g>
<!-- 6&#45;&gt;3 -->
<g id="edge12" class="edge">
<title>6&#45;&gt;3</title>
<path fill="none" stroke="#000000" d="M447.4029,-72.822C433.1256,-50.3076 405.7103,-16 371.2146,-16 371.2146,-16 371.2146,-16 198,-16 170.5499,-16 144.8807,-34.972 127.6692,-51.5795"/>
<polygon fill="#000000" stroke="#000000" points="124.9124,-49.3903 120.3804,-58.9669 129.8953,-54.3067 124.9124,-49.3903"/>
<text text-anchor="middle" x="284.2146" y="-20.2" font-family="Times,serif" font-size="14.00" fill="#000000">a</text>
</g>
<!-- 5 -->
<g id="node2" class="node">
<title>5</title>
<ellipse fill="none" stroke="#000000" cx="284.2146" cy="-128" rx="18" ry="18"/>
<ellipse fill="none" stroke="#000000" cx="284.2146" cy="-128" rx="22" ry="22"/>
<text text-anchor="middle" x="284.2146" y="-123.8" font-family="Times,serif" font-size="14.00" fill="#000000">5</text>
</g>
<!-- 5&#45;&gt;6 -->
<g id="edge11" class="edge">
<title>5&#45;&gt;6</title>
<path fill="none" stroke="#000000" d="M305.8993,-123.5135C336.1986,-117.2447 391.4063,-105.8224 426.3762,-98.5873"/>
<polygon fill="#000000" stroke="#000000" points="427.4457,-101.9402 436.5292,-96.4866 426.0274,-95.0854 427.4457,-101.9402"/>
<text text-anchor="middle" x="371.2146" y="-118.2" font-family="Times,serif" font-size="14.00" fill="#000000">b</text>
</g>
<!-- 2 -->
<g id="node5" class="node">
<title>2</title>
<ellipse fill="none" stroke="#000000" cx="198" cy="-121" rx="18" ry="18"/>
<ellipse fill="none" stroke="#000000" cx="198" cy="-121" rx="22" ry="22"/>
<text text-anchor="middle" x="198" y="-116.8" font-family="Times,serif" font-size="14.00" fill="#000000">2</text>
</g>
<!-- 5&#45;&gt;2 -->
<g id="edge10" class="edge">
<title>5&#45;&gt;2</title>
<path fill="none" stroke="#000000" d="M262.0122,-126.1973C252.3581,-125.4135 240.8582,-124.4798 230.2866,-123.6214"/>
<polygon fill="#000000" stroke="#000000" points="230.3776,-120.1174 220.1272,-122.7966 229.8111,-127.0944 230.3776,-120.1174"/>
<text text-anchor="middle" x="241.1073" y="-128.2" font-family="Times,serif" font-size="14.00" fill="#000000">a</text>
</g>
<!-- 4&#45;&gt;5 -->
<g id="edge9" class="edge">
<title>4&#45;&gt;5</title>
<path fill="none" stroke="#000000" d="M353.2965,-163.068C346.5323,-158.4357 338.6682,-153.3401 331.2146,-149.2 325.8005,-146.1927 319.8799,-143.2624 314.122,-140.5872"/>
<polygon fill="#000000" stroke="#000000" points="315.2598,-137.2615 304.7036,-136.3572 312.3919,-143.647 315.2598,-137.2615"/>
<text text-anchor="middle" x="327.7146" y="-153.2" font-family="Times,serif" font-size="14.00" fill="#000000">b</text>
</g>
<!-- 1 -->
<g id="node7" class="node">
<title>1</title>
<ellipse fill="none" stroke="#000000" cx="18" cy="-134" rx="18" ry="18"/>
<text text-anchor="middle" x="18" y="-129.8" font-family="Times,serif" font-size="14.00" fill="#000000">1</text>
</g>
<!-- 4&#45;&gt;1 -->
<g id="edge8" class="edge">
<title>4&#45;&gt;1</title>
<path fill="none" stroke="#000000" d="M356.7649,-193.1019C340.8705,-209.8916 313.6479,-233 284.2146,-233 284.2146,-233 284.2146,-233 106,-233 67.1581,-233 41.2628,-189.903 28.1388,-160.579"/>
<polygon fill="#000000" stroke="#000000" points="31.3059,-159.0825 24.1774,-151.2445 24.8622,-161.8172 31.3059,-159.0825"/>
<text text-anchor="middle" x="198" y="-237.2" font-family="Times,serif" font-size="14.00" fill="#000000">a</text>
</g>
<!-- 3&#45;&gt;6 -->
<g id="edge6" class="edge">
<title>3&#45;&gt;6</title>
<path fill="none" stroke="#000000" d="M127.899,-73.3935C146.5165,-71.4033 173.9724,-69 198,-69 371.2146,-69 371.2146,-69 371.2146,-69 390.6214,-69 411.6786,-74.4153 428.2153,-79.9906"/>
<polygon fill="#000000" stroke="#000000" points="427.2778,-83.3721 437.8724,-83.4356 429.6298,-76.7791 427.2778,-83.3721"/>
<text text-anchor="middle" x="284.2146" y="-73.2" font-family="Times,serif" font-size="14.00" fill="#000000">a</text>
</g>
<!-- 3&#45;&gt;1 -->
<g id="edge7" class="edge">
<title>3&#45;&gt;1</title>
<path fill="none" stroke="#000000" d="M85.8899,-85.1949C75.9839,-90.0511 64.0417,-96.4062 54,-103.2 48.8501,-106.6842 43.6026,-110.7964 38.7642,-114.8618"/>
<polygon fill="#000000" stroke="#000000" points="36.3387,-112.3329 31.0971,-121.5403 40.9365,-117.6112 36.3387,-112.3329"/>
<text text-anchor="middle" x="57.5" y="-108.2" font-family="Times,serif" font-size="14.00" fill="#000000">b</text>
</g>
<!-- 2&#45;&gt;5 -->
<g id="edge4" class="edge">
<title>2&#45;&gt;5</title>
<path fill="none" stroke="#000000" d="M217.1867,-109.8166C225.4388,-106.3225 235.2343,-103.9118 244.2146,-106.2 248.4393,-107.2765 252.6994,-108.9002 256.7836,-110.7855"/>
<polygon fill="#000000" stroke="#000000" points="255.4083,-114.0153 265.895,-115.5251 258.6386,-107.8053 255.4083,-114.0153"/>
<text text-anchor="middle" x="241.1073" y="-111.2" font-family="Times,serif" font-size="14.00" fill="#000000">a</text>
</g>
<!-- 2&#45;&gt;3 -->
<g id="edge5" class="edge">
<title>2&#45;&gt;3</title>
<path fill="none" stroke="#000000" d="M178.0374,-111.2357C165.4993,-105.1029 149.1131,-97.0879 135.1373,-90.2519"/>
<polygon fill="#000000" stroke="#000000" points="136.4445,-86.9951 125.9237,-85.7453 133.3688,-93.2832 136.4445,-86.9951"/>
<text text-anchor="middle" x="154.5" y="-106.2" font-family="Times,serif" font-size="14.00" fill="#000000">b</text>
</g>
<g id="node6" class="node">
<title></title>
</g>
<!-- &#45;&gt;1 -->
<g id="edge1" class="edge">
<title>&#45;&gt;1</title>
<path fill="none" stroke="#000000" d="M86.9386,-36.1623C84.1861,-39.0389 81.4567,-42.0423 79,-45 61.696,-65.833 44.4816,-91.5206 32.7745,-109.9352"/>
<polygon fill="#000000" stroke="#000000" points="29.6949,-108.2579 27.3384,-118.5874 35.6221,-111.9819 29.6949,-108.2579"/>
</g>
<!-- 1&#45;&gt;4 -->
<g id="edge2" class="edge">
<title>1&#45;&gt;4</title>
<path fill="none" stroke="#000000" d="M31.4879,-146.3272C47.8469,-159.9529 76.8658,-180 106,-180 284.2146,-180 284.2146,-180 284.2146,-180 302.3233,-180 322.5299,-179.1245 338.908,-178.1927"/>
<polygon fill="#000000" stroke="#000000" points="339.2861,-181.6764 349.0573,-177.5809 338.8648,-174.6891 339.2861,-181.6764"/>
<text text-anchor="middle" x="198" y="-184.2" font-family="Times,serif" font-size="14.00" fill="#000000">a</text>
</g>
<!-- 1&#45;&gt;2 -->
<g id="edge3" class="edge">
<title>1&#45;&gt;2</title>
<path fill="none" stroke="#000000" d="M36.1769,-132.6872C66.5795,-130.4915 128.1254,-126.0465 165.9383,-123.3156"/>
<polygon fill="#000000" stroke="#000000" points="166.2066,-126.8054 175.9285,-122.5941 165.7023,-119.8236 166.2066,-126.8054"/>
<text text-anchor="middle" x="106" y="-133.2" font-family="Times,serif" font-size="14.00" fill="#000000">b</text>
</g>
</g>
</svg>
