<?xml version="1.0" encoding="UTF-8" standalone="no"?>
<!DOCTYPE svg PUBLIC "-//W3C//DTD SVG 1.1//EN"
 "http://www.w3.org/Graphics/SVG/1.1/DTD/svg11.dtd">
<!-- Generated by graphviz version 2.40.1 (20161225.0304)
 -->
<!-- Title: task3_5_nka Pages: 1 -->
<svg width="691pt" height="187pt"
 viewBox="0.00 0.00 690.79 187.39" xmlns="http://www.w3.org/2000/svg" xmlns:xlink="http://www.w3.org/1999/xlink">
<g id="graph0" class="graph" transform="scale(1 1) rotate(0) translate(4 183.3869)">
<title>task3_5_nka</title>
<polygon fill="#ffffff" stroke="transparent" points="-4,4 -4,-183.3869 686.7945,-183.3869 686.7945,4 -4,4"/>
<!-- q10 -->
<g id="node1" class="node">
<title>q10</title>
<ellipse fill="none" stroke="#000000" cx="653.2726" cy="-89.6935" rx="25.5409" ry="25.5409"/>
<ellipse fill="none" stroke="#000000" cx="653.2726" cy="-89.6935" rx="29.5439" ry="29.5439"/>
<text text-anchor="middle" x="653.2726" y="-85.4935" font-family="Times,serif" font-size="14.00" fill="#000000">q10</text>
</g>
<!-- q10&#45;&gt;q10 -->
<g id="edge15" class="edge">
<title>q10&#45;&gt;q10</title>
<path fill="none" stroke="#000000" d="M642.8136,-117.5166C642.3487,-128.2741 645.8351,-137.2154 653.2726,-137.2154 658.1534,-137.2154 661.3326,-133.3647 662.8103,-127.677"/>
<polygon fill="#000000" stroke="#000000" points="666.3141,-127.7918 663.7315,-117.5166 659.3427,-127.1596 666.3141,-127.7918"/>
<text text-anchor="middle" x="653.2726" y="-141.4154" font-family="Times,serif" font-size="14.00" fill="#000000">a, b</text>
</g>
<g id="node2" class="node">
<title></title>
</g>
<!-- q1 -->
<g id="node3" class="node">
<title>q1</title>
<ellipse fill="none" stroke="#000000" cx="111.6935" cy="-88.6935" rx="20.8887" ry="20.8887"/>
<text text-anchor="middle" x="111.6935" y="-84.4935" font-family="Times,serif" font-size="14.00" fill="#000000">q1</text>
</g>
<!-- &#45;&gt;q1 -->
<g id="edge1" class="edge">
<title>&#45;&gt;q1</title>
<path fill="none" stroke="#000000" d="M54.2637,-88.6935C62.7209,-88.6935 72.1012,-88.6935 80.7873,-88.6935"/>
<polygon fill="#000000" stroke="#000000" points="80.9294,-92.1936 90.9294,-88.6935 80.9293,-85.1936 80.9294,-92.1936"/>
</g>
<!-- q2 -->
<g id="node4" class="node">
<title>q2</title>
<ellipse fill="none" stroke="#000000" cx="209.295" cy="-88.6935" rx="20.8887" ry="20.8887"/>
<text text-anchor="middle" x="209.295" y="-84.4935" font-family="Times,serif" font-size="14.00" fill="#000000">q2</text>
</g>
<!-- q1&#45;&gt;q2 -->
<g id="edge2" class="edge">
<title>q1&#45;&gt;q2</title>
<path fill="none" stroke="#000000" d="M132.3922,-88.6935C145.6304,-88.6935 163.054,-88.6935 177.9685,-88.6935"/>
<polygon fill="#000000" stroke="#000000" points="178.2896,-92.1935 188.2895,-88.6935 178.2895,-85.1935 178.2896,-92.1935"/>
<text text-anchor="middle" x="160.4942" y="-92.8935" font-family="Times,serif" font-size="14.00" fill="#000000">a, b</text>
</g>
<!-- q2&#45;&gt;q2 -->
<g id="edge3" class="edge">
<title>q2&#45;&gt;q2</title>
<path fill="none" stroke="#000000" d="M201.6968,-108.2043C200.5279,-118.2929 203.0606,-127.3869 209.295,-127.3869 213.2889,-127.3869 215.7636,-123.6547 216.7192,-118.3198"/>
<polygon fill="#000000" stroke="#000000" points="220.2206,-118.263 216.8931,-108.2043 213.2216,-118.1426 220.2206,-118.263"/>
<text text-anchor="middle" x="209.295" y="-131.5869" font-family="Times,serif" font-size="14.00" fill="#000000">a, b</text>
</g>
<!-- q3 -->
<g id="node5" class="node">
<title>q3</title>
<ellipse fill="none" stroke="#000000" cx="293.6819" cy="-118.6935" rx="20.8887" ry="20.8887"/>
<text text-anchor="middle" x="293.6819" y="-114.4935" font-family="Times,serif" font-size="14.00" fill="#000000">q3</text>
</g>
<!-- q2&#45;&gt;q3 -->
<g id="edge4" class="edge">
<title>q2&#45;&gt;q3</title>
<path fill="none" stroke="#000000" d="M228.8671,-95.6515C239.4418,-99.4108 252.7078,-104.127 264.4791,-108.3117"/>
<polygon fill="#000000" stroke="#000000" points="263.3288,-111.6173 273.9235,-111.6693 265.6736,-105.0217 263.3288,-111.6173"/>
<text text-anchor="middle" x="251.4884" y="-108.8935" font-family="Times,serif" font-size="14.00" fill="#000000">a</text>
</g>
<!-- q7 -->
<g id="node9" class="node">
<title>q7</title>
<ellipse fill="none" stroke="#000000" cx="293.6819" cy="-59.6935" rx="20.8887" ry="20.8887"/>
<text text-anchor="middle" x="293.6819" y="-55.4935" font-family="Times,serif" font-size="14.00" fill="#000000">q7</text>
</g>
<!-- q2&#45;&gt;q7 -->
<g id="edge8" class="edge">
<title>q2&#45;&gt;q7</title>
<path fill="none" stroke="#000000" d="M228.9506,-81.5913C235.0429,-79.4147 241.7849,-77.0312 247.9884,-74.8935 253.094,-73.134 258.5322,-71.2948 263.8101,-69.528"/>
<polygon fill="#000000" stroke="#000000" points="265.2489,-72.738 273.6324,-66.2598 263.0389,-66.096 265.2489,-72.738"/>
<text text-anchor="middle" x="251.4884" y="-79.8935" font-family="Times,serif" font-size="14.00" fill="#000000">b</text>
</g>
<!-- q4 -->
<g id="node6" class="node">
<title>q4</title>
<ellipse fill="none" stroke="#000000" cx="378.0688" cy="-158.6935" rx="20.8887" ry="20.8887"/>
<text text-anchor="middle" x="378.0688" y="-154.4935" font-family="Times,serif" font-size="14.00" fill="#000000">q4</text>
</g>
<!-- q3&#45;&gt;q4 -->
<g id="edge5" class="edge">
<title>q3&#45;&gt;q4</title>
<path fill="none" stroke="#000000" d="M312.4101,-127.5707C323.368,-132.7649 337.4219,-139.4266 349.7138,-145.253"/>
<polygon fill="#000000" stroke="#000000" points="348.5657,-148.582 359.1011,-149.7027 351.564,-142.2567 348.5657,-148.582"/>
<text text-anchor="middle" x="335.8753" y="-143.8935" font-family="Times,serif" font-size="14.00" fill="#000000">b</text>
</g>
<!-- q6 -->
<g id="node8" class="node">
<title>q6</title>
<ellipse fill="none" stroke="#000000" cx="546.8426" cy="-89.6935" rx="20.8887" ry="20.8887"/>
<text text-anchor="middle" x="546.8426" y="-85.4935" font-family="Times,serif" font-size="14.00" fill="#000000">q6</text>
</g>
<!-- q3&#45;&gt;q6 -->
<g id="edge12" class="edge">
<title>q3&#45;&gt;q6</title>
<path fill="none" stroke="#000000" d="M314.3991,-116.3203C358.9221,-111.2201 463.9166,-99.1928 516.1801,-93.2059"/>
<polygon fill="#000000" stroke="#000000" points="516.6575,-96.6742 526.1942,-92.0588 515.8608,-89.7197 516.6575,-96.6742"/>
<text text-anchor="middle" x="420.2622" y="-108.8935" font-family="Times,serif" font-size="14.00" fill="#000000">a</text>
</g>
<!-- q5 -->
<g id="node7" class="node">
<title>q5</title>
<ellipse fill="none" stroke="#000000" cx="462.4557" cy="-158.6935" rx="20.8887" ry="20.8887"/>
<text text-anchor="middle" x="462.4557" y="-154.4935" font-family="Times,serif" font-size="14.00" fill="#000000">q5</text>
</g>
<!-- q4&#45;&gt;q5 -->
<g id="edge6" class="edge">
<title>q4&#45;&gt;q5</title>
<path fill="none" stroke="#000000" d="M398.9285,-158.6935C408.6655,-158.6935 420.4596,-158.6935 431.2293,-158.6935"/>
<polygon fill="#000000" stroke="#000000" points="431.5435,-162.1935 441.5435,-158.6935 431.5435,-155.1935 431.5435,-162.1935"/>
<text text-anchor="middle" x="420.2622" y="-162.8935" font-family="Times,serif" font-size="14.00" fill="#000000">a</text>
</g>
<!-- q5&#45;&gt;q6 -->
<g id="edge7" class="edge">
<title>q5&#45;&gt;q6</title>
<path fill="none" stroke="#000000" d="M479.162,-146.3213C487.9066,-139.7394 498.7258,-131.4279 508.1491,-123.6935 513.2297,-119.5234 518.5825,-114.9452 523.6324,-110.537"/>
<polygon fill="#000000" stroke="#000000" points="526.0499,-113.0716 531.2359,-103.8327 521.4204,-107.8211 526.0499,-113.0716"/>
<text text-anchor="middle" x="504.6491" y="-131.8935" font-family="Times,serif" font-size="14.00" fill="#000000">b</text>
</g>
<!-- q6&#45;&gt;q10 -->
<g id="edge14" class="edge">
<title>q6&#45;&gt;q10</title>
<path fill="none" stroke="#000000" d="M567.616,-89.6935C580.592,-89.6935 597.7296,-89.6935 613.2643,-89.6935"/>
<polygon fill="#000000" stroke="#000000" points="613.6922,-93.1935 623.6922,-89.6935 613.6921,-86.1935 613.6922,-93.1935"/>
<text text-anchor="middle" x="595.6433" y="-93.8935" font-family="Times,serif" font-size="14.00" fill="#000000">a, b</text>
</g>
<!-- q7&#45;&gt;q6 -->
<g id="edge13" class="edge">
<title>q7&#45;&gt;q6</title>
<path fill="none" stroke="#000000" d="M314.3991,-62.1485C358.9221,-67.4245 463.9166,-79.8666 516.1801,-86.0599"/>
<polygon fill="#000000" stroke="#000000" points="515.8517,-89.5454 526.1942,-87.2466 516.6756,-82.594 515.8517,-89.5454"/>
<text text-anchor="middle" x="420.2622" y="-79.8935" font-family="Times,serif" font-size="14.00" fill="#000000">b</text>
</g>
<!-- q8 -->
<g id="node10" class="node">
<title>q8</title>
<ellipse fill="none" stroke="#000000" cx="378.0688" cy="-20.6935" rx="20.8887" ry="20.8887"/>
<text text-anchor="middle" x="378.0688" y="-16.4935" font-family="Times,serif" font-size="14.00" fill="#000000">q8</text>
</g>
<!-- q7&#45;&gt;q8 -->
<g id="edge9" class="edge">
<title>q7&#45;&gt;q8</title>
<path fill="none" stroke="#000000" d="M311.964,-49.3123C318.3427,-45.8391 325.6008,-42.0509 332.3753,-38.8935 337.5996,-36.4585 343.2456,-34.0423 348.7278,-31.8043"/>
<polygon fill="#000000" stroke="#000000" points="350.2922,-34.9489 358.2922,-28.0026 347.7065,-28.4439 350.2922,-34.9489"/>
<text text-anchor="middle" x="335.8753" y="-43.8935" font-family="Times,serif" font-size="14.00" fill="#000000">a</text>
</g>
<!-- q9 -->
<g id="node11" class="node">
<title>q9</title>
<ellipse fill="none" stroke="#000000" cx="462.4557" cy="-20.6935" rx="20.8887" ry="20.8887"/>
<text text-anchor="middle" x="462.4557" y="-16.4935" font-family="Times,serif" font-size="14.00" fill="#000000">q9</text>
</g>
<!-- q8&#45;&gt;q9 -->
<g id="edge10" class="edge">
<title>q8&#45;&gt;q9</title>
<path fill="none" stroke="#000000" d="M398.9285,-20.6935C408.6655,-20.6935 420.4596,-20.6935 431.2293,-20.6935"/>
<polygon fill="#000000" stroke="#000000" points="431.5435,-24.1935 441.5435,-20.6935 431.5435,-17.1935 431.5435,-24.1935"/>
<text text-anchor="middle" x="420.2622" y="-24.8935" font-family="Times,serif" font-size="14.00" fill="#000000">b</text>
</g>
<!-- q9&#45;&gt;q6 -->
<g id="edge11" class="edge">
<title>q9&#45;&gt;q6</title>
<path fill="none" stroke="#000000" d="M482.7905,-26.1576C491.1801,-29.054 500.6685,-33.2131 508.1491,-38.8935 516.7578,-45.4304 524.4217,-54.3567 530.6118,-62.9042"/>
<polygon fill="#000000" stroke="#000000" points="527.762,-64.9375 536.291,-71.2229 533.5432,-60.9906 527.762,-64.9375"/>
<text text-anchor="middle" x="504.6491" y="-43.8935" font-family="Times,serif" font-size="14.00" fill="#000000">a</text>
</g>
</g>
</svg>
