<?xml version="1.0" encoding="UTF-8" standalone="no"?>
<!DOCTYPE svg PUBLIC "-//W3C//DTD SVG 1.1//EN"
 "http://www.w3.org/Graphics/SVG/1.1/DTD/svg11.dtd">
<!-- Generated by graphviz version 2.40.1 (20161225.0304)
 -->
<!-- Title: task3_4_dka Pages: 1 -->
<svg width="506pt" height="185pt"
 viewBox="0.00 0.00 506.36 184.84" xmlns="http://www.w3.org/2000/svg" xmlns:xlink="http://www.w3.org/1999/xlink">
<g id="graph0" class="graph" transform="scale(1 1) rotate(0) translate(4 180.8361)">
<title>task3_4_dka</title>
<polygon fill="#ffffff" stroke="transparent" points="-4,4 -4,-180.8361 502.3637,-180.8361 502.3637,4 -4,4"/>
<!-- q2 -->
<g id="node1" class="node">
<title>q2</title>
<ellipse fill="none" stroke="#000000" cx="213.295" cy="-51.0361" rx="20.8568" ry="20.8568"/>
<ellipse fill="none" stroke="#000000" cx="213.295" cy="-51.0361" rx="24.8884" ry="24.8884"/>
<text text-anchor="middle" x="213.295" y="-46.8361" font-family="Times,serif" font-size="14.00" fill="#000000">q2</text>
</g>
<!-- q4 -->
<g id="node2" class="node">
<title>q4</title>
<ellipse fill="none" stroke="#000000" cx="304.8965" cy="-81.0361" rx="20.8568" ry="20.8568"/>
<ellipse fill="none" stroke="#000000" cx="304.8965" cy="-81.0361" rx="24.8884" ry="24.8884"/>
<text text-anchor="middle" x="304.8965" y="-76.8361" font-family="Times,serif" font-size="14.00" fill="#000000">q4</text>
</g>
<!-- q2&#45;&gt;q4 -->
<g id="edge4" class="edge">
<title>q2&#45;&gt;q4</title>
<path fill="none" stroke="#000000" d="M236.8846,-58.7619C247.4625,-62.2262 260.126,-66.3735 271.6426,-70.1453"/>
<polygon fill="#000000" stroke="#000000" points="270.7941,-73.5503 281.3867,-73.3366 272.9728,-66.8979 270.7941,-73.5503"/>
<text text-anchor="middle" x="259.0957" y="-71.2361" font-family="Times,serif" font-size="14.00" fill="#000000">c</text>
</g>
<!-- q3 -->
<g id="node5" class="node">
<title>q3</title>
<ellipse fill="none" stroke="#000000" cx="393.2834" cy="-151.0361" rx="20.8887" ry="20.8887"/>
<text text-anchor="middle" x="393.2834" y="-146.8361" font-family="Times,serif" font-size="14.00" fill="#000000">q3</text>
</g>
<!-- q2&#45;&gt;q3 -->
<g id="edge3" class="edge">
<title>q2&#45;&gt;q3</title>
<path fill="none" stroke="#000000" d="M221.8526,-74.5627C231.8393,-98.1555 250.8307,-133.1908 280.203,-149.0361 305.643,-162.7601 339.2188,-161.3613 363.1605,-157.6943"/>
<polygon fill="#000000" stroke="#000000" points="363.8499,-161.1269 373.0988,-155.9589 362.6458,-154.2312 363.8499,-161.1269"/>
<text text-anchor="middle" x="304.8965" y="-164.2361" font-family="Times,serif" font-size="14.00" fill="#000000">a</text>
</g>
<!-- q6 -->
<g id="node7" class="node">
<title>q6</title>
<ellipse fill="none" stroke="#000000" cx="393.2834" cy="-22.0361" rx="20.8887" ry="20.8887"/>
<text text-anchor="middle" x="393.2834" y="-17.8361" font-family="Times,serif" font-size="14.00" fill="#000000">q6</text>
</g>
<!-- q2&#45;&gt;q6 -->
<g id="edge11" class="edge">
<title>q2&#45;&gt;q6</title>
<path fill="none" stroke="#000000" d="M236.4952,-42.3842C249.2208,-38.0065 265.3819,-33.0388 280.203,-30.2361 307.5853,-25.0581 339.2666,-23.0993 362.1168,-22.3829"/>
<polygon fill="#000000" stroke="#000000" points="362.3478,-25.8783 372.2567,-22.1281 362.1719,-18.8805 362.3478,-25.8783"/>
<text text-anchor="middle" x="304.8965" y="-35.2361" font-family="Times,serif" font-size="14.00" fill="#000000">b</text>
</g>
<!-- q4&#45;&gt;q4 -->
<g id="edge5" class="edge">
<title>q4&#45;&gt;q4</title>
<path fill="none" stroke="#000000" d="M296.7452,-104.7442C296.0778,-114.9723 298.7949,-123.7296 304.8965,-123.7296 308.8053,-123.7296 311.3251,-120.1356 312.456,-114.8633"/>
<polygon fill="#000000" stroke="#000000" points="315.9579,-114.9315 313.0478,-104.7442 308.9698,-114.5227 315.9579,-114.9315"/>
<text text-anchor="middle" x="304.8965" y="-127.9296" font-family="Times,serif" font-size="14.00" fill="#000000">c</text>
</g>
<!-- q4&#45;&gt;q3 -->
<g id="edge6" class="edge">
<title>q4&#45;&gt;q3</title>
<path fill="none" stroke="#000000" d="M324.5124,-96.5714C337.5687,-106.9116 354.8215,-120.5753 368.78,-131.6301"/>
<polygon fill="#000000" stroke="#000000" points="366.9662,-134.6583 376.9785,-138.1231 371.3122,-129.1708 366.9662,-134.6583"/>
<text text-anchor="middle" x="351.0899" y="-124.2361" font-family="Times,serif" font-size="14.00" fill="#000000">a</text>
</g>
<!-- q4&#45;&gt;q6 -->
<g id="edge10" class="edge">
<title>q4&#45;&gt;q6</title>
<path fill="none" stroke="#000000" d="M325.8429,-67.0539C338.2862,-58.7478 354.1668,-48.1472 367.3916,-39.3194"/>
<polygon fill="#000000" stroke="#000000" points="369.674,-42.004 376.0481,-33.541 365.7877,-36.1819 369.674,-42.004"/>
<text text-anchor="middle" x="351.0899" y="-56.2361" font-family="Times,serif" font-size="14.00" fill="#000000">b</text>
</g>
<g id="node3" class="node">
<title></title>
</g>
<!-- q1 -->
<g id="node4" class="node">
<title>q1</title>
<ellipse fill="none" stroke="#000000" cx="111.6935" cy="-51.0361" rx="20.8887" ry="20.8887"/>
<text text-anchor="middle" x="111.6935" y="-46.8361" font-family="Times,serif" font-size="14.00" fill="#000000">q1</text>
</g>
<!-- &#45;&gt;q1 -->
<g id="edge1" class="edge">
<title>&#45;&gt;q1</title>
<path fill="none" stroke="#000000" d="M54.2637,-51.0361C62.7209,-51.0361 72.1012,-51.0361 80.7873,-51.0361"/>
<polygon fill="#000000" stroke="#000000" points="80.9294,-54.5362 90.9294,-51.0361 80.9293,-47.5362 80.9294,-54.5362"/>
</g>
<!-- q1&#45;&gt;q2 -->
<g id="edge2" class="edge">
<title>q1&#45;&gt;q2</title>
<path fill="none" stroke="#000000" d="M132.7454,-51.0361C145.8742,-51.0361 163.096,-51.0361 178.2443,-51.0361"/>
<polygon fill="#000000" stroke="#000000" points="178.3246,-54.5362 188.3245,-51.0361 178.3245,-47.5362 178.3246,-54.5362"/>
<text text-anchor="middle" x="160.4942" y="-55.2361" font-family="Times,serif" font-size="14.00" fill="#000000">b, c</text>
</g>
<!-- q5 -->
<g id="node6" class="node">
<title>q5</title>
<ellipse fill="none" stroke="#000000" cx="477.6703" cy="-120.0361" rx="20.8887" ry="20.8887"/>
<text text-anchor="middle" x="477.6703" y="-115.8361" font-family="Times,serif" font-size="14.00" fill="#000000">q5</text>
</g>
<!-- q3&#45;&gt;q5 -->
<g id="edge7" class="edge">
<title>q3&#45;&gt;q5</title>
<path fill="none" stroke="#000000" d="M413.5232,-146.0177C421.5411,-143.8385 430.7833,-141.0856 438.9768,-138.0361 442.5181,-136.7181 446.184,-135.2109 449.7844,-133.6421"/>
<polygon fill="#000000" stroke="#000000" points="451.3795,-136.7617 459.0312,-129.4335 448.4797,-130.3905 451.3795,-136.7617"/>
<text text-anchor="middle" x="435.4768" y="-144.2361" font-family="Times,serif" font-size="14.00" fill="#000000">b</text>
</g>
<!-- q5&#45;&gt;q4 -->
<g id="edge9" class="edge">
<title>q5&#45;&gt;q4</title>
<path fill="none" stroke="#000000" d="M457.3457,-114.8096C444.8586,-111.6446 428.521,-107.5857 413.9768,-104.2361 389.0072,-98.4854 360.7022,-92.4803 339.1837,-88.0206"/>
<polygon fill="#000000" stroke="#000000" points="339.7104,-84.5557 329.2096,-85.9634 338.2964,-91.4114 339.7104,-84.5557"/>
<text text-anchor="middle" x="393.2834" y="-108.2361" font-family="Times,serif" font-size="14.00" fill="#000000">c</text>
</g>
<!-- q5&#45;&gt;q3 -->
<g id="edge8" class="edge">
<title>q5&#45;&gt;q3</title>
<path fill="none" stroke="#000000" d="M457.1153,-115.2301C449.0541,-114.2476 439.8644,-114.2762 431.9768,-117.2361 425.6196,-119.6217 419.6217,-123.5773 414.3316,-127.9582"/>
<polygon fill="#000000" stroke="#000000" points="411.6383,-125.6804 406.6512,-135.0281 416.3791,-130.8306 411.6383,-125.6804"/>
<text text-anchor="middle" x="435.4768" y="-121.2361" font-family="Times,serif" font-size="14.00" fill="#000000">a</text>
</g>
<!-- q6&#45;&gt;q2 -->
<g id="edge12" class="edge">
<title>q6&#45;&gt;q2</title>
<path fill="none" stroke="#000000" d="M374.0793,-13.7694C351.2577,-5.1342 312.2376,5.8556 280.203,-4.2361 265.2977,-8.9317 250.822,-18.2619 239.1701,-27.3644"/>
<polygon fill="#000000" stroke="#000000" points="236.7336,-24.8361 231.219,-33.8827 241.1715,-30.2495 236.7336,-24.8361"/>
<text text-anchor="middle" x="304.8965" y="-9.2361" font-family="Times,serif" font-size="14.00" fill="#000000">a</text>
</g>
</g>
</svg>
