<?xml version="1.0" encoding="UTF-8" standalone="no"?>
<!DOCTYPE svg PUBLIC "-//W3C//DTD SVG 1.1//EN"
 "http://www.w3.org/Graphics/SVG/1.1/DTD/svg11.dtd">
<!-- Generated by graphviz version 2.40.1 (20161225.0304)
 -->
<!-- Title: task4_1 Pages: 1 -->
<svg width="330pt" height="276pt"
 viewBox="0.00 0.00 329.94 275.69" xmlns="http://www.w3.org/2000/svg" xmlns:xlink="http://www.w3.org/1999/xlink">
<g id="graph0" class="graph" transform="scale(1 1) rotate(0) translate(4 271.6935)">
<title>task4_1</title>
<polygon fill="#ffffff" stroke="transparent" points="-4,4 -4,-271.6935 325.9419,-271.6935 325.9419,4 -4,4"/>
<!-- q8 -->
<g id="node1" class="node">
<title>q8</title>
<ellipse fill="none" stroke="#000000" cx="27" cy="-236" rx="20.8568" ry="20.8568"/>
<ellipse fill="none" stroke="#000000" cx="27" cy="-236" rx="24.8884" ry="24.8884"/>
<text text-anchor="middle" x="27" y="-231.8" font-family="Times,serif" font-size="14.00" fill="#000000">q8</text>
</g>
<!-- q5 -->
<g id="node7" class="node">
<title>q5</title>
<ellipse fill="none" stroke="#000000" cx="132.4747" cy="-202" rx="20.8887" ry="20.8887"/>
<text text-anchor="middle" x="132.4747" y="-197.8" font-family="Times,serif" font-size="14.00" fill="#000000">q5</text>
</g>
<!-- q8&#45;&gt;q5 -->
<g id="edge9" class="edge">
<title>q8&#45;&gt;q5</title>
<path fill="none" stroke="#000000" d="M50.6706,-228.3697C66.1623,-223.3759 86.5206,-216.8134 103.052,-211.4845"/>
<polygon fill="#000000" stroke="#000000" points="104.329,-214.7502 112.7729,-208.3509 102.1814,-208.0878 104.329,-214.7502"/>
<text text-anchor="middle" x="82.8906" y="-225.2" font-family="Times,serif" font-size="14.00" fill="#000000">lmb</text>
</g>
<g id="node2" class="node">
<title></title>
</g>
<!-- q1 -->
<g id="node3" class="node">
<title>q1</title>
<ellipse fill="none" stroke="#000000" cx="132.4747" cy="-63" rx="20.8887" ry="20.8887"/>
<text text-anchor="middle" x="132.4747" y="-58.8" font-family="Times,serif" font-size="14.00" fill="#000000">q1</text>
</g>
<!-- &#45;&gt;q1 -->
<g id="edge1" class="edge">
<title>&#45;&gt;q1</title>
<path fill="none" stroke="#000000" d="M54.1004,-28.5916C66.2894,-33.449 80.8199,-39.3695 93.7812,-45 97.2469,-46.5055 100.8673,-48.1256 104.4434,-49.7548"/>
<polygon fill="#000000" stroke="#000000" points="103.1229,-53.0001 113.6689,-54.0163 106.0584,-46.6453 103.1229,-53.0001"/>
</g>
<!-- q2 -->
<g id="node4" class="node">
<title>q2</title>
<ellipse fill="none" stroke="#000000" cx="216.8616" cy="-74" rx="20.8887" ry="20.8887"/>
<text text-anchor="middle" x="216.8616" y="-69.8" font-family="Times,serif" font-size="14.00" fill="#000000">q2</text>
</g>
<!-- q1&#45;&gt;q2 -->
<g id="edge2" class="edge">
<title>q1&#45;&gt;q2</title>
<path fill="none" stroke="#000000" d="M153.3343,-65.7191C163.2468,-67.0112 175.2911,-68.5812 186.2162,-70.0053"/>
<polygon fill="#000000" stroke="#000000" points="185.8733,-73.4901 196.2418,-71.3122 186.7781,-66.5489 185.8733,-73.4901"/>
<text text-anchor="middle" x="174.6681" y="-73.2" font-family="Times,serif" font-size="14.00" fill="#000000">a</text>
</g>
<!-- q4 -->
<g id="node6" class="node">
<title>q4</title>
<ellipse fill="none" stroke="#000000" cx="27" cy="-107" rx="20.8887" ry="20.8887"/>
<text text-anchor="middle" x="27" y="-102.8" font-family="Times,serif" font-size="14.00" fill="#000000">q4</text>
</g>
<!-- q1&#45;&gt;q4 -->
<g id="edge11" class="edge">
<title>q1&#45;&gt;q4</title>
<path fill="none" stroke="#000000" d="M113.7122,-54.0189C101.3609,-49.4359 85.113,-46.0004 72,-52.2 59.5299,-58.0957 49.3552,-69.3283 41.8555,-80.0967"/>
<polygon fill="#000000" stroke="#000000" points="38.9001,-78.2216 36.4215,-88.5224 44.7828,-82.0155 38.9001,-78.2216"/>
<text text-anchor="middle" x="82.8906" y="-57.2" font-family="Times,serif" font-size="14.00" fill="#000000">lmb</text>
</g>
<!-- q3 -->
<g id="node5" class="node">
<title>q3</title>
<ellipse fill="none" stroke="#000000" cx="301.2485" cy="-107" rx="20.8887" ry="20.8887"/>
<text text-anchor="middle" x="301.2485" y="-102.8" font-family="Times,serif" font-size="14.00" fill="#000000">q3</text>
</g>
<!-- q2&#45;&gt;q3 -->
<g id="edge3" class="edge">
<title>q2&#45;&gt;q3</title>
<path fill="none" stroke="#000000" d="M236.4337,-81.6538C247.0844,-85.8188 260.4654,-91.0515 272.2995,-95.6793"/>
<polygon fill="#000000" stroke="#000000" points="271.1945,-99.0053 281.7824,-99.3877 273.7439,-92.486 271.1945,-99.0053"/>
<text text-anchor="middle" x="259.055" y="-96.2" font-family="Times,serif" font-size="14.00" fill="#000000">a</text>
</g>
<!-- q3&#45;&gt;q4 -->
<g id="edge4" class="edge">
<title>q3&#45;&gt;q4</title>
<path fill="none" stroke="#000000" d="M280.3717,-108.2769C274.6022,-108.5759 268.3379,-108.8506 262.555,-109 177.8921,-111.1866 156.6702,-110.8806 72,-109 67.6022,-108.9023 62.9645,-108.751 58.4045,-108.5743"/>
<polygon fill="#000000" stroke="#000000" points="58.1965,-105.0623 48.0554,-108.1294 57.8958,-112.0558 58.1965,-105.0623"/>
<text text-anchor="middle" x="174.6681" y="-114.2" font-family="Times,serif" font-size="14.00" fill="#000000">b</text>
</g>
<!-- q4&#45;&gt;q1 -->
<g id="edge12" class="edge">
<title>q4&#45;&gt;q1</title>
<path fill="none" stroke="#000000" d="M46.3457,-98.9297C62.4774,-92.2002 85.6905,-82.5166 103.954,-74.8977"/>
<polygon fill="#000000" stroke="#000000" points="105.37,-78.0994 113.2516,-71.0191 102.6749,-71.639 105.37,-78.0994"/>
<text text-anchor="middle" x="82.8906" y="-92.2" font-family="Times,serif" font-size="14.00" fill="#000000">lmb</text>
</g>
<!-- q4&#45;&gt;q5 -->
<g id="edge5" class="edge">
<title>q4&#45;&gt;q5</title>
<path fill="none" stroke="#000000" d="M42.5631,-121.0176C60.1679,-136.8741 89.0178,-162.8588 109.2793,-181.1082"/>
<polygon fill="#000000" stroke="#000000" points="107.0749,-183.833 116.8477,-187.9249 111.7596,-178.6318 107.0749,-183.833"/>
<text text-anchor="middle" x="82.8906" y="-169.2" font-family="Times,serif" font-size="14.00" fill="#000000">b</text>
</g>
<!-- q5&#45;&gt;q8 -->
<g id="edge10" class="edge">
<title>q5&#45;&gt;q8</title>
<path fill="none" stroke="#000000" d="M113.0829,-194.2313C100.9144,-190.5435 85.1033,-187.9637 72,-193.2 63.5085,-196.5933 55.7044,-202.4359 49.0641,-208.7324"/>
<polygon fill="#000000" stroke="#000000" points="46.2664,-206.5907 41.8321,-216.213 51.2991,-211.4561 46.2664,-206.5907"/>
<text text-anchor="middle" x="82.8906" y="-197.2" font-family="Times,serif" font-size="14.00" fill="#000000">lmb</text>
</g>
<!-- q6 -->
<g id="node8" class="node">
<title>q6</title>
<ellipse fill="none" stroke="#000000" cx="216.8616" cy="-216" rx="20.8887" ry="20.8887"/>
<text text-anchor="middle" x="216.8616" y="-211.8" font-family="Times,serif" font-size="14.00" fill="#000000">q6</text>
</g>
<!-- q5&#45;&gt;q6 -->
<g id="edge6" class="edge">
<title>q5&#45;&gt;q6</title>
<path fill="none" stroke="#000000" d="M152.9024,-205.389C162.8829,-207.0448 175.1009,-209.0718 186.1741,-210.9089"/>
<polygon fill="#000000" stroke="#000000" points="185.8915,-214.4097 196.3295,-212.5937 187.0372,-207.5041 185.8915,-214.4097"/>
<text text-anchor="middle" x="174.6681" y="-213.2" font-family="Times,serif" font-size="14.00" fill="#000000">a</text>
</g>
<!-- q7 -->
<g id="node9" class="node">
<title>q7</title>
<ellipse fill="none" stroke="#000000" cx="301.2485" cy="-247" rx="20.8887" ry="20.8887"/>
<text text-anchor="middle" x="301.2485" y="-242.8" font-family="Times,serif" font-size="14.00" fill="#000000">q7</text>
</g>
<!-- q6&#45;&gt;q7 -->
<g id="edge7" class="edge">
<title>q6&#45;&gt;q7</title>
<path fill="none" stroke="#000000" d="M236.4337,-223.1899C247.0844,-227.1025 260.4654,-232.0181 272.2995,-236.3654"/>
<polygon fill="#000000" stroke="#000000" points="271.1889,-239.6861 281.7824,-239.849 273.6027,-233.1154 271.1889,-239.6861"/>
<text text-anchor="middle" x="259.055" y="-236.2" font-family="Times,serif" font-size="14.00" fill="#000000">b</text>
</g>
<!-- q7&#45;&gt;q8 -->
<g id="edge8" class="edge">
<title>q7&#45;&gt;q8</title>
<path fill="none" stroke="#000000" d="M280.8342,-250.7666C274.9555,-251.6877 268.5195,-252.5403 262.555,-253 259.4531,-253.2391 258.6647,-253.0931 255.555,-253 173.8652,-250.5545 153.3485,-249.8503 72,-242 68.705,-241.682 65.28,-241.3069 61.8562,-240.9019"/>
<polygon fill="#000000" stroke="#000000" points="62.0793,-237.4024 51.7202,-239.6247 61.2041,-244.3475 62.0793,-237.4024"/>
<text text-anchor="middle" x="174.6681" y="-254.2" font-family="Times,serif" font-size="14.00" fill="#000000">a</text>
</g>
</g>
</svg>
