<?xml version="1.0" encoding="UTF-8" standalone="no"?>
<!DOCTYPE svg PUBLIC "-//W3C//DTD SVG 1.1//EN"
 "http://www.w3.org/Graphics/SVG/1.1/DTD/svg11.dtd">
<!-- Generated by graphviz version 2.40.1 (20161225.0304)
 -->
<!-- Title: task2_2_tmp_1 Pages: 1 -->
<svg width="160pt" height="118pt"
 viewBox="0.00 0.00 159.60 117.69" xmlns="http://www.w3.org/2000/svg" xmlns:xlink="http://www.w3.org/1999/xlink">
<g id="graph0" class="graph" transform="scale(1 1) rotate(0) translate(4 113.6935)">
<title>task2_2_tmp_1</title>
<polygon fill="#ffffff" stroke="transparent" points="-4,4 -4,-113.6935 155.6015,-113.6935 155.6015,4 -4,4"/>
<!-- q6 -->
<g id="node1" class="node">
<title>q6</title>
<ellipse fill="none" stroke="#000000" cx="124.6015" cy="-85" rx="20.8568" ry="20.8568"/>
<ellipse fill="none" stroke="#000000" cx="124.6015" cy="-85" rx="24.8884" ry="24.8884"/>
<text text-anchor="middle" x="124.6015" y="-80.8" font-family="Times,serif" font-size="14.00" fill="#000000">q6</text>
</g>
<!-- q5 -->
<g id="node3" class="node">
<title>q5</title>
<ellipse fill="none" stroke="#000000" cx="20.6935" cy="-51" rx="20.8887" ry="20.8887"/>
<text text-anchor="middle" x="20.6935" y="-46.8" font-family="Times,serif" font-size="14.00" fill="#000000">q5</text>
</g>
<!-- q6&#45;&gt;q5 -->
<g id="edge3" class="edge">
<title>q6&#45;&gt;q5</title>
<path fill="none" stroke="#000000" d="M100.1155,-80.1787C87.7389,-77.4445 72.5847,-73.6389 59.3869,-69 55.8222,-67.747 52.1421,-66.2789 48.5341,-64.731"/>
<polygon fill="#000000" stroke="#000000" points="49.834,-61.4776 39.2806,-60.5407 46.9464,-67.8543 49.834,-61.4776"/>
<text text-anchor="middle" x="69.4942" y="-79.2" font-family="Times,serif" font-size="14.00" fill="#000000">a, b</text>
</g>
<g id="node2" class="node">
<title></title>
</g>
<!-- &#45;&gt;q5 -->
<g id="edge1" class="edge">
<title>&#45;&gt;q5</title>
<path fill="none" stroke="#000000" d="M97.5429,-22.2703C85.654,-24.5377 71.6399,-27.7488 59.3869,-32 55.5977,-33.3147 51.6991,-34.9117 47.9031,-36.6151"/>
<polygon fill="#000000" stroke="#000000" points="46.3108,-33.4969 38.7991,-40.9685 49.3307,-39.812 46.3108,-33.4969"/>
</g>
<!-- q5&#45;&gt;q6 -->
<g id="edge2" class="edge">
<title>q5&#45;&gt;q6</title>
<path fill="none" stroke="#000000" d="M41.389,-48.4292C52.9266,-47.7281 67.3879,-48.0831 79.6015,-52.2 86.126,-54.3992 92.503,-57.9133 98.3096,-61.8405"/>
<polygon fill="#000000" stroke="#000000" points="96.2361,-64.6601 106.3597,-67.7848 100.3942,-59.029 96.2361,-64.6601"/>
<text text-anchor="middle" x="69.4942" y="-57.2" font-family="Times,serif" font-size="14.00" fill="#000000">a, b</text>
</g>
</g>
</svg>
