<?xml version="1.0" encoding="UTF-8" standalone="no"?>
<!DOCTYPE svg PUBLIC "-//W3C//DTD SVG 1.1//EN"
 "http://www.w3.org/Graphics/SVG/1.1/DTD/svg11.dtd">
<!-- Generated by graphviz version 2.40.1 (20161225.0304)
 -->
<!-- Title: task3_3_nka Pages: 1 -->
<svg width="344pt" height="92pt"
 viewBox="0.00 0.00 343.59 92.39" xmlns="http://www.w3.org/2000/svg" xmlns:xlink="http://www.w3.org/1999/xlink">
<g id="graph0" class="graph" transform="scale(1 1) rotate(0) translate(4 88.3869)">
<title>task3_3_nka</title>
<polygon fill="#ffffff" stroke="transparent" points="-4,4 -4,-88.3869 339.5899,-88.3869 339.5899,4 -4,4"/>
<!-- q1 -->
<g id="node1" class="node">
<title>q1</title>
<ellipse fill="none" stroke="#000000" cx="115.6935" cy="-24.6935" rx="20.8568" ry="20.8568"/>
<ellipse fill="none" stroke="#000000" cx="115.6935" cy="-24.6935" rx="24.8884" ry="24.8884"/>
<text text-anchor="middle" x="115.6935" y="-20.4935" font-family="Times,serif" font-size="14.00" fill="#000000">q1</text>
</g>
<!-- q1&#45;&gt;q1 -->
<g id="edge2" class="edge">
<title>q1&#45;&gt;q1</title>
<path fill="none" stroke="#000000" d="M107.9127,-48.4015C107.2756,-58.6297 109.8692,-67.3869 115.6935,-67.3869 119.4246,-67.3869 121.8299,-63.7929 122.9093,-58.5207"/>
<polygon fill="#000000" stroke="#000000" points="126.4113,-58.5811 123.4742,-48.4015 119.4222,-58.1908 126.4113,-58.5811"/>
<text text-anchor="middle" x="115.6935" y="-71.5869" font-family="Times,serif" font-size="14.00" fill="#000000">a</text>
</g>
<!-- q2 -->
<g id="node3" class="node">
<title>q2</title>
<ellipse fill="none" stroke="#000000" cx="217.295" cy="-63.6935" rx="20.8887" ry="20.8887"/>
<text text-anchor="middle" x="217.295" y="-59.4935" font-family="Times,serif" font-size="14.00" fill="#000000">q2</text>
</g>
<!-- q1&#45;&gt;q2 -->
<g id="edge3" class="edge">
<title>q1&#45;&gt;q2</title>
<path fill="none" stroke="#000000" d="M138.7484,-33.5432C153.3489,-39.1476 172.3602,-46.4451 188.022,-52.4569"/>
<polygon fill="#000000" stroke="#000000" points="187.1602,-55.8751 197.7503,-56.1912 189.6687,-49.34 187.1602,-55.8751"/>
<text text-anchor="middle" x="168.4942" y="-52.8935" font-family="Times,serif" font-size="14.00" fill="#000000">a, b</text>
</g>
<g id="node2" class="node">
<title></title>
</g>
<!-- &#45;&gt;q1 -->
<g id="edge1" class="edge">
<title>&#45;&gt;q1</title>
<path fill="none" stroke="#000000" d="M54.0929,-24.6935C62.5145,-24.6935 71.9196,-24.6935 80.7952,-24.6935"/>
<polygon fill="#000000" stroke="#000000" points="80.8805,-28.1936 90.8805,-24.6935 80.8805,-21.1936 80.8805,-28.1936"/>
</g>
<!-- q3 -->
<g id="node4" class="node">
<title>q3</title>
<ellipse fill="none" stroke="#000000" cx="314.8965" cy="-24.6935" rx="20.8887" ry="20.8887"/>
<text text-anchor="middle" x="314.8965" y="-20.4935" font-family="Times,serif" font-size="14.00" fill="#000000">q3</text>
</g>
<!-- q2&#45;&gt;q3 -->
<g id="edge4" class="edge">
<title>q2&#45;&gt;q3</title>
<path fill="none" stroke="#000000" d="M236.5779,-55.9883C250.7478,-50.3262 270.2362,-42.539 286.2275,-36.1491"/>
<polygon fill="#000000" stroke="#000000" points="287.6662,-39.3434 295.6536,-32.3826 285.0688,-32.8431 287.6662,-39.3434"/>
<text text-anchor="middle" x="266.0957" y="-50.8935" font-family="Times,serif" font-size="14.00" fill="#000000">a, b</text>
</g>
<!-- q3&#45;&gt;q1 -->
<g id="edge5" class="edge">
<title>q3&#45;&gt;q1</title>
<path fill="none" stroke="#000000" d="M294.049,-22.0035C278.6025,-20.1507 257.0213,-17.8561 237.9884,-16.8935 219.6177,-15.9643 214.9745,-16.0099 196.6015,-16.8935 181.5503,-17.6173 164.9785,-19.0944 150.7733,-20.5704"/>
<polygon fill="#000000" stroke="#000000" points="150.0027,-17.1331 140.4362,-21.6864 150.7542,-24.0927 150.0027,-17.1331"/>
<text text-anchor="middle" x="217.295" y="-21.8935" font-family="Times,serif" font-size="14.00" fill="#000000">b</text>
</g>
</g>
</svg>
