<?xml version="1.0" encoding="UTF-8" standalone="no"?>
<!DOCTYPE svg PUBLIC "-//W3C//DTD SVG 1.1//EN"
 "http://www.w3.org/Graphics/SVG/1.1/DTD/svg11.dtd">
<!-- Generated by graphviz version 2.40.1 (20161225.0304)
 -->
<!-- Title: task2_4 Pages: 1 -->
<svg width="626pt" height="286pt"
 viewBox="0.00 0.00 626.42 285.80" xmlns="http://www.w3.org/2000/svg" xmlns:xlink="http://www.w3.org/1999/xlink">
<g id="graph0" class="graph" transform="scale(1 1) rotate(0) translate(4 281.8)">
<title>task2_4</title>
<polygon fill="#ffffff" stroke="transparent" points="-4,4 -4,-281.8 622.4194,-281.8 622.4194,4 -4,4"/>
<!-- q2q5 -->
<g id="node1" class="node">
<title>q2q5</title>
<ellipse fill="none" stroke="#000000" cx="584.069" cy="-99" rx="30.2188" ry="30.2188"/>
<ellipse fill="none" stroke="#000000" cx="584.069" cy="-99" rx="34.2014" ry="34.2014"/>
<text text-anchor="middle" x="584.069" y="-94.8" font-family="Times,serif" font-size="14.00" fill="#000000">q2q5</text>
</g>
<!-- q2q3 -->
<g id="node3" class="node">
<title>q2q3</title>
<ellipse fill="none" stroke="#000000" cx="472.3682" cy="-202" rx="30.2188" ry="30.2188"/>
<ellipse fill="none" stroke="#000000" cx="472.3682" cy="-202" rx="34.2014" ry="34.2014"/>
<text text-anchor="middle" x="472.3682" y="-197.8" font-family="Times,serif" font-size="14.00" fill="#000000">q2q3</text>
</g>
<!-- q2q5&#45;&gt;q2q3 -->
<g id="edge13" class="edge">
<title>q2q5&#45;&gt;q2q3</title>
<path fill="none" stroke="#000000" d="M558.7223,-122.3723C542.9813,-136.8872 522.577,-155.7021 505.5551,-171.3981"/>
<polygon fill="#000000" stroke="#000000" points="502.9801,-169.0116 498.0012,-178.3637 507.7254,-174.1577 502.9801,-169.0116"/>
<text text-anchor="middle" x="528.2186" y="-157.2" font-family="Times,serif" font-size="14.00" fill="#000000">b</text>
</g>
<!-- q1q5 -->
<g id="node4" class="node">
<title>q1q5</title>
<ellipse fill="none" stroke="#000000" cx="138.0512" cy="-88" rx="30.2188" ry="30.2188"/>
<ellipse fill="none" stroke="#000000" cx="138.0512" cy="-88" rx="34.2014" ry="34.2014"/>
<text text-anchor="middle" x="138.0512" y="-83.8" font-family="Times,serif" font-size="14.00" fill="#000000">q1q5</text>
</g>
<!-- q2q5&#45;&gt;q1q5 -->
<g id="edge12" class="edge">
<title>q2q5&#45;&gt;q1q5</title>
<path fill="none" stroke="#000000" d="M562.2046,-72.4189C541.5745,-50.5027 508.4897,-23 472.3682,-23 472.3682,-23 472.3682,-23 249.752,-23 220.2387,-23 191.564,-40.161 170.658,-56.8475"/>
<polygon fill="#000000" stroke="#000000" points="168.2034,-54.337 162.7595,-63.4263 172.6833,-59.7157 168.2034,-54.337"/>
<text text-anchor="middle" x="360.6674" y="-27.2" font-family="Times,serif" font-size="14.00" fill="#000000">a</text>
</g>
<!-- q2q4 -->
<g id="node2" class="node">
<title>q2q4</title>
<ellipse fill="none" stroke="#000000" cx="360.6674" cy="-146" rx="30.2188" ry="30.2188"/>
<ellipse fill="none" stroke="#000000" cx="360.6674" cy="-146" rx="34.2014" ry="34.2014"/>
<text text-anchor="middle" x="360.6674" y="-141.8" font-family="Times,serif" font-size="14.00" fill="#000000">q2q4</text>
</g>
<!-- q2q4&#45;&gt;q2q5 -->
<g id="edge11" class="edge">
<title>q2q4&#45;&gt;q2q5</title>
<path fill="none" stroke="#000000" d="M394.5499,-138.8717C433.5155,-130.674 497.5923,-117.1933 540.3028,-108.2077"/>
<polygon fill="#000000" stroke="#000000" points="541.0739,-111.6222 550.1391,-106.1383 539.6327,-104.7721 541.0739,-111.6222"/>
<text text-anchor="middle" x="472.3682" y="-133.2" font-family="Times,serif" font-size="14.00" fill="#000000">b</text>
</g>
<!-- q1q4 -->
<g id="node5" class="node">
<title>q1q4</title>
<ellipse fill="none" stroke="#000000" cx="249.752" cy="-138" rx="30.2188" ry="30.2188"/>
<ellipse fill="none" stroke="#000000" cx="249.752" cy="-138" rx="34.2014" ry="34.2014"/>
<text text-anchor="middle" x="249.752" y="-133.8" font-family="Times,serif" font-size="14.00" fill="#000000">q1q4</text>
</g>
<!-- q2q4&#45;&gt;q1q4 -->
<g id="edge10" class="edge">
<title>q2q4&#45;&gt;q1q4</title>
<path fill="none" stroke="#000000" d="M326.1811,-143.5126C316.0609,-142.7827 304.848,-141.9739 294.1994,-141.2059"/>
<polygon fill="#000000" stroke="#000000" points="294.4429,-137.7144 284.217,-140.4859 293.9393,-144.6963 294.4429,-137.7144"/>
<text text-anchor="middle" x="305.2097" y="-146.2" font-family="Times,serif" font-size="14.00" fill="#000000">a</text>
</g>
<!-- q2q3&#45;&gt;q2q4 -->
<g id="edge9" class="edge">
<title>q2q3&#45;&gt;q2q4</title>
<path fill="none" stroke="#000000" d="M441.5498,-186.5495C428.8526,-180.1839 413.979,-172.7272 400.4733,-165.9563"/>
<polygon fill="#000000" stroke="#000000" points="401.8933,-162.753 391.3852,-161.4001 398.7561,-169.0106 401.8933,-162.753"/>
<text text-anchor="middle" x="416.5178" y="-179.2" font-family="Times,serif" font-size="14.00" fill="#000000">b</text>
</g>
<!-- q1q3 -->
<g id="node7" class="node">
<title>q1q3</title>
<ellipse fill="none" stroke="#000000" cx="30.3504" cy="-158" rx="30.2015" ry="30.2015"/>
<text text-anchor="middle" x="30.3504" y="-153.8" font-family="Times,serif" font-size="14.00" fill="#000000">q1q3</text>
</g>
<!-- q2q3&#45;&gt;q1q3 -->
<g id="edge8" class="edge">
<title>q2q3&#45;&gt;q1q3</title>
<path fill="none" stroke="#000000" d="M446.3958,-224.9799C424.9519,-241.5461 392.9066,-261 360.6674,-261 360.6674,-261 360.6674,-261 138.0512,-261 98.3088,-261 67.4831,-223.9155 49.1825,-194.2506"/>
<polygon fill="#000000" stroke="#000000" points="52.0115,-192.1583 43.9091,-185.3317 45.9859,-195.721 52.0115,-192.1583"/>
<text text-anchor="middle" x="249.752" y="-265.2" font-family="Times,serif" font-size="14.00" fill="#000000">a</text>
</g>
<!-- q1q5&#45;&gt;q2q5 -->
<g id="edge6" class="edge">
<title>q1q5&#45;&gt;q2q5</title>
<path fill="none" stroke="#000000" d="M172.1705,-82.4216C194.2371,-79.2878 223.6165,-76 249.752,-76 472.3682,-76 472.3682,-76 472.3682,-76 495.5086,-76 520.8018,-80.7939 541.4589,-86.0045"/>
<polygon fill="#000000" stroke="#000000" points="540.6353,-89.4069 551.1975,-88.5767 542.4229,-82.639 540.6353,-89.4069"/>
<text text-anchor="middle" x="360.6674" y="-80.2" font-family="Times,serif" font-size="14.00" fill="#000000">a</text>
</g>
<!-- q1q5&#45;&gt;q1q3 -->
<g id="edge7" class="edge">
<title>q1q5&#45;&gt;q1q3</title>
<path fill="none" stroke="#000000" d="M109.1894,-106.7587C95.4638,-115.6796 78.9554,-126.4093 64.5993,-135.74"/>
<polygon fill="#000000" stroke="#000000" points="62.4601,-132.956 55.9828,-141.3402 66.2748,-138.8252 62.4601,-132.956"/>
<text text-anchor="middle" x="82.2008" y="-130.2" font-family="Times,serif" font-size="14.00" fill="#000000">b</text>
</g>
<!-- q1q4&#45;&gt;q2q4 -->
<g id="edge4" class="edge">
<title>q1q4&#45;&gt;q2q4</title>
<path fill="none" stroke="#000000" d="M281.5539,-124.578C290.2021,-122.403 299.5902,-121.3821 308.317,-123.2 312.4112,-124.0529 316.5777,-125.2439 320.6815,-126.6383"/>
<polygon fill="#000000" stroke="#000000" points="319.4882,-129.9289 330.0796,-130.198 321.9678,-123.3828 319.4882,-129.9289"/>
<text text-anchor="middle" x="305.2097" y="-128.2" font-family="Times,serif" font-size="14.00" fill="#000000">a</text>
</g>
<!-- q1q4&#45;&gt;q1q5 -->
<g id="edge5" class="edge">
<title>q1q4&#45;&gt;q1q5</title>
<path fill="none" stroke="#000000" d="M218.3398,-123.9392C206.0856,-118.4538 191.8761,-112.0933 178.8477,-106.2615"/>
<polygon fill="#000000" stroke="#000000" points="180.1719,-103.0197 169.6146,-102.1285 177.3119,-109.4088 180.1719,-103.0197"/>
<text text-anchor="middle" x="193.9016" y="-119.2" font-family="Times,serif" font-size="14.00" fill="#000000">b</text>
</g>
<g id="node6" class="node">
<title></title>
</g>
<!-- &#45;&gt;q1q3 -->
<g id="edge1" class="edge">
<title>&#45;&gt;q1q3</title>
<path fill="none" stroke="#000000" d="M112.8012,-36.2538C109.5888,-39.026 106.4633,-41.9757 103.7008,-45 82.3946,-68.325 63.1521,-98.4936 49.7269,-121.7911"/>
<polygon fill="#000000" stroke="#000000" points="46.579,-120.2471 44.6968,-130.6735 52.6701,-123.6965 46.579,-120.2471"/>
</g>
<!-- q1q3&#45;&gt;q2q3 -->
<g id="edge2" class="edge">
<title>q1q3&#45;&gt;q2q3</title>
<path fill="none" stroke="#000000" d="M54.5496,-176.6182C75.4676,-190.8339 107.129,-208 138.0512,-208 360.6674,-208 360.6674,-208 360.6674,-208 382.6626,-208 407.059,-206.8256 427.4268,-205.516"/>
<polygon fill="#000000" stroke="#000000" points="427.935,-208.9897 437.6766,-204.8243 427.4636,-202.0056 427.935,-208.9897"/>
<text text-anchor="middle" x="249.752" y="-212.2" font-family="Times,serif" font-size="14.00" fill="#000000">a</text>
</g>
<!-- q1q3&#45;&gt;q1q4 -->
<g id="edge3" class="edge">
<title>q1q3&#45;&gt;q1q4</title>
<path fill="none" stroke="#000000" d="M60.8572,-155.2191C98.3651,-151.8 162.3207,-145.97 205.295,-142.0526"/>
<polygon fill="#000000" stroke="#000000" points="205.8295,-145.5184 215.4705,-141.125 205.194,-138.5473 205.8295,-145.5184"/>
<text text-anchor="middle" x="138.0512" y="-155.2" font-family="Times,serif" font-size="14.00" fill="#000000">b</text>
</g>
</g>
</svg>
