<?xml version="1.0" encoding="UTF-8" standalone="no"?>
<!DOCTYPE svg PUBLIC "-//W3C//DTD SVG 1.1//EN"
 "http://www.w3.org/Graphics/SVG/1.1/DTD/svg11.dtd">
<!-- Generated by graphviz version 2.40.1 (20161225.0304)
 -->
<!-- Title: task1_2 Pages: 1 -->
<svg width="599pt" height="269pt"
 viewBox="0.00 0.00 598.50 268.70" xmlns="http://www.w3.org/2000/svg" xmlns:xlink="http://www.w3.org/1999/xlink">
<g id="graph0" class="graph" transform="scale(1 1) rotate(0) translate(4 264.7008)">
<title>task1_2</title>
<polygon fill="#ffffff" stroke="transparent" points="-4,4 -4,-264.7008 594.504,-264.7008 594.504,4 -4,4"/>
<!-- q1q6 -->
<g id="node1" class="node">
<title>q1q6</title>
<ellipse fill="none" stroke="#000000" cx="332.752" cy="-34.3504" rx="30.2188" ry="30.2188"/>
<ellipse fill="none" stroke="#000000" cx="332.752" cy="-34.3504" rx="34.2014" ry="34.2014"/>
<text text-anchor="middle" x="332.752" y="-30.1504" font-family="Times,serif" font-size="14.00" fill="#000000">q1q6</text>
</g>
<!-- q1q6&#45;&gt;q1q6 -->
<g id="edge7" class="edge">
<title>q1q6&#45;&gt;q1q6</title>
<path fill="none" stroke="#000000" d="M322.6276,-67.3246C322.6799,-78.1115 326.0547,-86.7008 332.752,-86.7008 337.1471,-86.7008 340.1113,-83.0017 341.6446,-77.4099"/>
<polygon fill="#000000" stroke="#000000" points="345.1382,-77.6752 342.8764,-67.3246 338.1898,-76.8265 345.1382,-77.6752"/>
<text text-anchor="middle" x="332.752" y="-90.9008" font-family="Times,serif" font-size="14.00" fill="#000000">b</text>
</g>
<!-- q2q6 -->
<g id="node2" class="node">
<title>q2q6</title>
<ellipse fill="none" stroke="#000000" cx="444.4528" cy="-55.3504" rx="30.2188" ry="30.2188"/>
<ellipse fill="none" stroke="#000000" cx="444.4528" cy="-55.3504" rx="34.2014" ry="34.2014"/>
<text text-anchor="middle" x="444.4528" y="-51.1504" font-family="Times,serif" font-size="14.00" fill="#000000">q2q6</text>
</g>
<!-- q1q6&#45;&gt;q2q6 -->
<g id="edge6" class="edge">
<title>q1q6&#45;&gt;q2q6</title>
<path fill="none" stroke="#000000" d="M366.569,-40.7081C377.1881,-42.7045 389.0727,-44.9388 400.2974,-47.0491"/>
<polygon fill="#000000" stroke="#000000" points="399.8906,-50.5339 410.3652,-48.9419 401.1841,-43.6544 399.8906,-50.5339"/>
<text text-anchor="middle" x="388.6024" y="-50.5504" font-family="Times,serif" font-size="14.00" fill="#000000">a</text>
</g>
<!-- q2q6&#45;&gt;q2q6 -->
<g id="edge13" class="edge">
<title>q2q6&#45;&gt;q2q6</title>
<path fill="none" stroke="#000000" d="M434.3284,-88.3246C434.3807,-99.1115 437.7555,-107.7008 444.4528,-107.7008 448.8479,-107.7008 451.8121,-104.0017 453.3454,-98.4099"/>
<polygon fill="#000000" stroke="#000000" points="456.8389,-98.6752 454.5772,-88.3246 449.8906,-97.8265 456.8389,-98.6752"/>
<text text-anchor="middle" x="444.4528" y="-111.9008" font-family="Times,serif" font-size="14.00" fill="#000000">b</text>
</g>
<!-- q3q6 -->
<g id="node3" class="node">
<title>q3q6</title>
<ellipse fill="none" stroke="#000000" cx="556.1536" cy="-113.3504" rx="30.2188" ry="30.2188"/>
<ellipse fill="none" stroke="#000000" cx="556.1536" cy="-113.3504" rx="34.2014" ry="34.2014"/>
<text text-anchor="middle" x="556.1536" y="-109.1504" font-family="Times,serif" font-size="14.00" fill="#000000">q3q6</text>
</g>
<!-- q2q6&#45;&gt;q3q6 -->
<g id="edge12" class="edge">
<title>q2q6&#45;&gt;q3q6</title>
<path fill="none" stroke="#000000" d="M474.9755,-71.1992C487.7814,-77.8486 502.8412,-85.6683 516.4895,-92.7551"/>
<polygon fill="#000000" stroke="#000000" points="515.1799,-96.0187 525.6677,-97.5208 518.4057,-89.8063 515.1799,-96.0187"/>
<text text-anchor="middle" x="500.3032" y="-90.5504" font-family="Times,serif" font-size="14.00" fill="#000000">a</text>
</g>
<!-- q3q6&#45;&gt;q3q6 -->
<g id="edge16" class="edge">
<title>q3q6&#45;&gt;q3q6</title>
<path fill="none" stroke="#000000" d="M546.0292,-146.3246C546.0815,-157.1115 549.4563,-165.7008 556.1536,-165.7008 560.5487,-165.7008 563.5129,-162.0017 565.0462,-156.4099"/>
<polygon fill="#000000" stroke="#000000" points="568.5397,-156.6752 566.278,-146.3246 561.5914,-155.8265 568.5397,-156.6752"/>
<text text-anchor="middle" x="556.1536" y="-169.9008" font-family="Times,serif" font-size="14.00" fill="#000000">b</text>
</g>
<g id="node4" class="node">
<title></title>
</g>
<!-- q1q4 -->
<g id="node5" class="node">
<title>q1q4</title>
<ellipse fill="none" stroke="#000000" cx="121.3504" cy="-136.3504" rx="30.2015" ry="30.2015"/>
<text text-anchor="middle" x="121.3504" y="-132.1504" font-family="Times,serif" font-size="14.00" fill="#000000">q1q4</text>
</g>
<!-- &#45;&gt;q1q4 -->
<g id="edge1" class="edge">
<title>&#45;&gt;q1q4</title>
<path fill="none" stroke="#000000" d="M54.037,-136.3504C62.4246,-136.3504 71.8578,-136.3504 80.9483,-136.3504"/>
<polygon fill="#000000" stroke="#000000" points="80.9923,-139.8505 90.9922,-136.3504 80.9922,-132.8505 80.9923,-139.8505"/>
</g>
<!-- q2q4 -->
<g id="node6" class="node">
<title>q2q4</title>
<ellipse fill="none" stroke="#000000" cx="225.0512" cy="-176.3504" rx="30.2015" ry="30.2015"/>
<text text-anchor="middle" x="225.0512" y="-172.1504" font-family="Times,serif" font-size="14.00" fill="#000000">q2q4</text>
</g>
<!-- q1q4&#45;&gt;q2q4 -->
<g id="edge2" class="edge">
<title>q1q4&#45;&gt;q2q4</title>
<path fill="none" stroke="#000000" d="M149.6871,-147.2806C161.1383,-151.6976 174.5307,-156.8634 186.8236,-161.6051"/>
<polygon fill="#000000" stroke="#000000" points="185.7988,-164.9611 196.3884,-165.2945 188.318,-158.4301 185.7988,-164.9611"/>
<text text-anchor="middle" x="173.2008" y="-162.5504" font-family="Times,serif" font-size="14.00" fill="#000000">a</text>
</g>
<!-- q1q5 -->
<g id="node7" class="node">
<title>q1q5</title>
<ellipse fill="none" stroke="#000000" cx="225.0512" cy="-97.3504" rx="30.2015" ry="30.2015"/>
<text text-anchor="middle" x="225.0512" y="-93.1504" font-family="Times,serif" font-size="14.00" fill="#000000">q1q5</text>
</g>
<!-- q1q4&#45;&gt;q1q5 -->
<g id="edge3" class="edge">
<title>q1q4&#45;&gt;q1q5</title>
<path fill="none" stroke="#000000" d="M149.9616,-125.5902C161.4094,-121.2849 174.7628,-116.263 187.0081,-111.6577"/>
<polygon fill="#000000" stroke="#000000" points="188.4055,-114.8716 196.5334,-108.0754 185.9413,-108.3196 188.4055,-114.8716"/>
<text text-anchor="middle" x="173.2008" y="-122.5504" font-family="Times,serif" font-size="14.00" fill="#000000">b</text>
</g>
<!-- q2q5 -->
<g id="node8" class="node">
<title>q2q5</title>
<ellipse fill="none" stroke="#000000" cx="332.752" cy="-151.3504" rx="30.2015" ry="30.2015"/>
<text text-anchor="middle" x="332.752" y="-147.1504" font-family="Times,serif" font-size="14.00" fill="#000000">q2q5</text>
</g>
<!-- q2q4&#45;&gt;q2q5 -->
<g id="edge9" class="edge">
<title>q2q4&#45;&gt;q2q5</title>
<path fill="none" stroke="#000000" d="M254.766,-169.4529C266.6554,-166.693 280.5238,-163.4738 293.2414,-160.5218"/>
<polygon fill="#000000" stroke="#000000" points="294.1846,-163.896 303.1341,-158.2254 292.6017,-157.0773 294.1846,-163.896"/>
<text text-anchor="middle" x="276.9016" y="-169.5504" font-family="Times,serif" font-size="14.00" fill="#000000">b</text>
</g>
<!-- q3q4 -->
<g id="node9" class="node">
<title>q3q4</title>
<ellipse fill="none" stroke="#000000" cx="332.752" cy="-230.3504" rx="30.2015" ry="30.2015"/>
<text text-anchor="middle" x="332.752" y="-226.1504" font-family="Times,serif" font-size="14.00" fill="#000000">q3q4</text>
</g>
<!-- q2q4&#45;&gt;q3q4 -->
<g id="edge8" class="edge">
<title>q2q4&#45;&gt;q3q4</title>
<path fill="none" stroke="#000000" d="M252.2286,-189.9769C265.6216,-196.6919 281.9594,-204.8835 296.4097,-212.1288"/>
<polygon fill="#000000" stroke="#000000" points="295.0752,-215.3749 305.5832,-216.7283 298.2127,-209.1174 295.0752,-215.3749"/>
<text text-anchor="middle" x="276.9016" y="-207.5504" font-family="Times,serif" font-size="14.00" fill="#000000">a</text>
</g>
<!-- q1q5&#45;&gt;q1q6 -->
<g id="edge5" class="edge">
<title>q1q5&#45;&gt;q1q6</title>
<path fill="none" stroke="#000000" d="M251.3978,-81.9389C264.169,-74.4683 279.7614,-65.3475 293.866,-57.0969"/>
<polygon fill="#000000" stroke="#000000" points="296.0109,-59.8971 302.8754,-51.8269 292.4764,-53.8549 296.0109,-59.8971"/>
<text text-anchor="middle" x="276.9016" y="-72.5504" font-family="Times,serif" font-size="14.00" fill="#000000">b</text>
</g>
<!-- q1q5&#45;&gt;q2q5 -->
<g id="edge4" class="edge">
<title>q1q5&#45;&gt;q2q5</title>
<path fill="none" stroke="#000000" d="M252.2286,-110.9769C265.6216,-117.6919 281.9594,-125.8835 296.4097,-133.1288"/>
<polygon fill="#000000" stroke="#000000" points="295.0752,-136.3749 305.5832,-137.7283 298.2127,-130.1174 295.0752,-136.3749"/>
<text text-anchor="middle" x="276.9016" y="-128.5504" font-family="Times,serif" font-size="14.00" fill="#000000">a</text>
</g>
<!-- q2q5&#45;&gt;q2q6 -->
<g id="edge11" class="edge">
<title>q2q5&#45;&gt;q2q6</title>
<path fill="none" stroke="#000000" d="M355.8965,-131.4591C371.6343,-117.9334 392.7218,-99.81 410.371,-84.6416"/>
<polygon fill="#000000" stroke="#000000" points="412.9039,-87.0798 418.2066,-77.9074 408.3413,-81.771 412.9039,-87.0798"/>
<text text-anchor="middle" x="388.6024" y="-110.5504" font-family="Times,serif" font-size="14.00" fill="#000000">b</text>
</g>
<!-- q3q5 -->
<g id="node10" class="node">
<title>q3q5</title>
<ellipse fill="none" stroke="#000000" cx="444.4528" cy="-172.3504" rx="30.2015" ry="30.2015"/>
<text text-anchor="middle" x="444.4528" y="-168.1504" font-family="Times,serif" font-size="14.00" fill="#000000">q3q5</text>
</g>
<!-- q2q5&#45;&gt;q3q5 -->
<g id="edge10" class="edge">
<title>q2q5&#45;&gt;q3q5</title>
<path fill="none" stroke="#000000" d="M362.6857,-156.978C375.4569,-159.379 390.5512,-162.2168 404.2725,-164.7964"/>
<polygon fill="#000000" stroke="#000000" points="403.9619,-168.2993 414.4364,-166.7072 405.2553,-161.4198 403.9619,-168.2993"/>
<text text-anchor="middle" x="388.6024" y="-167.5504" font-family="Times,serif" font-size="14.00" fill="#000000">a</text>
</g>
<!-- q3q4&#45;&gt;q3q5 -->
<g id="edge14" class="edge">
<title>q3q4&#45;&gt;q3q5</title>
<path fill="none" stroke="#000000" d="M359.7916,-216.3102C374.3645,-208.7433 392.5412,-199.3052 408.3125,-191.116"/>
<polygon fill="#000000" stroke="#000000" points="410.013,-194.1768 417.275,-186.4623 406.7872,-187.9644 410.013,-194.1768"/>
<text text-anchor="middle" x="388.6024" y="-206.5504" font-family="Times,serif" font-size="14.00" fill="#000000">b</text>
</g>
<!-- q3q5&#45;&gt;q3q6 -->
<g id="edge15" class="edge">
<title>q3q5&#45;&gt;q3q6</title>
<path fill="none" stroke="#000000" d="M471.4924,-158.0681C484.9667,-150.9511 501.5219,-142.2067 516.4079,-134.3439"/>
<polygon fill="#000000" stroke="#000000" points="518.2108,-137.35 525.4184,-129.5846 514.9414,-131.1603 518.2108,-137.35"/>
<text text-anchor="middle" x="500.3032" y="-149.5504" font-family="Times,serif" font-size="14.00" fill="#000000">b</text>
</g>
</g>
</svg>
