<?xml version="1.0" encoding="UTF-8" standalone="no"?>
<!DOCTYPE svg PUBLIC "-//W3C//DTD SVG 1.1//EN"
 "http://www.w3.org/Graphics/SVG/1.1/DTD/svg11.dtd">
<!-- Generated by graphviz version 2.40.1 (20161225.0304)
 -->
<!-- Title: task2_5 Pages: 1 -->
<svg width="1023pt" height="542pt"
 viewBox="0.00 0.00 1022.54 542.38" xmlns="http://www.w3.org/2000/svg" xmlns:xlink="http://www.w3.org/1999/xlink">
<g id="graph0" class="graph" transform="scale(1 1) rotate(0) translate(4 538.3844)">
<title>task2_5</title>
<polygon fill="#ffffff" stroke="transparent" points="-4,4 -4,-538.3844 1018.5407,-538.3844 1018.5407,4 -4,4"/>
<!-- 210 -->
<g id="node1" class="node">
<title>210</title>
<ellipse fill="none" stroke="#000000" cx="204.9088" cy="-335.5844" rx="25.5409" ry="25.5409"/>
<ellipse fill="none" stroke="#000000" cx="204.9088" cy="-335.5844" rx="29.5439" ry="29.5439"/>
<text text-anchor="middle" x="204.9088" y="-331.3844" font-family="Times,serif" font-size="14.00" fill="#000000">210</text>
</g>
<!-- 59 -->
<g id="node18" class="node">
<title>59</title>
<ellipse fill="none" stroke="#000000" cx="298.1242" cy="-342.5844" rx="20.8887" ry="20.8887"/>
<text text-anchor="middle" x="298.1242" y="-338.3844" font-family="Times,serif" font-size="14.00" fill="#000000">59</text>
</g>
<!-- 210&#45;&gt;59 -->
<g id="edge16" class="edge">
<title>210&#45;&gt;59</title>
<path fill="none" stroke="#000000" d="M234.1297,-330.4769C242.3382,-329.7292 251.2542,-329.5653 259.4308,-330.7844 262.5262,-331.2459 265.7164,-331.9042 268.8746,-332.677"/>
<polygon fill="#000000" stroke="#000000" points="268.1251,-336.1018 278.6989,-335.434 270.0165,-329.3621 268.1251,-336.1018"/>
<text text-anchor="middle" x="255.9308" y="-335.7844" font-family="Times,serif" font-size="14.00" fill="#000000">a</text>
</g>
<!-- 39 -->
<g id="node19" class="node">
<title>39</title>
<ellipse fill="none" stroke="#000000" cx="484.555" cy="-246.5844" rx="20.8887" ry="20.8887"/>
<text text-anchor="middle" x="484.555" y="-242.3844" font-family="Times,serif" font-size="14.00" fill="#000000">39</text>
</g>
<!-- 210&#45;&gt;39 -->
<g id="edge17" class="edge">
<title>210&#45;&gt;39</title>
<path fill="none" stroke="#000000" d="M224.8943,-313.7063C232.7896,-306.2723 242.3761,-298.5883 252.4308,-293.5844 319.0541,-260.4276 407.4977,-250.6616 453.6071,-247.7852"/>
<polygon fill="#000000" stroke="#000000" points="454.0564,-251.2658 463.8474,-247.2177 453.669,-244.2765 454.0564,-251.2658"/>
<text text-anchor="middle" x="340.3177" y="-268.7844" font-family="Times,serif" font-size="14.00" fill="#000000">b</text>
</g>
<!-- 310 -->
<g id="node2" class="node">
<title>310</title>
<ellipse fill="none" stroke="#000000" cx="798.588" cy="-165.5844" rx="25.5409" ry="25.5409"/>
<ellipse fill="none" stroke="#000000" cx="798.588" cy="-165.5844" rx="29.5439" ry="29.5439"/>
<text text-anchor="middle" x="798.588" y="-161.3844" font-family="Times,serif" font-size="14.00" fill="#000000">310</text>
</g>
<!-- 19 -->
<g id="node13" class="node">
<title>19</title>
<ellipse fill="none" stroke="#000000" cx="891.8034" cy="-406.5844" rx="20.8887" ry="20.8887"/>
<text text-anchor="middle" x="891.8034" y="-402.3844" font-family="Times,serif" font-size="14.00" fill="#000000">19</text>
</g>
<!-- 310&#45;&gt;19 -->
<g id="edge25" class="edge">
<title>310&#45;&gt;19</title>
<path fill="none" stroke="#000000" d="M809.281,-193.2301C827.0575,-239.1896 862.5201,-330.8752 880.6176,-377.6645"/>
<polygon fill="#000000" stroke="#000000" points="877.4352,-379.1391 884.307,-387.2031 883.9638,-376.6138 877.4352,-379.1391"/>
<text text-anchor="middle" x="849.6099" y="-304.7844" font-family="Times,serif" font-size="14.00" fill="#000000">b</text>
</g>
<!-- 69 -->
<g id="node22" class="node">
<title>69</title>
<ellipse fill="none" stroke="#000000" cx="891.8034" cy="-214.5844" rx="20.8887" ry="20.8887"/>
<text text-anchor="middle" x="891.8034" y="-210.3844" font-family="Times,serif" font-size="14.00" fill="#000000">69</text>
</g>
<!-- 310&#45;&gt;69 -->
<g id="edge24" class="edge">
<title>310&#45;&gt;69</title>
<path fill="none" stroke="#000000" d="M825.0504,-179.4947C837.3176,-185.9431 851.8902,-193.6034 864.2853,-200.1191"/>
<polygon fill="#000000" stroke="#000000" points="862.785,-203.2845 873.2651,-204.8394 866.0421,-197.0884 862.785,-203.2845"/>
<text text-anchor="middle" x="849.6099" y="-197.7844" font-family="Times,serif" font-size="14.00" fill="#000000">a</text>
</g>
<!-- 410 -->
<g id="node3" class="node">
<title>410</title>
<ellipse fill="none" stroke="#000000" cx="985.0188" cy="-349.5844" rx="25.5409" ry="25.5409"/>
<ellipse fill="none" stroke="#000000" cx="985.0188" cy="-349.5844" rx="29.5439" ry="29.5439"/>
<text text-anchor="middle" x="985.0188" y="-345.3844" font-family="Times,serif" font-size="14.00" fill="#000000">410</text>
</g>
<!-- 410&#45;&gt;19 -->
<g id="edge32" class="edge">
<title>410&#45;&gt;19</title>
<path fill="none" stroke="#000000" d="M961.4422,-368.2878C953.9828,-373.8361 945.5737,-379.7235 937.4968,-384.5844 932.0842,-387.8418 926.1163,-391.0015 920.3294,-393.8623"/>
<polygon fill="#000000" stroke="#000000" points="918.4137,-390.898 910.8917,-398.3592 921.4248,-397.2173 918.4137,-390.898"/>
<text text-anchor="middle" x="933.9968" y="-392.7844" font-family="Times,serif" font-size="14.00" fill="#000000">a</text>
</g>
<!-- 410&#45;&gt;59 -->
<g id="edge33" class="edge">
<title>410&#45;&gt;59</title>
<path fill="none" stroke="#000000" d="M955.2875,-348.1376C881.8951,-344.8112 686.2441,-337.4343 523.2484,-344.5844 477.6115,-346.5863 466.4984,-351.5824 420.8615,-353.5844 383.534,-355.2218 373.7378,-357.3223 336.8177,-351.5844 334.1001,-351.162 331.2904,-350.6529 328.4831,-350.0942"/>
<polygon fill="#000000" stroke="#000000" points="329.0116,-346.6274 318.496,-347.9208 327.523,-353.4673 329.0116,-346.6274"/>
<text text-anchor="middle" x="645.9857" y="-346.7844" font-family="Times,serif" font-size="14.00" fill="#000000">b</text>
</g>
<!-- 510 -->
<g id="node4" class="node">
<title>510</title>
<ellipse fill="none" stroke="#000000" cx="577.7703" cy="-107.5844" rx="25.5409" ry="25.5409"/>
<ellipse fill="none" stroke="#000000" cx="577.7703" cy="-107.5844" rx="29.5439" ry="29.5439"/>
<text text-anchor="middle" x="577.7703" y="-103.3844" font-family="Times,serif" font-size="14.00" fill="#000000">510</text>
</g>
<!-- 29 -->
<g id="node12" class="node">
<title>29</title>
<ellipse fill="none" stroke="#000000" cx="705.3726" cy="-139.5844" rx="20.8887" ry="20.8887"/>
<text text-anchor="middle" x="705.3726" y="-135.3844" font-family="Times,serif" font-size="14.00" fill="#000000">29</text>
</g>
<!-- 510&#45;&gt;29 -->
<g id="edge40" class="edge">
<title>510&#45;&gt;29</title>
<path fill="none" stroke="#000000" d="M606.07,-98.4527C624.0897,-94.2195 647.5531,-91.7037 666.6792,-99.7844 674.2941,-103.0016 681.1503,-108.5316 686.9012,-114.4631"/>
<polygon fill="#000000" stroke="#000000" points="684.3373,-116.8476 693.5685,-122.0472 689.5946,-112.2258 684.3373,-116.8476"/>
<text text-anchor="middle" x="645.9857" y="-104.7844" font-family="Times,serif" font-size="14.00" fill="#000000">a</text>
</g>
<!-- 510&#45;&gt;69 -->
<g id="edge41" class="edge">
<title>510&#45;&gt;69</title>
<path fill="none" stroke="#000000" d="M596.258,-83.9157C599.9287,-79.1802 603.7439,-74.2327 607.2923,-69.5844 615.3826,-58.986 613.3666,-51.5472 625.2923,-45.5844 641.7445,-37.3582 648.78,-41.3456 666.6792,-45.5844 744.791,-64.0822 766.9565,-74.5854 828.1099,-126.5844 848.2361,-143.6976 865.4072,-168.4306 876.8312,-187.3207"/>
<polygon fill="#000000" stroke="#000000" points="873.8842,-189.2141 881.9655,-196.0657 879.9207,-185.67 873.8842,-189.2141"/>
<text text-anchor="middle" x="747.5661" y="-76.7844" font-family="Times,serif" font-size="14.00" fill="#000000">b</text>
</g>
<!-- 610 -->
<g id="node5" class="node">
<title>610</title>
<ellipse fill="none" stroke="#000000" cx="391.3396" cy="-314.5844" rx="25.5409" ry="25.5409"/>
<ellipse fill="none" stroke="#000000" cx="391.3396" cy="-314.5844" rx="29.5439" ry="29.5439"/>
<text text-anchor="middle" x="391.3396" y="-310.3844" font-family="Times,serif" font-size="14.00" fill="#000000">610</text>
</g>
<!-- 49 -->
<g id="node11" class="node">
<title>49</title>
<ellipse fill="none" stroke="#000000" cx="484.555" cy="-65.5844" rx="20.8887" ry="20.8887"/>
<text text-anchor="middle" x="484.555" y="-61.3844" font-family="Times,serif" font-size="14.00" fill="#000000">49</text>
</g>
<!-- 610&#45;&gt;49 -->
<g id="edge49" class="edge">
<title>610&#45;&gt;49</title>
<path fill="none" stroke="#000000" d="M397.4669,-285.5745C405.0947,-251.753 419.5148,-194.5245 438.8615,-147.7844 446.9003,-128.3632 458.409,-107.6882 467.865,-91.9315"/>
<polygon fill="#000000" stroke="#000000" points="470.9299,-93.628 473.1535,-83.2691 464.9554,-89.9804 470.9299,-93.628"/>
<text text-anchor="middle" x="442.3615" y="-152.7844" font-family="Times,serif" font-size="14.00" fill="#000000">b</text>
</g>
<!-- 610&#45;&gt;39 -->
<g id="edge48" class="edge">
<title>610&#45;&gt;39</title>
<path fill="none" stroke="#000000" d="M420.6475,-310.3223C429.2974,-308.097 438.4293,-304.7164 445.8615,-299.5844 455.3813,-293.0108 463.437,-283.313 469.6921,-274.0039"/>
<polygon fill="#000000" stroke="#000000" points="472.7927,-275.6469 475.1267,-265.3123 466.8574,-271.9357 472.7927,-275.6469"/>
<text text-anchor="middle" x="442.3615" y="-307.7844" font-family="Times,serif" font-size="14.00" fill="#000000">a</text>
</g>
<g id="node6" class="node">
<title></title>
</g>
<!-- 17 -->
<g id="node7" class="node">
<title>17</title>
<ellipse fill="none" stroke="#000000" cx="111.6935" cy="-399.5844" rx="20.8887" ry="20.8887"/>
<text text-anchor="middle" x="111.6935" y="-395.3844" font-family="Times,serif" font-size="14.00" fill="#000000">17</text>
</g>
<!-- &#45;&gt;17 -->
<g id="edge1" class="edge">
<title>&#45;&gt;17</title>
<path fill="none" stroke="#000000" d="M54.2637,-399.5844C62.7209,-399.5844 72.1012,-399.5844 80.7873,-399.5844"/>
<polygon fill="#000000" stroke="#000000" points="80.9294,-403.0845 90.9294,-399.5844 80.9293,-396.0845 80.9294,-403.0845"/>
</g>
<!-- 48 -->
<g id="node8" class="node">
<title>48</title>
<ellipse fill="none" stroke="#000000" cx="204.9088" cy="-438.5844" rx="20.8887" ry="20.8887"/>
<text text-anchor="middle" x="204.9088" y="-434.3844" font-family="Times,serif" font-size="14.00" fill="#000000">48</text>
</g>
<!-- 17&#45;&gt;48 -->
<g id="edge2" class="edge">
<title>17&#45;&gt;48</title>
<path fill="none" stroke="#000000" d="M131.0077,-407.6652C144.0062,-413.1035 161.3776,-420.3715 176.0122,-426.4944"/>
<polygon fill="#000000" stroke="#000000" points="175.0432,-429.883 185.6193,-430.5139 177.7451,-423.4254 175.0432,-429.883"/>
<text text-anchor="middle" x="153.8869" y="-421.7844" font-family="Times,serif" font-size="14.00" fill="#000000">a</text>
</g>
<!-- 28 -->
<g id="node9" class="node">
<title>28</title>
<ellipse fill="none" stroke="#000000" cx="204.9088" cy="-245.5844" rx="20.8887" ry="20.8887"/>
<text text-anchor="middle" x="204.9088" y="-241.3844" font-family="Times,serif" font-size="14.00" fill="#000000">28</text>
</g>
<!-- 17&#45;&gt;28 -->
<g id="edge3" class="edge">
<title>17&#45;&gt;28</title>
<path fill="none" stroke="#000000" d="M122.5689,-381.6172C138.9168,-354.609 169.9225,-303.3848 188.8699,-272.0821"/>
<polygon fill="#000000" stroke="#000000" points="191.9186,-273.8044 194.1027,-263.4371 185.9302,-270.1796 191.9186,-273.8044"/>
<text text-anchor="middle" x="153.8869" y="-336.7844" font-family="Times,serif" font-size="14.00" fill="#000000">b</text>
</g>
<!-- 48&#45;&gt;19 -->
<g id="edge28" class="edge">
<title>48&#45;&gt;19</title>
<path fill="none" stroke="#000000" d="M224.0962,-446.7412C273.3753,-466.9256 408.8045,-517.5844 526.7484,-517.5844 526.7484,-517.5844 526.7484,-517.5844 798.588,-517.5844 825.0638,-517.5844 834.3531,-512.2698 853.1099,-493.5844 868.7224,-478.0313 878.5674,-455.0839 884.418,-436.6612"/>
<polygon fill="#000000" stroke="#000000" points="887.8051,-437.5487 887.2686,-426.9675 881.0895,-435.5738 887.8051,-437.5487"/>
<text text-anchor="middle" x="526.7484" y="-521.7844" font-family="Times,serif" font-size="14.00" fill="#000000">a</text>
</g>
<!-- 48&#45;&gt;59 -->
<g id="edge29" class="edge">
<title>48&#45;&gt;59</title>
<path fill="none" stroke="#000000" d="M219.4737,-423.5844C234.7968,-407.8036 259.0757,-382.7994 276.607,-364.7443"/>
<polygon fill="#000000" stroke="#000000" points="279.2063,-367.0916 283.6616,-357.479 274.1843,-362.2152 279.2063,-367.0916"/>
<text text-anchor="middle" x="255.9308" y="-392.7844" font-family="Times,serif" font-size="14.00" fill="#000000">b</text>
</g>
<!-- 28&#45;&gt;59 -->
<g id="edge12" class="edge">
<title>28&#45;&gt;59</title>
<path fill="none" stroke="#000000" d="M219.4737,-260.7406C234.7968,-276.6857 259.0757,-301.9504 276.607,-320.1936"/>
<polygon fill="#000000" stroke="#000000" points="274.2089,-322.7493 283.6616,-327.5345 279.2562,-317.899 274.2089,-322.7493"/>
<text text-anchor="middle" x="255.9308" y="-304.7844" font-family="Times,serif" font-size="14.00" fill="#000000">a</text>
</g>
<!-- 28&#45;&gt;39 -->
<g id="edge13" class="edge">
<title>28&#45;&gt;39</title>
<path fill="none" stroke="#000000" d="M225.2629,-239.9172C250.9971,-233.0724 296.7799,-221.9575 336.8177,-217.7844 378.4345,-213.4466 425.7882,-225.8022 455.421,-235.6656"/>
<polygon fill="#000000" stroke="#000000" points="454.5303,-239.0609 465.1251,-239.0191 456.8167,-232.4448 454.5303,-239.0609"/>
<text text-anchor="middle" x="340.3177" y="-222.7844" font-family="Times,serif" font-size="14.00" fill="#000000">b</text>
</g>
<!-- 18 -->
<g id="node10" class="node">
<title>18</title>
<ellipse fill="none" stroke="#000000" cx="391.3396" cy="-110.5844" rx="20.8887" ry="20.8887"/>
<text text-anchor="middle" x="391.3396" y="-106.3844" font-family="Times,serif" font-size="14.00" fill="#000000">18</text>
</g>
<!-- 18&#45;&gt;49 -->
<g id="edge4" class="edge">
<title>18&#45;&gt;49</title>
<path fill="none" stroke="#000000" d="M409.003,-99.2883C417.7873,-93.9215 428.6795,-87.636 438.8615,-82.7844 444.0266,-80.3232 449.6447,-77.9642 455.1177,-75.8244"/>
<polygon fill="#000000" stroke="#000000" points="456.5505,-79.0252 464.6835,-72.2352 454.0913,-72.4714 456.5505,-79.0252"/>
<text text-anchor="middle" x="442.3615" y="-87.7844" font-family="Times,serif" font-size="14.00" fill="#000000">a</text>
</g>
<!-- 18&#45;&gt;29 -->
<g id="edge5" class="edge">
<title>18&#45;&gt;29</title>
<path fill="none" stroke="#000000" d="M411.442,-116.38C441.0916,-124.6567 498.4235,-139.6289 548.2484,-146.5844 582.207,-151.3249 591.016,-149.6952 625.2923,-150.5844 643.6803,-151.0614 648.4611,-153.1236 666.6792,-150.5844 669.5973,-150.1776 672.6044,-149.6062 675.5919,-148.9355"/>
<polygon fill="#000000" stroke="#000000" points="676.7121,-152.261 685.5163,-146.3671 674.9583,-145.4842 676.7121,-152.261"/>
<text text-anchor="middle" x="526.7484" y="-148.7844" font-family="Times,serif" font-size="14.00" fill="#000000">b</text>
</g>
<!-- 49&#45;&gt;510 -->
<g id="edge31" class="edge">
<title>49&#45;&gt;510</title>
<path fill="none" stroke="#000000" d="M500.7448,-78.7306C507.4035,-83.6317 515.3884,-88.8949 523.2484,-92.5844 528.2473,-94.9308 533.6818,-96.9703 539.119,-98.7244"/>
<polygon fill="#000000" stroke="#000000" points="538.2342,-102.1124 548.8155,-101.5784 540.2107,-95.3972 538.2342,-102.1124"/>
<text text-anchor="middle" x="526.7484" y="-99.7844" font-family="Times,serif" font-size="14.00" fill="#000000">b</text>
</g>
<!-- 110 -->
<g id="node14" class="node">
<title>110</title>
<ellipse fill="none" stroke="#000000" cx="577.7703" cy="-34.5844" rx="25.5439" ry="25.5439"/>
<text text-anchor="middle" x="577.7703" y="-30.3844" font-family="Times,serif" font-size="14.00" fill="#000000">110</text>
</g>
<!-- 49&#45;&gt;110 -->
<g id="edge30" class="edge">
<title>49&#45;&gt;110</title>
<path fill="none" stroke="#000000" d="M493.094,-46.6184C499.5333,-34.8166 509.6007,-20.6248 523.2484,-13.7844 531.2109,-9.7935 540.1344,-10.9967 548.42,-14.2971"/>
<polygon fill="#000000" stroke="#000000" points="546.9032,-17.4516 557.4182,-18.7496 550.0076,-11.1777 546.9032,-17.4516"/>
<text text-anchor="middle" x="526.7484" y="-18.7844" font-family="Times,serif" font-size="14.00" fill="#000000">a</text>
</g>
<!-- 29&#45;&gt;310 -->
<g id="edge15" class="edge">
<title>29&#45;&gt;310</title>
<path fill="none" stroke="#000000" d="M725.599,-145.226C735.7225,-148.0496 748.3219,-151.5639 760.1884,-154.8738"/>
<polygon fill="#000000" stroke="#000000" points="759.3407,-158.2709 769.9134,-157.5863 761.2214,-151.5282 759.3407,-158.2709"/>
<text text-anchor="middle" x="747.5661" y="-156.7844" font-family="Times,serif" font-size="14.00" fill="#000000">b</text>
</g>
<!-- 29&#45;&gt;510 -->
<g id="edge14" class="edge">
<title>29&#45;&gt;510</title>
<path fill="none" stroke="#000000" d="M685.1636,-134.5163C666.7526,-129.8992 639.0609,-122.9547 616.4086,-117.274"/>
<polygon fill="#000000" stroke="#000000" points="616.9578,-113.8034 606.4068,-114.7658 615.255,-120.5932 616.9578,-113.8034"/>
<text text-anchor="middle" x="645.9857" y="-133.7844" font-family="Times,serif" font-size="14.00" fill="#000000">a</text>
</g>
<!-- 19&#45;&gt;210 -->
<g id="edge7" class="edge">
<title>19&#45;&gt;210</title>
<path fill="none" stroke="#000000" d="M880.2473,-424.2556C864.5638,-445.8602 834.3541,-479.5844 798.588,-479.5844 645.9857,-479.5844 645.9857,-479.5844 645.9857,-479.5844 553.9237,-479.5844 534.4236,-441.5844 442.3615,-441.5844 298.1242,-441.5844 298.1242,-441.5844 298.1242,-441.5844 260.3692,-441.5844 234.2967,-403.1942 219.5192,-372.6208"/>
<polygon fill="#000000" stroke="#000000" points="222.653,-371.058 215.2953,-363.4346 216.2931,-373.9824 222.653,-371.058"/>
<text text-anchor="middle" x="526.7484" y="-458.7844" font-family="Times,serif" font-size="14.00" fill="#000000">b</text>
</g>
<!-- 19&#45;&gt;410 -->
<g id="edge6" class="edge">
<title>19&#45;&gt;410</title>
<path fill="none" stroke="#000000" d="M905.0928,-390.0679C911.9865,-382.3999 920.9531,-373.6946 930.4968,-367.7844 935.4971,-364.6878 941.0848,-362.0524 946.7245,-359.8299"/>
<polygon fill="#000000" stroke="#000000" points="947.9208,-363.1193 956.1701,-356.471 945.5754,-356.5239 947.9208,-363.1193"/>
<text text-anchor="middle" x="933.9968" y="-372.7844" font-family="Times,serif" font-size="14.00" fill="#000000">a</text>
</g>
<!-- 110&#45;&gt;49 -->
<g id="edge8" class="edge">
<title>110&#45;&gt;49</title>
<path fill="none" stroke="#000000" d="M552.2046,-31.8768C542.861,-31.7285 532.3556,-32.5716 523.2484,-35.7844 517.7512,-37.7236 512.4159,-40.7705 507.5521,-44.1903"/>
<polygon fill="#000000" stroke="#000000" points="505.0922,-41.6709 499.3733,-50.5897 509.4058,-47.1839 505.0922,-41.6709"/>
<text text-anchor="middle" x="526.7484" y="-40.7844" font-family="Times,serif" font-size="14.00" fill="#000000">a</text>
</g>
<!-- 110&#45;&gt;29 -->
<g id="edge9" class="edge">
<title>110&#45;&gt;29</title>
<path fill="none" stroke="#000000" d="M602.7188,-41.008C621.95,-46.9632 648.2809,-57.4107 666.6792,-73.7844 678.0391,-83.8942 686.9893,-98.1613 693.4077,-110.8275"/>
<polygon fill="#000000" stroke="#000000" points="690.3647,-112.5784 697.8203,-120.106 696.6862,-109.572 690.3647,-112.5784"/>
<text text-anchor="middle" x="645.9857" y="-78.7844" font-family="Times,serif" font-size="14.00" fill="#000000">b</text>
</g>
<!-- 27 -->
<g id="node15" class="node">
<title>27</title>
<ellipse fill="none" stroke="#000000" cx="484.555" cy="-389.5844" rx="20.8887" ry="20.8887"/>
<text text-anchor="middle" x="484.555" y="-385.3844" font-family="Times,serif" font-size="14.00" fill="#000000">27</text>
</g>
<!-- 58 -->
<g id="node16" class="node">
<title>58</title>
<ellipse fill="none" stroke="#000000" cx="577.7703" cy="-222.5844" rx="20.8887" ry="20.8887"/>
<text text-anchor="middle" x="577.7703" y="-218.3844" font-family="Times,serif" font-size="14.00" fill="#000000">58</text>
</g>
<!-- 27&#45;&gt;58 -->
<g id="edge10" class="edge">
<title>27&#45;&gt;58</title>
<path fill="none" stroke="#000000" d="M494.7081,-371.3945C511.098,-342.0313 543.478,-284.0209 562.6093,-249.7461"/>
<polygon fill="#000000" stroke="#000000" points="565.8119,-251.1895 567.6297,-240.7518 559.6996,-247.7777 565.8119,-251.1895"/>
<text text-anchor="middle" x="526.7484" y="-320.7844" font-family="Times,serif" font-size="14.00" fill="#000000">a</text>
</g>
<!-- 38 -->
<g id="node17" class="node">
<title>38</title>
<ellipse fill="none" stroke="#000000" cx="645.9857" cy="-404.5844" rx="20.8887" ry="20.8887"/>
<text text-anchor="middle" x="645.9857" y="-400.3844" font-family="Times,serif" font-size="14.00" fill="#000000">38</text>
</g>
<!-- 27&#45;&gt;38 -->
<g id="edge11" class="edge">
<title>27&#45;&gt;38</title>
<path fill="none" stroke="#000000" d="M505.3287,-391.5146C533.1774,-394.1023 582.8356,-398.7165 615.0806,-401.7127"/>
<polygon fill="#000000" stroke="#000000" points="615.0107,-405.2212 625.2917,-402.6615 615.6584,-398.2512 615.0107,-405.2212"/>
<text text-anchor="middle" x="526.7484" y="-398.7844" font-family="Times,serif" font-size="14.00" fill="#000000">b</text>
</g>
<!-- 58&#45;&gt;29 -->
<g id="edge36" class="edge">
<title>58&#45;&gt;29</title>
<path fill="none" stroke="#000000" d="M596.6675,-213.5946C618.9802,-202.844 654.5877,-185.221 666.6792,-176.5844 672.5738,-172.3739 678.4657,-167.2978 683.81,-162.2733"/>
<polygon fill="#000000" stroke="#000000" points="686.4861,-164.5516 691.1849,-155.0557 681.59,-159.5488 686.4861,-164.5516"/>
<text text-anchor="middle" x="645.9857" y="-202.7844" font-family="Times,serif" font-size="14.00" fill="#000000">a</text>
</g>
<!-- 58&#45;&gt;69 -->
<g id="edge37" class="edge">
<title>58&#45;&gt;69</title>
<path fill="none" stroke="#000000" d="M598.8626,-222.047C652.9422,-220.6693 796.7617,-217.0055 860.5658,-215.3801"/>
<polygon fill="#000000" stroke="#000000" points="860.8954,-218.873 870.803,-215.1193 860.717,-211.8752 860.8954,-218.873"/>
<text text-anchor="middle" x="747.5661" y="-222.7844" font-family="Times,serif" font-size="14.00" fill="#000000">b</text>
</g>
<!-- 38&#45;&gt;19 -->
<g id="edge21" class="edge">
<title>38&#45;&gt;19</title>
<path fill="none" stroke="#000000" d="M666.944,-404.7549C710.3018,-405.1076 810.0327,-405.9191 860.8375,-406.3324"/>
<polygon fill="#000000" stroke="#000000" points="860.87,-409.8327 870.8982,-406.4143 860.927,-402.8329 860.87,-409.8327"/>
<text text-anchor="middle" x="747.5661" y="-409.7844" font-family="Times,serif" font-size="14.00" fill="#000000">b</text>
</g>
<!-- 38&#45;&gt;69 -->
<g id="edge20" class="edge">
<title>38&#45;&gt;69</title>
<path fill="none" stroke="#000000" d="M665.2919,-397.0915C704.6936,-381.019 795.5015,-339.8976 853.1099,-281.5844 863.9425,-270.6192 872.8382,-256.0224 879.3569,-243.2528"/>
<polygon fill="#000000" stroke="#000000" points="882.6611,-244.46 883.8711,-233.9345 876.3614,-241.4081 882.6611,-244.46"/>
<text text-anchor="middle" x="747.5661" y="-363.7844" font-family="Times,serif" font-size="14.00" fill="#000000">a</text>
</g>
<!-- 59&#45;&gt;210 -->
<g id="edge38" class="edge">
<title>59&#45;&gt;210</title>
<path fill="none" stroke="#000000" d="M277.2874,-345.7758C271.5181,-346.5233 265.2439,-347.2103 259.4308,-347.5844 254.1262,-347.9257 248.5921,-347.57 243.1703,-346.8003"/>
<polygon fill="#000000" stroke="#000000" points="243.4466,-343.291 232.9723,-344.8843 242.154,-350.1707 243.4466,-343.291"/>
<text text-anchor="middle" x="255.9308" y="-352.7844" font-family="Times,serif" font-size="14.00" fill="#000000">a</text>
</g>
<!-- 59&#45;&gt;610 -->
<g id="edge39" class="edge">
<title>59&#45;&gt;610</title>
<path fill="none" stroke="#000000" d="M318.3506,-336.5088C328.5577,-333.4428 341.2819,-329.6207 353.234,-326.0305"/>
<polygon fill="#000000" stroke="#000000" points="354.4496,-329.3199 363.02,-323.091 352.4358,-322.6158 354.4496,-329.3199"/>
<text text-anchor="middle" x="340.3177" y="-334.7844" font-family="Times,serif" font-size="14.00" fill="#000000">b</text>
</g>
<!-- 39&#45;&gt;610 -->
<g id="edge22" class="edge">
<title>39&#45;&gt;610</title>
<path fill="none" stroke="#000000" d="M467.6879,-258.8888C455.4667,-267.804 438.5603,-280.1372 423.7625,-290.932"/>
<polygon fill="#000000" stroke="#000000" points="421.361,-288.3516 415.3449,-297.0727 425.4864,-294.0068 421.361,-288.3516"/>
<text text-anchor="middle" x="442.3615" y="-282.7844" font-family="Times,serif" font-size="14.00" fill="#000000">a</text>
</g>
<!-- 39&#45;&gt;110 -->
<g id="edge23" class="edge">
<title>39&#45;&gt;110</title>
<path fill="none" stroke="#000000" d="M487.2057,-225.8148C492.7035,-185.1667 506.2636,-96.8821 523.2484,-71.7844 528.9683,-63.3323 537.3074,-56.2587 545.7508,-50.6274"/>
<polygon fill="#000000" stroke="#000000" points="547.7798,-53.4892 554.4822,-45.2838 544.1257,-47.5185 547.7798,-53.4892"/>
<text text-anchor="middle" x="526.7484" y="-76.7844" font-family="Times,serif" font-size="14.00" fill="#000000">b</text>
</g>
<!-- 37 -->
<g id="node20" class="node">
<title>37</title>
<ellipse fill="none" stroke="#000000" cx="298.1242" cy="-96.5844" rx="20.8887" ry="20.8887"/>
<text text-anchor="middle" x="298.1242" y="-92.3844" font-family="Times,serif" font-size="14.00" fill="#000000">37</text>
</g>
<!-- 37&#45;&gt;18 -->
<g id="edge19" class="edge">
<title>37&#45;&gt;18</title>
<path fill="none" stroke="#000000" d="M318.8117,-99.6914C331.1214,-101.5402 346.968,-103.9202 360.7074,-105.9837"/>
<polygon fill="#000000" stroke="#000000" points="360.3009,-109.4618 370.7099,-107.486 361.3407,-102.5395 360.3009,-109.4618"/>
<text text-anchor="middle" x="340.3177" y="-107.7844" font-family="Times,serif" font-size="14.00" fill="#000000">b</text>
</g>
<!-- 68 -->
<g id="node21" class="node">
<title>68</title>
<ellipse fill="none" stroke="#000000" cx="391.3396" cy="-38.5844" rx="20.8887" ry="20.8887"/>
<text text-anchor="middle" x="391.3396" y="-34.3844" font-family="Times,serif" font-size="14.00" fill="#000000">68</text>
</g>
<!-- 37&#45;&gt;68 -->
<g id="edge18" class="edge">
<title>37&#45;&gt;68</title>
<path fill="none" stroke="#000000" d="M316.0971,-85.4014C329.9838,-76.7609 349.4077,-64.675 365.0415,-54.9474"/>
<polygon fill="#000000" stroke="#000000" points="367.0965,-57.791 373.738,-49.5363 363.3984,-51.8476 367.0965,-57.791"/>
<text text-anchor="middle" x="340.3177" y="-75.7844" font-family="Times,serif" font-size="14.00" fill="#000000">a</text>
</g>
<!-- 68&#45;&gt;49 -->
<g id="edge45" class="edge">
<title>68&#45;&gt;49</title>
<path fill="none" stroke="#000000" d="M403.5828,-21.5047C414.4304,-8.5867 430.8338,5.6077 445.8615,-2.7844 458.8697,-10.0486 468.0461,-23.6809 474.1868,-36.3927"/>
<polygon fill="#000000" stroke="#000000" points="471.0922,-38.052 478.3041,-45.8134 477.5064,-35.2486 471.0922,-38.052"/>
<text text-anchor="middle" x="442.3615" y="-7.7844" font-family="Times,serif" font-size="14.00" fill="#000000">b</text>
</g>
<!-- 68&#45;&gt;39 -->
<g id="edge44" class="edge">
<title>68&#45;&gt;39</title>
<path fill="none" stroke="#000000" d="M412.034,-41.6749C423.6222,-44.4767 437.4004,-49.7817 445.8615,-59.7844 465.4568,-82.9497 476.8237,-168.6473 481.7028,-215.4974"/>
<polygon fill="#000000" stroke="#000000" points="478.2446,-216.09 482.7257,-225.6905 485.2096,-215.391 478.2446,-216.09"/>
<text text-anchor="middle" x="442.3615" y="-64.7844" font-family="Times,serif" font-size="14.00" fill="#000000">a</text>
</g>
<!-- 69&#45;&gt;310 -->
<g id="edge46" class="edge">
<title>69&#45;&gt;310</title>
<path fill="none" stroke="#000000" d="M880.816,-196.6605C874.0529,-187.2886 864.5015,-176.5874 853.1099,-170.7844 848.5149,-168.4436 843.4198,-166.8612 838.2427,-165.8209"/>
<polygon fill="#000000" stroke="#000000" points="838.6838,-162.3487 828.2958,-164.4318 837.7156,-169.2814 838.6838,-162.3487"/>
<text text-anchor="middle" x="849.6099" y="-175.7844" font-family="Times,serif" font-size="14.00" fill="#000000">a</text>
</g>
<!-- 69&#45;&gt;410 -->
<g id="edge47" class="edge">
<title>69&#45;&gt;410</title>
<path fill="none" stroke="#000000" d="M903.6092,-231.6822C918.2855,-252.9374 943.6584,-289.6839 962.1859,-316.5165"/>
<polygon fill="#000000" stroke="#000000" points="959.3764,-318.6076 967.9386,-324.8478 965.1367,-314.6302 959.3764,-318.6076"/>
<text text-anchor="middle" x="933.9968" y="-282.7844" font-family="Times,serif" font-size="14.00" fill="#000000">b</text>
</g>
<!-- 47 -->
<g id="node23" class="node">
<title>47</title>
<ellipse fill="none" stroke="#000000" cx="298.1242" cy="-157.5844" rx="20.8887" ry="20.8887"/>
<text text-anchor="middle" x="298.1242" y="-153.3844" font-family="Times,serif" font-size="14.00" fill="#000000">47</text>
</g>
<!-- 47&#45;&gt;18 -->
<g id="edge26" class="edge">
<title>47&#45;&gt;18</title>
<path fill="none" stroke="#000000" d="M316.9877,-148.0732C330.3415,-141.3401 348.4727,-132.1982 363.4872,-124.6278"/>
<polygon fill="#000000" stroke="#000000" points="365.4688,-127.5484 372.8222,-119.921 362.3173,-121.298 365.4688,-127.5484"/>
<text text-anchor="middle" x="340.3177" y="-141.7844" font-family="Times,serif" font-size="14.00" fill="#000000">a</text>
</g>
<!-- 47&#45;&gt;58 -->
<g id="edge27" class="edge">
<title>47&#45;&gt;58</title>
<path fill="none" stroke="#000000" d="M318.6873,-162.364C367.4909,-173.7077 490.4903,-202.2973 547.6753,-215.5892"/>
<polygon fill="#000000" stroke="#000000" points="547.0215,-219.0304 557.5543,-217.8854 548.6064,-212.2122 547.0215,-219.0304"/>
<text text-anchor="middle" x="442.3615" y="-195.7844" font-family="Times,serif" font-size="14.00" fill="#000000">b</text>
</g>
<!-- 57 -->
<g id="node24" class="node">
<title>57</title>
<ellipse fill="none" stroke="#000000" cx="111.6935" cy="-95.5844" rx="20.8887" ry="20.8887"/>
<text text-anchor="middle" x="111.6935" y="-91.3844" font-family="Times,serif" font-size="14.00" fill="#000000">57</text>
</g>
<!-- 57&#45;&gt;28 -->
<g id="edge34" class="edge">
<title>57&#45;&gt;28</title>
<path fill="none" stroke="#000000" d="M122.7525,-113.3804C139.0108,-139.5427 169.4777,-188.5694 188.3932,-219.0078"/>
<polygon fill="#000000" stroke="#000000" points="185.6131,-221.1653 193.8641,-227.8115 191.5586,-217.4705 185.6131,-221.1653"/>
<text text-anchor="middle" x="153.8869" y="-170.7844" font-family="Times,serif" font-size="14.00" fill="#000000">a</text>
</g>
<!-- 57&#45;&gt;68 -->
<g id="edge35" class="edge">
<title>57&#45;&gt;68</title>
<path fill="none" stroke="#000000" d="M132.2565,-91.393C180.9414,-81.4696 303.4614,-56.4965 360.8259,-44.8039"/>
<polygon fill="#000000" stroke="#000000" points="361.6469,-48.2086 370.7464,-42.7818 360.2488,-41.3497 361.6469,-48.2086"/>
<text text-anchor="middle" x="255.9308" y="-70.7844" font-family="Times,serif" font-size="14.00" fill="#000000">b</text>
</g>
<!-- 67 -->
<g id="node25" class="node">
<title>67</title>
<ellipse fill="none" stroke="#000000" cx="111.6935" cy="-468.5844" rx="20.8887" ry="20.8887"/>
<text text-anchor="middle" x="111.6935" y="-464.3844" font-family="Times,serif" font-size="14.00" fill="#000000">67</text>
</g>
<!-- 67&#45;&gt;48 -->
<g id="edge43" class="edge">
<title>67&#45;&gt;48</title>
<path fill="none" stroke="#000000" d="M131.462,-462.2221C144.1914,-458.1254 160.9724,-452.7246 175.2806,-448.1198"/>
<polygon fill="#000000" stroke="#000000" points="176.7219,-451.3328 185.1687,-444.9374 174.5773,-444.6694 176.7219,-451.3328"/>
<text text-anchor="middle" x="153.8869" y="-458.7844" font-family="Times,serif" font-size="14.00" fill="#000000">b</text>
</g>
<!-- 67&#45;&gt;38 -->
<g id="edge42" class="edge">
<title>67&#45;&gt;38</title>
<path fill="none" stroke="#000000" d="M127.2197,-482.7572C144.7385,-497.2287 174.742,-517.5844 204.9088,-517.5844 204.9088,-517.5844 204.9088,-517.5844 340.3177,-517.5844 369.1678,-517.5844 546.0878,-445.8502 616.813,-416.6907"/>
<polygon fill="#000000" stroke="#000000" points="618.5408,-419.7639 626.447,-412.711 615.8682,-413.2942 618.5408,-419.7639"/>
<text text-anchor="middle" x="340.3177" y="-521.7844" font-family="Times,serif" font-size="14.00" fill="#000000">a</text>
</g>
</g>
</svg>
