<?xml version="1.0" encoding="UTF-8" standalone="no"?>
<!DOCTYPE svg PUBLIC "-//W3C//DTD SVG 1.1//EN"
 "http://www.w3.org/Graphics/SVG/1.1/DTD/svg11.dtd">
<!-- Generated by graphviz version 2.40.1 (20161225.0304)
 -->
<!-- Title: task2_3_tmp_1 Pages: 1 -->
<svg width="317pt" height="127pt"
 viewBox="0.00 0.00 317.16 127.19" xmlns="http://www.w3.org/2000/svg" xmlns:xlink="http://www.w3.org/1999/xlink">
<g id="graph0" class="graph" transform="scale(1 1) rotate(0) translate(4 123.1869)">
<title>task2_3_tmp_1</title>
<polygon fill="#ffffff" stroke="transparent" points="-4,4 -4,-123.1869 313.1607,-123.1869 313.1607,4 -4,4"/>
<!-- q3 -->
<g id="node1" class="node">
<title>q3</title>
<ellipse fill="none" stroke="#000000" cx="115.6935" cy="-24.6935" rx="20.8568" ry="20.8568"/>
<ellipse fill="none" stroke="#000000" cx="115.6935" cy="-24.6935" rx="24.8884" ry="24.8884"/>
<text text-anchor="middle" x="115.6935" y="-20.4935" font-family="Times,serif" font-size="14.00" fill="#000000">q3</text>
</g>
<!-- q3&#45;&gt;q3 -->
<g id="edge2" class="edge">
<title>q3&#45;&gt;q3</title>
<path fill="none" stroke="#000000" d="M107.9127,-48.4015C107.2756,-58.6297 109.8692,-67.3869 115.6935,-67.3869 119.4246,-67.3869 121.8299,-63.7929 122.9093,-58.5207"/>
<polygon fill="#000000" stroke="#000000" points="126.4113,-58.5811 123.4742,-48.4015 119.4222,-58.1908 126.4113,-58.5811"/>
<text text-anchor="middle" x="115.6935" y="-71.5869" font-family="Times,serif" font-size="14.00" fill="#000000">a</text>
</g>
<!-- q4 -->
<g id="node3" class="node">
<title>q4</title>
<ellipse fill="none" stroke="#000000" cx="204.0804" cy="-63.6935" rx="20.8887" ry="20.8887"/>
<text text-anchor="middle" x="204.0804" y="-59.4935" font-family="Times,serif" font-size="14.00" fill="#000000">q4</text>
</g>
<!-- q3&#45;&gt;q4 -->
<g id="edge3" class="edge">
<title>q3&#45;&gt;q4</title>
<path fill="none" stroke="#000000" d="M138.4553,-34.7369C149.8368,-39.7589 163.7206,-45.885 175.782,-51.207"/>
<polygon fill="#000000" stroke="#000000" points="174.4197,-54.4315 184.9816,-55.2663 177.2456,-48.0272 174.4197,-54.4315"/>
<text text-anchor="middle" x="161.8869" y="-49.8935" font-family="Times,serif" font-size="14.00" fill="#000000">b</text>
</g>
<g id="node2" class="node">
<title></title>
</g>
<!-- &#45;&gt;q3 -->
<g id="edge1" class="edge">
<title>&#45;&gt;q3</title>
<path fill="none" stroke="#000000" d="M54.0929,-24.6935C62.5145,-24.6935 71.9196,-24.6935 80.7952,-24.6935"/>
<polygon fill="#000000" stroke="#000000" points="80.8805,-28.1936 90.8805,-24.6935 80.8805,-21.1936 80.8805,-28.1936"/>
</g>
<!-- q4&#45;&gt;q4 -->
<g id="edge4" class="edge">
<title>q4&#45;&gt;q4</title>
<path fill="none" stroke="#000000" d="M196.4822,-83.2043C195.3133,-93.2929 197.846,-102.3869 204.0804,-102.3869 208.0743,-102.3869 210.549,-98.6547 211.5046,-93.3198"/>
<polygon fill="#000000" stroke="#000000" points="215.006,-93.263 211.6785,-83.2043 208.007,-93.1426 215.006,-93.263"/>
<text text-anchor="middle" x="204.0804" y="-106.5869" font-family="Times,serif" font-size="14.00" fill="#000000">a</text>
</g>
<!-- q5 -->
<g id="node4" class="node">
<title>q5</title>
<ellipse fill="none" stroke="#000000" cx="288.4673" cy="-24.6935" rx="20.8887" ry="20.8887"/>
<text text-anchor="middle" x="288.4673" y="-20.4935" font-family="Times,serif" font-size="14.00" fill="#000000">q5</text>
</g>
<!-- q4&#45;&gt;q5 -->
<g id="edge5" class="edge">
<title>q4&#45;&gt;q5</title>
<path fill="none" stroke="#000000" d="M223.2291,-54.8437C234.1263,-49.8075 247.982,-43.404 260.1187,-37.7949"/>
<polygon fill="#000000" stroke="#000000" points="261.7852,-40.8805 269.3943,-33.5081 258.8485,-34.5263 261.7852,-40.8805"/>
<text text-anchor="middle" x="246.2738" y="-48.8935" font-family="Times,serif" font-size="14.00" fill="#000000">b</text>
</g>
<!-- q5&#45;&gt;q3 -->
<g id="edge7" class="edge">
<title>q5&#45;&gt;q3</title>
<path fill="none" stroke="#000000" d="M267.8726,-21.5257C255.4286,-19.7729 239.2296,-17.7753 224.7738,-16.8935 206.4138,-15.7734 201.7508,-15.8389 183.3869,-16.8935 172.6688,-17.5089 161.0429,-18.6682 150.4998,-19.9084"/>
<polygon fill="#000000" stroke="#000000" points="149.8862,-16.4576 140.3914,-21.1585 150.7454,-23.4046 149.8862,-16.4576"/>
<text text-anchor="middle" x="204.0804" y="-21.8935" font-family="Times,serif" font-size="14.00" fill="#000000">b</text>
</g>
<!-- q5&#45;&gt;q5 -->
<g id="edge6" class="edge">
<title>q5&#45;&gt;q5</title>
<path fill="none" stroke="#000000" d="M280.8691,-44.2043C279.7002,-54.2929 282.2329,-63.3869 288.4673,-63.3869 292.4612,-63.3869 294.9359,-59.6547 295.8915,-54.3198"/>
<polygon fill="#000000" stroke="#000000" points="299.3929,-54.263 296.0654,-44.2043 292.3939,-54.1426 299.3929,-54.263"/>
<text text-anchor="middle" x="288.4673" y="-67.5869" font-family="Times,serif" font-size="14.00" fill="#000000">a</text>
</g>
</g>
</svg>
