<?xml version="1.0" encoding="UTF-8" standalone="no"?>
<!DOCTYPE svg PUBLIC "-//W3C//DTD SVG 1.1//EN"
 "http://www.w3.org/Graphics/SVG/1.1/DTD/svg11.dtd">
<!-- Generated by graphviz version 2.40.1 (20161225.0304)
 -->
<!-- Title: task2_2_super_simple Pages: 1 -->
<svg width="333pt" height="121pt"
 viewBox="0.00 0.00 332.82 120.69" xmlns="http://www.w3.org/2000/svg" xmlns:xlink="http://www.w3.org/1999/xlink">
<g id="graph0" class="graph" transform="scale(1 1) rotate(0) translate(4 116.6935)">
<title>task2_2_super_simple</title>
<polygon fill="#ffffff" stroke="transparent" points="-4,4 -4,-116.6935 328.8161,-116.6935 328.8161,4 -4,4"/>
<!-- 10 -->
<g id="node1" class="node">
<title>10</title>
<ellipse fill="none" stroke="#000000" cx="207.9081" cy="-88" rx="20.8568" ry="20.8568"/>
<ellipse fill="none" stroke="#000000" cx="207.9081" cy="-88" rx="24.8884" ry="24.8884"/>
<text text-anchor="middle" x="207.9081" y="-83.8" font-family="Times,serif" font-size="14.00" fill="#000000">10</text>
</g>
<!-- 9 -->
<g id="node5" class="node">
<title>9</title>
<ellipse fill="none" stroke="#000000" cx="306.8161" cy="-58" rx="18" ry="18"/>
<text text-anchor="middle" x="306.8161" y="-53.8" font-family="Times,serif" font-size="14.00" fill="#000000">9</text>
</g>
<!-- 10&#45;&gt;9 -->
<g id="edge5" class="edge">
<title>10&#45;&gt;9</title>
<path fill="none" stroke="#000000" d="M232.5076,-84.9139C244.2938,-83.0316 258.4929,-80.1669 270.8161,-76 274.4734,-74.7633 278.2289,-73.222 281.8698,-71.5652"/>
<polygon fill="#000000" stroke="#000000" points="283.6579,-74.5866 291.0939,-67.0396 280.5745,-68.3022 283.6579,-74.5866"/>
<text text-anchor="middle" x="260.7088" y="-86.2" font-family="Times,serif" font-size="14.00" fill="#000000">a, b</text>
</g>
<g id="node2" class="node">
<title></title>
</g>
<!-- 7 -->
<g id="node3" class="node">
<title>7</title>
<ellipse fill="none" stroke="#000000" cx="109" cy="-18" rx="18" ry="18"/>
<text text-anchor="middle" x="109" y="-13.8" font-family="Times,serif" font-size="14.00" fill="#000000">7</text>
</g>
<!-- &#45;&gt;7 -->
<g id="edge1" class="edge">
<title>&#45;&gt;7</title>
<path fill="none" stroke="#000000" d="M54.3048,-18C62.6909,-18 71.9407,-18 80.4103,-18"/>
<polygon fill="#000000" stroke="#000000" points="80.5976,-21.5001 90.5976,-18 80.5976,-14.5001 80.5976,-21.5001"/>
</g>
<!-- 8 -->
<g id="node4" class="node">
<title>8</title>
<ellipse fill="none" stroke="#000000" cx="207.9081" cy="-18" rx="18" ry="18"/>
<text text-anchor="middle" x="207.9081" y="-13.8" font-family="Times,serif" font-size="14.00" fill="#000000">8</text>
</g>
<!-- 7&#45;&gt;8 -->
<g id="edge2" class="edge">
<title>7&#45;&gt;8</title>
<path fill="none" stroke="#000000" d="M127.1413,-18C141.7807,-18 162.6391,-18 179.4915,-18"/>
<polygon fill="#000000" stroke="#000000" points="179.8818,-21.5001 189.8818,-18 179.8818,-14.5001 179.8818,-21.5001"/>
<text text-anchor="middle" x="155.1073" y="-22.2" font-family="Times,serif" font-size="14.00" fill="#000000">a, b</text>
</g>
<!-- 8&#45;&gt;9 -->
<g id="edge3" class="edge">
<title>8&#45;&gt;9</title>
<path fill="none" stroke="#000000" d="M225.7451,-21.3911C238.6109,-24.1896 256.2114,-28.7526 270.8161,-35.2 275.0418,-37.0655 279.3477,-39.3773 283.4433,-41.8067"/>
<polygon fill="#000000" stroke="#000000" points="281.6366,-44.8052 291.9606,-47.1853 285.3742,-38.8865 281.6366,-44.8052"/>
<text text-anchor="middle" x="260.7088" y="-40.2" font-family="Times,serif" font-size="14.00" fill="#000000">a, b</text>
</g>
<!-- 9&#45;&gt;10 -->
<g id="edge4" class="edge">
<title>9&#45;&gt;10</title>
<path fill="none" stroke="#000000" d="M288.9248,-55.8442C277.6656,-55.1011 262.976,-55.2716 250.6015,-59.2 245.5124,-60.8156 240.4744,-63.2447 235.7405,-66.0198"/>
<polygon fill="#000000" stroke="#000000" points="233.5488,-63.2703 227.0785,-71.6599 237.3685,-69.1363 233.5488,-63.2703"/>
<text text-anchor="middle" x="260.7088" y="-64.2" font-family="Times,serif" font-size="14.00" fill="#000000">a, b</text>
</g>
</g>
</svg>
